<svg version="1.1" xmlns="http://www.w3.org/2000/svg" xmlns:xlink="http://www.w3.org/1999/xlink" viewBox="0 0 1000 12">
<style type="text/css">
	.st0{filter:url(#Adobe_OpacityMaskFilter);}
	.st1{fill:url(#SVGID_2_);}
	.st2{mask:url(#SVGID_1_);}
	.st3{fill:#010101;}
	.st4{opacity:0.5;}
</style>
<defs>
	<filter id="Adobe_OpacityMaskFilter" filterUnits="userSpaceOnUse" x="-0.3" y="5.1" width="1160" height="2.7">
		<feColorMatrix  type="matrix" values="1 0 0 0 0  0 1 0 0 0  0 0 1 0 0  0 0 0 1 0"/>
	</filter>
</defs>
<mask maskUnits="userSpaceOnUse" x="-0.3" y="5.1" width="1160" height="2.7" id="SVGID_1_">
	<g class="st0">
		<linearGradient id="SVGID_2_" gradientUnits="userSpaceOnUse" x1="-24.265" y1="6.4892" x2="1181.735" y2="6.4892">
			<stop  offset="0" style="stop-color:#FFFFFF"/>
			<stop  offset="3.242622e-002" style="stop-color:#D6D4D4"/>
			<stop  offset="0.1191" style="stop-color:#908D8D"/>
			<stop  offset="0.2066" style="stop-color:#605D5C"/>
			<stop  offset="0.2932" style="stop-color:#3F3D3D"/>
			<stop  offset="0.3787" style="stop-color:#282727"/>
			<stop  offset="0.4628" style="stop-color:#151515"/>
			<stop  offset="0.5448" style="stop-color:#060706"/>
			<stop  offset="0.6224" style="stop-color:#010101"/>
			<stop  offset="0.8724" style="stop-color:#4E4E4E"/>
			<stop  offset="0.9388" style="stop-color:#010101"/>
		</linearGradient>
		<rect x="-24.3" y="-31" class="st1" width="1206" height="75"/>
	</g>
</mask>
<g class="st2">
	<g>
		<g>
			<g>
				<g>
					<path class="st3" d="M869.6,5.5c0.4,0.2,2,0.3,5.4,0.2c-0.4,0.2-4.8,0.2-6.9,0.3c4.5,0.1-0.1,0.3,1.1,0.5c5,0,7.2-0.3,12.6-0.2
						c-0.3,0.1-0.2,0.2,0.5,0.2c6.5-0.1,17.4-0.4,23.7-0.2c6.1,0.1,10.6,0,17.3-0.1c22,0.1,44.9-0.1,68.5,0.1l3.3-0.5
						c1.1,0.2,5.6,0,5,0.3c-1.3-0.1-2.5,0-4.1,0c5.1,0.4,13.4,0,19.5,0.1c-0.7-0.1-1.7-0.5,0.1-0.5c-0.5,0.5,7.2,0,8.9,0.6
						c6.1,0.1,0.2-0.4,6.5-0.4c0.7-0.3-6.1-0.1-7.2-0.4c2-0.2,5.7,0.1,5.4-0.2c-10.1-0.1-28.9,0.5-44.4,0.6l1.6-0.3
						C978.6,6,965.8,6,959.5,5.5C961,5.8,947.8,5.4,949,6c-2-0.1-2.6-0.1-5.5-0.2L942.7,6c-4.1,0-3.4-0.3-8.1-0.3
						c3,0.3-0.3,0.3-1.7,0.5c-5.3-0.3-11.6-0.5-16.3-0.8c0.4,0.1,0.8,0.2,2.4,0.3c-3.2-0.1-2.7,0.2-3.5,0.2c-3.1,0-2.8-0.3-2.6-0.5
						c-5.7-0.1-8.3,0.5-12.5,0.3l1.5,0.3c-5.9,0.1-10.8-0.2-17.3-0.1c-3.1-0.4,5.3-0.3,8-0.5c-1.3-0.1-4.1-0.1-5-0.2
						c-2.8,0.2-7.4,0.4-10.9,0.6C880.1,5.5,871.8,5.5,869.6,5.5z"/>
					<path class="st3" d="M887.6,5.3c0.8-0.1,1.5-0.1,1.9-0.1c-0.6,0-1.2,0-2.2,0C887.3,5.2,887.4,5.3,887.6,5.3z"/>
					<path class="st3" d="M869.6,5.5c0,0-0.1,0-0.1,0C868.8,5.5,869,5.5,869.6,5.5z"/>
					<path class="st3" d="M906.9,6.4c-0.3,0-0.6,0-0.8,0c-0.4,0-0.7,0-1.1,0L906.9,6.4z"/>
					<path class="st3" d="M911.7,5.2c1.3,0.1,3,0.2,5,0.3C916.1,5.4,915.7,5.3,911.7,5.2z"/>
					<path class="st3" d="M951.4,5.5c1.2,0,0.5-0.1,1.4-0.2C950.2,5.3,949.4,5.4,951.4,5.5z"/>
					<polygon class="st3" points="880.5,5.2 875.6,5.3 873.8,5.4 					"/>
					<path class="st3" d="M780.6,6.6c4.4,0.3,10.7,0.1,16.1,0.2c9.8-0.2,1.2-0.7,10.6-0.7l-1.6,0.7c9.3,0,22.6,0.1,30.5-0.5
						c0.7,0.1,2.3,0.2-0.1,0.3c6.2,0,3.2-0.9,11.5-0.7c-7.8,0.4,2.5,0.4,0.4,0.8l-1.2,0c5.3,0,12.2-0.3,15.7-0.2
						c0.1-0.2-2.9-0.4,1.8-0.4c-1.9,0-1.1-0.2-1-0.4c-4.8,0.2-7.4,0.1-10.4,0.3c-2.7-0.2,1.8-0.1-0.9-0.3l-3.9,0.2
						c-2.9-0.1,2.9-0.2-1.5-0.3c-0.5,0.1-4.1,0.3-7.6,0.2l1-0.1c-2.6,0.1-6.4,0-5.1,0.3l-3.1-0.4l0.6,0.2c-7.3-0.1-10-0.7-19.4-0.4
						c2.2,0.1,0.2,0.2-1,0.3c3.9,0.2,4.8-0.2,8.5-0.2c0.6,0.2-5.7,0.5-1.2,0.7c-5-0.3-9.3,0-11.5-0.6c-6,0-8.2,0.3-14.3,0.1l0.2-0.1
						c-1.1,0.4-4.9-0.2-9.4,0.2l3.2,0.1c-0.2,0.2-1.7,0.2-3.9,0.2c0.3-0.1,0.3-0.1-0.4-0.1c-0.7,0.3-7.5,0.3-8.3,0.4
						c2.9,0.1,6.4-0.2,9.7-0.3C782.9,6.4,783.4,6.7,780.6,6.6z"/>
					<path class="st3" d="M842.1,5.5l-1.9,0.1C840.9,5.6,841.6,5.6,842.1,5.5z"/>
					<path class="st3" d="M753.6,6.1c-3.8-0.1,1-0.3-2.5-0.4c-3.9,0.2,4.4,0.4,0.7,0.7c-2.3-0.2-6.1,0.1-7.7,0.1
						c1.7-0.2,0.7-0.6,0-0.6c-1.5,0.1-4.8-0.1-7.3-0.1c6.2,0.2-5.2,0.1,0.4,0.4c-0.4,0.2-6.2,0.4-8.5,0.2c0.2-0.2,2.1-0.1,3.6-0.1
						c1.3-0.3-3.9-0.2-4.8-0.5c-5.9,0.4-24.6,0.4-19.3,1.1c2,0.1,3.7,0,5.9-0.1c-6.1-0.1,0-0.4,0.5-0.5c2.6,0.1,7.1-0.1,6.1,0.1
						l-4.1,0.3c13.2,0.1,31.3,0.1,46.5,0l-6.6,0c0.8-0.2,3.9-0.2,6.3-0.3L759.4,6c1.9,0,3.7,0,3.6,0.1c2.3-0.2,1.3-0.3-0.1-0.5
						c4.9-0.1,5.7,0.1,9.5-0.2c-8.2-0.4-6.9,0.3-16.3,0L753.6,6.1z"/>
					<polygon class="st3" points="771.4,5.8 769.5,6.1 772.5,6 					"/>
					<path class="st3" d="M768.3,6.9c-0.1-0.1,1.1-0.1,1-0.3C765.5,6.5,766,6.7,768.3,6.9z"/>
					<path class="st3" d="M722.4,5.8l-4.9,0.1l3.2,0.1C720.6,5.9,721.8,5.9,722.4,5.8z"/>
					<path class="st3" d="M687.9,7.1c6.8,0,9.8-0.3,17.5,0c3.8-0.3-1.8-0.6-0.1-0.9c-3.8-0.1-3.4,0.5-7.3,0.6
						c-1.5-0.3-5.8,0.1-9.6,0C688.8,6.8,688.8,7,687.9,7.1z"/>
					<path class="st3" d="M664.4,6.1c-3.1,0-6.3,0.2-8.7,0.1c0.3-0.2,2.2-0.2,4.1-0.2c-1.2-0.4-3.4,0.1-6.8-0.2
						c0.3,0,1.5,0.1,0.6,0.2c-8.4-0.1-4.7,0.3-15.6,0.1c-1.6,0.1-3.1,0.1-2.9,0.4c-6.2-0.3-3.1-0.3-10.5-0.6
						c0.3,0.1,2.7,0.5,2.7,0.8c-10.5-0.4-10.7,0.1-17.4-0.3c0.7,0,1.7-0.1,3.5-0.1c-0.9-0.4-5.6,0.1-9.3,0l0.4-0.4
						c-3.4,0.1-9.4,0.3-13.7,0l1-0.2C582.7,6,572.5,5.9,565,6l-4-0.2c-10.3,0.3,10.3,0.1,2.7,0.7c-1.1-0.7-5.3,0.2-11.2-0.1
						c-2.8-0.3,5.9-0.1,2.9-0.5c-1.3,0.4-3.1,0.1-6.3,0.2c0.7-0.3-6.5,0-4.6-0.4l-11,0.6c-1.8-0.2-5-0.2-7.3-0.1
						c5.9,0-1.6,0.5,5,0.7c9.7-0.2,25.9-0.3,38.1-0.1c1.3-0.5,7.8,0,9.7-0.4c0.3,0.1,1.2,0.3,1.5,0.4c7.8-0.1-1.8-0.3,0.1-0.4
						c3.4-0.1,6.2,0.2,5.9,0.4c5.6,0,0.6-0.1,3.5-0.4l3.7,0.5C611,6.8,634.1,6.5,654,6.8l-1.5-0.3c9,0.2,15.1-0.7,23.1,0l2.7-0.3
						c-1.5,0.2,1.6,0.5-0.8,0.7c2.5-0.1,5.1,0,7.6-0.1l-4.5-0.1c3.2-0.3,6.6-0.1,7.7,0.1c6.7-0.3-4-0.5-5.5-0.8
						c-9.5,0.6-9.5-0.6-18.6-0.3C658.6,5.8,664.8,5.9,664.4,6.1z"/>
					<path class="st3" d="M676.1,6.9c0.6,0,1-0.1,1.4-0.1C677,6.9,676.6,6.9,676.1,6.9z"/>
					<path class="st3" d="M526.1,6.3c-0.7,0-1.5,0-2.7,0C522.6,6.4,524,6.3,526.1,6.3z"/>
					<path class="st3" d="M688.3,6.7C688.3,6.7,688.3,6.7,688.3,6.7C688.3,6.7,688.3,6.7,688.3,6.7C688.3,6.7,688.3,6.7,688.3,6.7z"
						/>
					<polygon class="st3" points="692.8,6 690.3,6 690.8,6.1 					"/>
					<path class="st3" d="M499.5,5.9l0,0.2C499.7,6,499.8,5.9,499.5,5.9z"/>
					<path class="st3" d="M427.5,5.8l1.5,0C428.6,5.8,428,5.8,427.5,5.8z"/>
					<path class="st3" d="M254.7,6.1c-4.7,0.1-10.9,0.2-14.4,0.5l0.3-0.2c-2.5,0.1-10.7,0.3-5.4,0.6l1.3-0.1c6-0.2,4.3,0.3,9,0.4
						c5.6-0.1,8.8-0.7,13.8-0.6c2.2,0,1.8,0.1,1.2,0.3c5,0,6.9-0.4,10.4-0.5c1.4,1.3,15.3-0.3,22.7,0.5c4.7-0.1,10.9,0,16.9-0.2
						c-3.2,0.3,5.6,0,4.3,0.4c1.7-0.7,17.1,0.3,18.2-0.6c8.1,0.3,0.3-0.1,9.6,0.2c0,0.1-1.6,0.1-2.2,0.1c3.7,0.2,5.7-0.4,8.7,0
						c7.5,0.1,1.3-0.2,5.7-0.5c7.8,0.1,5.6,0.2,9.9,0.6c0.7-0.4,5.3-0.2,9.1-0.5c-0.9,0-6.2-0.1-2.8-0.3c9,0.1,7.2-0.3,15.7-0.4
						c4.3,0.5-8.4,0-1,0.4c-5.3,0.2-9.4,0.2-12.3,0.6c7.2,0,15.9-0.1,23.8-0.3c4.3,0.1-2.2,0.2,1.2,0.3c7.8,0.2,11.9-0.5,18.1-0.3
						l-1.3,0.2c3.8-0.3,13.7,0.1,20.9-0.1c-0.9-0.1-1.5-0.2-0.6-0.3c-0.1,0.6,10-0.3,17.1,0.1c-0.6-0.4,6.3-0.6,10.7-0.7
						c1.5,0.1,1.2,0.3,1.2,0.4c-7.1-0.2-6.9,0.4-12.6,0.6c4.7-0.2,12.5,0,16.6-0.3L467,6.8c6.5,0,5.7-0.7,12.5-0.4l-0.7,0.2
						c13.7,0,29.9,0.4,40.9-0.1c1-0.2-4.6-0.6-4.9-0.8c-6.6,0.2-10.4,0.5-15.4,0.7l0-0.4c-1.1,0.2-7.2,0.4-3.8,0.6
						c-4.1,0.2-3.1-0.3-7.8-0.1c0.4-0.4,3.2-0.4,3.2-0.7L487,6c1.3-0.1-2.5-0.1-1.2-0.3c-7.5,0.5-10.6-0.2-18.4,0l4.4,0.1
						c0,0.2-2.5,0.2-4.4,0.2c-2.1-0.3-3.4-0.3-7.4-0.4c-3.5,0.2-5.4,0.5-10.1,0.5c1-0.4-7.8-0.2-8.6-0.5c-1,0.4-9.1,0.1-9.7,0.4
						c-2.5,0.1-5.9,0-5.9-0.2c0.4,0,1.1-0.1,1.9-0.1l-2.5,0c0.2,0,0.2-0.1,0.4-0.1c-2.2,0-2.2,0.3-5.1,0.1c0-0.1,1.6-0.1,2.8-0.1
						c-5.9-0.1-10.4,0.6-15.3,0.2c-1,0.2-7.8,0.2-6.3,0.6c-1.8-0.1-1.2-0.5-6.2-0.4c-2.9,0.4-5.6-0.1-9.4,0.1c5.1-0.4,0-0.1,4.4-0.5
						C387,5.5,382,6,376,6c-0.6-0.1-0.6-0.2-1.2-0.3c-2.2,0.1-4.7,0.4-6.9,0.1l0.3,0.3c-4-0.1-9.7,0-14-0.3l-5.1,0.5
						c-6.8-0.5-15.9-0.1-21.3,0.4c-2.5,0-6.2-0.1-6.2-0.2c0.6,0,1.6-0.1,2.7-0.2c-3.7,0-8.1-0.3-10.2,0.1c-3.8,0.1-2.8-0.3-5.6-0.3
						c-7.6,0.6-22.4-0.4-24.7,0.4c3.1,0,9,0.2,14.9,0.1c-1.6,0.1-0.4,0.3-2.5,0.3c-5.9,0-9-0.3-14.9-0.1l0.7-0.5
						C272,5.6,262.7,6.9,254.7,6.1z"/>
					<path class="st3" d="M330.8,6.1l-4.3-0.3l0.5,0.2C328.3,6,329.6,6,330.8,6.1z"/>
					<path class="st3" d="M327,6.1c-0.9,0-1.7,0.1-2.5,0.1c0.9,0,1.8,0,2.6-0.1L327,6.1z"/>
					<path class="st3" d="M237.6,6.2c-1,0-2.8-0.1-4.7,0C234.1,6.3,236.6,6.3,237.6,6.2z"/>
					<polygon class="st3" points="232.6,6.4 234.7,6.5 235.1,6.4 					"/>
					<path class="st3" d="M106.5,6.8l-6.9,0.3c-1.2-0.2-9,0-6.5-0.3C89,7.3,80,6.9,83.4,7.5c20.3-0.2,48.3,0.1,71.8-0.4l-3.8,0.2
						c12.2-0.4,16.7,0.5,26.6-0.4l-1.3,0.5c5.6,0.1,10.7-0.7,16.6-0.2l-0.6-0.2c1.6,0,2.2,0.1,3.7,0.1l-0.6-0.1
						c4.1-0.2,6.6-0.2,10.6,0c0.3,0.1-1.9,0.1-3.1,0.1c1.8,0.1,5-0.2,8.1-0.2c2.5,0.1,0,0.2-0.4,0.3c9.4-0.2,13.7,0.3,20.3-0.4
						c0.7-0.1-2.4-0.2,1-0.3C226,6.3,221,6.6,215.3,6.8l1.6,0c-4.5,0.7-3.4-0.2-10.6,0.1c1.9-0.3,5-0.3,6.3-0.4
						c-8.3-0.5-11.9,0.4-17.4-0.3l0.6,0c-1.2-0.1-3.4,0.1-5.3,0.1c0.6,0.1,2.5,0.1,3.7,0.2c-1.9,0.1-2.9,0.4-3.5,0.5
						c-2.1-0.3-2.8,0.1-6.2,0c-1.2-0.3,2.8-0.2,4.1-0.4l-4.1,0.2c-3.7,0-3.7-0.3-5.5-0.4c-3.1,0.2,1.9,0.1-0.7,0.4
						c-4-0.3-21.2-0.2-29.3,0c2.8,0,1-0.3,4.4-0.2c-1.2-0.1-5.6,0.1-5.7,0.3C142,7,134.9,6.9,129.6,6.7l1.5,0.2
						c-4.4,0.3-11.2-0.3-19-0.1l0.2,0c-2.5,0-4.7,0.6-9.3,0.4C104.3,7.1,106.8,7.1,106.5,6.8z"/>
					<path class="st3" d="M79,7.3L81.6,7c-2.8-0.1-6.3,0.3-5.7,0.5c1.9-0.1,4.4,0.1,4.7-0.1C80.2,7.4,80.3,7.3,79,7.3z"/>
					<path class="st3" d="M26.6,7.4c-1,0.1-0.8,0.2-1.2,0.3c11.1,0,24.8-0.2,29.2,0.1c3.7,0.1,4.4-0.4,9.1-0.5l2.1,0.3
						c2.5-0.2,10.3,0.1,7.6-0.3c-0.3,0-2.2,0.2-4.4,0.1l0.4-0.2l-5,0.1L66,7c-6.8-0.3-4.8,0.6-13.2,0.4L52.9,7
						c-5.6,0-8.4,0.1-13.4-0.1c0,0,0,0.2,0.9,0.1c0.9,0,2.2,0.2,1.5,0.3c-8.5,0.3,1.3-0.2-4.6-0.4c-7.2,0.3-21,0.5-25,0.2
						c3.4,0.3-1.7,0.5-5.7,0.5C4.8,7.5,7.9,7.4,8.6,7.2c-1.9,0-3.4-0.1-5.3-0.1c2.5,0.2,0.9,0.5-3.5,0.7C9.4,8.1,17,7.3,26.6,7.4z"
						/>
					<path class="st3" d="M23.8,7.7c1,0,1.4-0.1,1.7-0.1c-1.3,0-2.6,0-3.8,0L23.8,7.7z"/>
				</g>
			</g>
		</g>
	</g>
</g>
<g class="st4">
	<path class="st3" d="M1000.3,5.7c-6,0.1-12.2,0.2-17.9,0.3l1.6-0.3C975.9,6,963,6,956.5,5.5c1.5,0.3-11.9-0.1-10.7,0.5
		c-2-0.1-2.6-0.1-5.5-0.2L939.5,6c-4.1,0-3.5-0.3-8.2-0.3c3.1,0.3-0.3,0.3-1.7,0.5c-5.4-0.3-11.7-0.6-16.5-0.8
		c0.4,0.1,0.8,0.2,2.5,0.3c-3.3-0.1-2.7,0.2-3.6,0.2c-3.2,0-2.8-0.3-2.7-0.5c-5.8-0.1-8.4,0.5-12.7,0.3l1.5,0.3
		c-6,0.1-11-0.2-17.6-0.1c-3.2-0.4,5.4-0.3,8.1-0.5c-1.3-0.1-4.2-0.1-5.1-0.2c-2.8,0.2-7.5,0.4-11,0.6c3.4-0.4-5-0.4-7.3-0.4
		c0.4,0.2,2,0.3,5.5,0.2c-0.4,0.2-4.9,0.2-7,0.3c4.6,0.1-0.1,0.3,1.1,0.5c5.1,0,7.4-0.3,12.8-0.2c-0.3,0.1-0.2,0.2,0.5,0.2
		c6.5-0.1,17.7-0.4,24.1-0.2c6.2,0.1,10.7,0,17.5-0.1c22.3,0.1,45.5-0.1,69.5,0.1l3.4-0.5c1.2,0.2,5.7,0,5,0.3c-1.3-0.1-2.6,0-4.1,0
		c1.9,0.1,4.2,0.2,6.7,0.2C1000.3,6.2,1000.3,5.9,1000.3,5.7z"/>
	<path class="st3" d="M883.6,5.3c0.8-0.1,1.5-0.1,1.9-0.1c-0.6,0-1.2,0-2.2,0C883.2,5.2,883.4,5.3,883.6,5.3z"/>
	<path class="st3" d="M865.3,5.5c0,0-0.1,0-0.1,0C864.5,5.5,864.7,5.5,865.3,5.5z"/>
	<path class="st3" d="M903.1,6.4c-0.3,0-0.6,0-0.9,0c-0.4,0-0.7,0-1.1,0L903.1,6.4z"/>
	<path class="st3" d="M908.1,5.2c1.3,0.1,3.1,0.2,5,0.3C912.5,5.4,912.1,5.3,908.1,5.2z"/>
	<path class="st3" d="M948.3,5.5c1.2,0,0.5-0.1,1.4-0.2C947.1,5.3,946.2,5.4,948.3,5.5z"/>
	<polygon class="st3" points="876.4,5.2 871.4,5.3 869.6,5.4 	"/>
	<path class="st3" d="M775,6.6c4.4,0.3,10.9,0.1,16.3,0.2c10-0.2,1.3-0.7,10.7-0.7l-1.6,0.7c9.5,0,22.9,0.1,31-0.5
		c0.7,0.1,2.4,0.2-0.1,0.3c6.3,0,3.3-0.9,11.7-0.7c-7.9,0.4,2.6,0.4,0.4,0.8l-1.2,0c5.4,0,12.4-0.3,16-0.2c0.1-0.2-2.9-0.4,1.8-0.4
		c-1.9,0-1.1-0.2-1-0.4c-4.9,0.2-7.5,0.1-10.5,0.3c-2.7-0.2,1.8-0.1-0.9-0.3l-3.9,0.2c-2.9-0.1,3-0.2-1.5-0.3
		c-0.5,0.1-4.2,0.3-7.7,0.2l1-0.1c-2.7,0.1-6.5,0-5.2,0.3L827,5.7l0.6,0.2c-7.4-0.1-10.2-0.7-19.7-0.4c2.3,0.1,0.2,0.2-1,0.3
		c4,0.2,4.9-0.2,8.7-0.2c0.6,0.2-5.8,0.5-1.3,0.7c-5-0.3-9.5,0-11.6-0.6c-6.1,0-8.3,0.3-14.5,0.1l0.2-0.1c-1.1,0.4-5-0.2-9.5,0.2
		L782,6c-0.2,0.2-1.7,0.2-3.9,0.2c0.3-0.1,0.3-0.1-0.5-0.1c-0.7,0.3-7.6,0.3-8.5,0.4c2.9,0.1,6.5-0.2,9.9-0.3
		C777.3,6.4,777.9,6.7,775,6.6z"/>
	<path class="st3" d="M837.4,5.5l-2,0.1C836.2,5.6,836.9,5.6,837.4,5.5z"/>
	<path class="st3" d="M747.5,6.1c-3.9-0.1,1-0.3-2.6-0.4c-3.9,0.2,4.5,0.4,0.7,0.7c-2.4-0.2-6.2,0.1-7.8,0.1c1.7-0.2,0.8-0.6,0-0.6
		c-1.5,0.1-4.8-0.1-7.4-0.1c6.2,0.2-5.3,0.1,0.4,0.4c-0.4,0.2-6.3,0.4-8.7,0.2c0.2-0.2,2.1-0.1,3.7-0.1c1.3-0.3-4-0.2-4.9-0.5
		c-6,0.4-25,0.4-19.6,1.1c2,0.1,3.8,0,6-0.1c-6.2-0.1,0-0.4,0.5-0.5c2.6,0.1,7.2-0.1,6.1,0.1l-4.2,0.3c13.4,0.1,31.8,0.1,47.2,0
		l-6.7,0c0.8-0.2,3.9-0.2,6.4-0.3L753.5,6c1.9,0,3.8,0,3.6,0.1c2.3-0.2,1.3-0.3-0.1-0.5c5-0.1,5.8,0.1,9.6-0.2
		c-8.3-0.4-7,0.3-16.5,0L747.5,6.1z"/>
	<polygon class="st3" points="765.7,5.8 763.7,6.1 766.8,6 	"/>
	<path class="st3" d="M762.5,6.9c-0.1-0.1,1.1-0.1,1-0.3C759.7,6.5,760.1,6.7,762.5,6.9z"/>
	<path class="st3" d="M715.9,5.8l-5,0.1l3.2,0.1C714.1,5.9,715.3,5.9,715.9,5.8z"/>
	<path class="st3" d="M680.9,7.1c6.9,0,9.9-0.3,17.7,0c3.8-0.3-1.8-0.6-0.1-0.9c-3.9-0.1-3.4,0.5-7.4,0.6c-1.5-0.3-5.9,0.1-9.7,0
		C681.8,6.8,681.8,7,680.9,7.1z"/>
	<path class="st3" d="M657.1,6.1c-3.2,0-6.4,0.2-8.9,0.1c0.3-0.2,2.2-0.2,4.1-0.2c-1.2-0.4-3.5,0.1-6.9-0.2c0.3,0,1.6,0.1,0.6,0.2
		c-8.5-0.1-4.8,0.3-15.8,0.1c-1.6,0.1-3.2,0.1-2.9,0.4c-6.3-0.3-3.1-0.3-10.6-0.6c0.3,0.1,2.8,0.5,2.7,0.8
		c-5.3-0.2-8.1-0.2-10.3-0.2c-0.6,0-1.1,0-1.6,0c-0.5,0-1.1,0-1.6-0.1c-1.1-0.1-2.4-0.4-4.1-0.6c0.8,0,1.7,0.1,3.5,0.4
		c-0.8-0.6-5.7-0.7-9.5-0.8l0.4-0.4c-3.5-0.1-9.6,0.3-14,0.3l1-0.2c-8.9,0.8-19.3,1.7-26.9,1.9c0,0-1,0-2-0.1c-1,0-2-0.1-2-0.1
		c-2.6,0-3.3,0-2.9,0.1c0.4,0.1,1.7,0.1,3.2,0.2c2.9,0.1,6.2,0.1,2.4,0.5C554.4,7,553,7,551.1,7.1c-1,0-2.1,0-3.4,0
		c-0.6,0-1.3-0.1-2-0.1c-0.7-0.1-1.4-0.2-2.1-0.3c-1.4-0.3,0.1-0.2,1.6,0c1.5,0.1,2.9,0.1,1.4-0.1c-0.7,0.1-1.5,0.1-2.5,0
		c-0.5-0.1-1.1-0.1-1.7-0.2c-0.2,0-0.3,0-0.5-0.1c-0.1,0-0.2,0-0.3,0l-0.3,0c-0.4,0-0.7,0-1.1,0c0.3-0.2-1.3-0.2-2.8-0.2
		c-1.5,0-2.8,0-1.9-0.2c0,0-2.8,0.2-5.6,0.5c-2.8,0.3-5.6,0.5-5.6,0.5c-1.8-0.1-5,0.1-7.4,0.2c6-0.3-1.6,0.6,5.1,0.4
		c4.9-0.3,11.5-0.7,18.4-0.8c0.4,0,0.9,0,1.3,0l1.3,0.1l2.6,0.3c1.7,0.1,3.5,0.3,5.2,0.3c1.7,0.1,3.4,0.1,5.1,0.1
		c1.7,0,3.3,0,4.8-0.1c1.3-0.5,7.9-0.4,9.8-1c0.3,0.1,1.2,0.2,1.5,0.3c7.9-0.7-1.9-0.1,0-0.4c3.5-0.3,6.3-0.2,6-0.1
		c5.7-0.3,0.6-0.2,3.5-0.6c0,0,0.9,0.1,1.9,0.1c0.9,0.1,1.9,0.2,1.9,0.2c4.4-0.2,9.2-0.3,14.2,0c1.2,0.1,2.5,0.1,3.8,0.3
		c0.6,0.1,1.3,0.2,1.9,0.2l1,0.1c0.1,0,0.3,0.1,0.5,0l0.5,0c2.6,0,5.2,0,7.9-0.1c10.6-0.1,21.5-0.1,31.6,0.1L645,6.4
		c9.1,0.2,15.3-0.7,23.4,0l2.8-0.3c-1.5,0.2,1.6,0.5-0.8,0.7c2.5-0.1,5.1,0,7.7-0.1l-4.6-0.1c3.2-0.3,6.7-0.1,7.8,0.1
		c6.8-0.3-4.1-0.5-5.6-0.8c-9.6,0.6-9.7-0.6-18.9-0.3C651.1,5.8,657.4,5.9,657.1,6.1z"/>
	<path class="st3" d="M669,6.9c0.6,0,1.1-0.1,1.4-0.1C669.9,6.9,669.5,6.9,669,6.9z"/>
	<path class="st3" d="M516.9,7.1c-0.7,0-1.6,0.1-2.7,0.1C513.3,7.4,514.8,7.2,516.9,7.1z"/>
	<path class="st3" d="M681.4,6.7C681.4,6.7,681.4,6.7,681.4,6.7C681.3,6.7,681.3,6.7,681.4,6.7C681.3,6.7,681.3,6.7,681.4,6.7z"/>
	<polygon class="st3" points="685.9,6 683.4,6 683.8,6.1 	"/>
	<path class="st3" d="M490,7l0,0.2C490.2,7.1,490.3,7.1,490,7z"/>
	<path class="st3" d="M417.3,5.3c0,0,0.4,0,0.8-0.1c0.4,0,0.8,0,0.8,0C418.4,5.2,417.9,5.2,417.3,5.3z"/>
	<path class="st3" d="M243.8,4.6c-1.2,0.3-2.4,0.6-3.7,1c-0.6,0.2-1.3,0.4-1.9,0.6c-0.2,0.1-0.6,0-0.9,0c-0.3,0-0.7,0-1,0
		c-2.6,0.1-5.1,0.2-6.8,0.3l0.3-0.2c-2.6,0.1-10.8,0.3-5.5,0.6l1.3-0.1c6.1-0.2,4.4,0.3,9.1,0.4c0.7,0,1.4,0,2-0.1
		c0.3,0,0.6,0,0.9,0c0.2,0,0.4,0,0.5,0c0.1,0,0.2-0.1,0.3-0.1l0.2-0.1c1.1-0.4,2.1-0.8,3.1-1.1c1-0.3,2-0.6,3.1-0.9
		c1.1-0.2,2.2-0.5,3.4-0.7c2.2-0.3,1.9-0.1,1.2,0.1c5-0.6,6.9-1.2,10.4-1.4c0.7,0.6,4.6,0.4,9.2,0.6c4.6,0.1,10,0.6,13.7,1.6
		c2.3,0.3,5.1,0.8,8,1.3c0.7,0.1,1.5,0.3,2.2,0.4c0.2,0,0.5,0.1,0.7,0.1l0.6-0.3l1-0.5c0.7-0.3,1.4-0.6,2.1-0.9
		c0.7-0.2,1.4-0.5,2.1-0.7c-1.5,0.6-0.1,0.2,1.4-0.3c1.6-0.3,3.5-0.7,2.8-0.4c0.7-0.6,5.1-1,9.3-0.8c2.1,0.1,4.2,0.3,5.8,0.4
		c1.6,0.2,2.8,0.2,3.1,0c8.1,1.5,0.4,0,9.6,1.7c0,0.1-1.6-0.2-2.2-0.2c3.7,0.8,5.7,0.5,8.8,1.4c3.8,0.5,4.1,0.4,4,0.3
		c-0.1-0.1-0.5-0.3,1.7-0.2c2,0.2,3.3,0.2,4.3,0.2c1,0,1.6,0,2.1,0.1c0.5,0,0.9,0.1,1.4,0.1c0.1,0,0.3,0,0.4,0c0.1,0,0.2,0,0.4,0.1
		c0.4,0.1,0.8,0.2,1.3,0.4c0.8-0.3,5.4,0.8,9.2,1.1c-0.5-0.1-2-0.4-3-0.5c-1-0.2-1.4-0.4,0.3-0.1c4.5,0.7,6.3,0.9,8.1,1
		c1.8,0.1,3.4,0.2,7.7,0.4c2.1,0.4,0,0.3-1.7,0.1c-1.7-0.2-3.1-0.3,0.7,0.2c-5.4-0.2-9.5-0.8-12.4-0.8c3.6,0.5,7.6,1,11.7,1.3
		c4.1,0.3,8.3,0.3,12.3,0.2c4.4-0.1-2.3,0.3,1.2,0.2c3.9,0,7-0.4,9.8-0.8c1.4-0.2,2.7-0.4,4.1-0.7c1.4-0.2,2.8-0.5,4.4-0.7
		c0,0-0.3,0.1-0.6,0.2c-0.3,0.1-0.6,0.2-0.6,0.2c1.9-0.5,5.3-1.2,9.1-2c3.8-0.7,8.2-0.6,11.8-0.6c-0.9-0.2-1.5-0.2-0.6-0.3
		C425.5,6,428,6,431.5,6.1c3.5,0,7.8-0.1,11.4-0.5c-0.3-0.2,1.3-0.5,3.3-1.2c2.1-0.8,5-1.3,7.3-1.4c1.6,0.1,1.2,0.3,1.2,0.4
		c-0.9,0-1.7,0-2.4,0c-0.7,0-1.3,0.1-1.9,0.2c-1.1,0.2-1.9,0.4-2.6,0.7c-0.8,0.2-1.4,0.6-2.3,0.9c-0.9,0.3-1.9,0.6-3.3,0.9
		c0.6-0.1,1.2-0.2,1.9-0.4c0.3-0.1,0.7-0.2,1-0.2c0.4-0.1,0.7-0.2,1.1-0.3c0.3-0.1,0.7-0.2,1.1-0.3c0.4-0.1,0.7-0.2,1.1-0.3
		c0.7-0.2,1.5-0.3,2.3-0.4c3-0.4,6-0.3,8.1-0.2l-1.6,0.2c3.3,0.2,4.7,0.4,6.2,0.4c1.5,0.1,3,0.3,6.4,1L469,5.5
		c1.7,0.3,3.5,0.6,5.3,0.9c1.8,0.2,3.6,0.5,5.4,0.7c1.8,0.3,3.7,0.4,5.5,0.6c1.8,0.1,3.7,0.3,5.5,0.3c7.2,0.3,14.1,0.1,19.7-0.3
		c1-0.2-4.7-0.5-5-0.6c-6.6,0.3-10.5,0.6-15.6,0.5l0.1-0.4c-1.2,0.2-7.3-0.1-3.9,0.4c-2.1-0.1-2.8-0.2-3.7-0.4
		c-0.8-0.1-1.8-0.3-4.1-0.5c0.4-0.3,3.2,0,3.3-0.3L477.4,6c1.3,0-2.5-0.4-1.2-0.4c-7.6-0.4-10.4-2.2-18.5-2.7c0,0,0.3,0,0.7,0.1
		c0.4,0,1,0.1,1.5,0.2c1.1,0.1,2.2,0.3,2.2,0.3c-0.1,0.2-2.6-0.2-4.5-0.3c-1.1-0.2-2-0.3-3.1-0.3c-0.6,0-1.2,0-1.9,0
		c-0.7,0-1.6,0.1-2.7,0.2c-1.8,0.3-3.1,0.9-4.5,1.5c-1.3,0.4-3,0.9-5.3,1.1c0.5-0.2-1.5-0.1-3.6-0.1c-2.2,0-4.6-0.1-5.1-0.3
		c-0.5,0.2-2.8,0.1-5.1,0.1c-2.3-0.1-4.5-0.1-4.8,0.1c-2.6,0.1-6.1,0.4-6.1,0.3c0.4-0.1,1.1-0.2,1.9-0.3c0,0-0.6,0.1-1.3,0.1
		c-0.6,0.1-1.3,0.2-1.3,0.2c0.2-0.1,0.1-0.1,0.4-0.2c-0.6,0.1-1,0.2-1.4,0.3c-0.4,0.1-0.6,0.2-1,0.3c-0.6,0.2-1.3,0.4-2.8,0.6
		c0-0.1,1.5-0.5,2.8-0.8c-5.8,1.3-10.2,2.7-15.2,2.9c-0.5,0.1-2.4,0.4-4.1,0.6c-1.7,0.2-3,0.4-2.2,0.5c-0.9,0-1.2-0.1-1.9-0.2
		c-0.7-0.1-1.8-0.1-4.3-0.1c-1.4,0.2-2.9,0.1-4.4,0c-1.5-0.1-3.2-0.3-5.1-0.2c5.1-0.1,0-0.1,4.5-0.2c-3.4-0.3-8.6-0.1-14.5-1
		c-0.6-0.2-0.6-0.3-1.2-0.4c-2.2-0.2-4.8-0.3-6.9-1l0.2,0.3c-1-0.2-2.1-0.4-3.3-0.7c-0.6-0.1-1.2-0.2-1.8-0.4c-0.1,0-0.2-0.1-0.3,0
		l-0.3,0l-0.5,0l-0.9,0l-1.8,0c-0.6,0-1.2,0-1.8-0.1c-1.2-0.1-2.4-0.1-3.4-0.3c0,0-1.3,0-2.6,0c-1.3,0-2.6-0.1-2.6-0.1
		c-3.4-0.7-7.3-1.4-11.2-1.9c-3.8-0.5-7.5-0.8-10.2-0.8c-0.6-0.1-1.3-0.1-2-0.2c-0.7,0-1.4-0.1-2-0.1c-1.3-0.1-2.2-0.1-2.2-0.2
		c0.6-0.1,1.6-0.1,2.8-0.1c-1.9-0.1-3.9-0.1-5.8,0c-1.9,0.2-3.5,0.3-4.5,0.8c-1.9,0.4-2.6,0.5-3.1,0.6c-0.6,0.1-1.1,0.1-2.4,0.5
		c-0.5,0.2-0.9,0.4-1.4,0.6c-0.5,0.2-1,0.5-1.5,0.7c-0.3,0.1-0.5,0.2-0.8,0.4l-0.3,0.1c-0.1,0-0.2,0-0.3,0c-0.6-0.1-1.2-0.2-1.8-0.3
		c-2.5-0.5-5.1-1-7.6-1.4c-4.9-0.8-9.3-1.3-10.5-1c3.2,0.3,9.1,1.2,15,2.2c-1.6-0.2-0.4,0.2-2.6-0.1c-6-0.9-9-1.6-15-2l0.8-0.5
		c-5.2-0.7-10.2-0.6-14.8-0.1C252.2,3.3,247.9,4,243.8,4.6z"/>
	<path class="st3" d="M320.1,2.8c0,0-1.1-0.2-2.2-0.4c-1.1-0.2-2.2-0.3-2.2-0.3l0.5,0.3C317.6,2.5,319,2.5,320.1,2.8z"/>
	<path class="st3" d="M316.2,2.4c-0.9-0.1-1.8,0-2.6,0c1,0,1.9,0.1,2.7,0.1L316.2,2.4z"/>
	<path class="st3" d="M226.7,6.2c-1,0-2.9-0.1-4.8,0C223.2,6.3,225.7,6.3,226.7,6.2z"/>
	<polygon class="st3" points="221.6,6.4 223.8,6.5 224.1,6.4 	"/>
	<path class="st3" d="M95.6,5.8c0,0-1.7-0.2-3.5,0c-1.7,0.1-3.4,0.5-3.4,0.5c-0.3,0-1,0.2-1.8,0.4c-0.2,0.1-0.4,0.1-0.6,0.2L85.9,7
		c-0.2,0.1-0.3,0.1-0.5,0C84.9,7,84.5,7,84,7c-1.8-0.1-3.1,0-1.8-0.2c-4.1,0.3-12.8,2.9-9.4,2.5c2.4-0.7,5-1.5,7.7-1.8
		c1.3-0.2,2.7-0.2,4.1-0.1l0.5,0l0.3,0c0.2,0,0.3,0,0.5,0L87,7c0.7-0.2,1.3-0.4,2-0.5c2.8-0.5,5.7-0.3,8.7,0.2c3,0.5,6,1.4,9.1,2.1
		c3.1,0.8,6.3,1.4,9.6,1.6c3.3,0.2,6.6-0.2,9.7-1.3c0.8-0.3,1.5-0.6,2.3-0.9c0.7-0.3,1.6-0.9,1.7-0.8c0.8,0.1,1.6,0.1,2.4,0.2
		c0.8,0,1.6,0,2.4,0c3.2-0.1,6.2-0.6,9.2-1.2c0,0-0.9,0.2-1.9,0.4c-1,0.2-1.9,0.4-1.9,0.4c12.3-2.3,16.7-3.3,26.5-4l-1.3,0.4
		c0.7,0,1.4,0,2.1,0.1c0.7,0.1,1.3,0.1,2,0.2c1.4,0,2.7,0.3,4,0.5c0.7,0.1,1.3,0.3,2,0.5c0.7,0.2,1.3,0.4,2,0.6
		c0.6,0.3,1.3,0.6,1.9,0.9c0.3,0.2,0.6,0.3,0.9,0.5c0.1,0,0.5,0.3,0.7,0.3l0.4,0l0.3,0c0,0-0.2,0-0.3-0.1c-0.2,0-0.4-0.1-0.4-0.1
		c0.4,0,0.8,0,1.1,0c0.3,0,0.6,0,0.9,0c0.6,0,1.1,0,1.9,0l-0.6-0.1c4.1-0.2,6.7-0.2,10.8,0c0.3,0.1-1.9,0.1-3.2,0.1
		c1.9,0.1,5.1-0.2,8.3-0.2c2.5,0.1,0,0.2-0.4,0.3c9.5-0.2,13.9,0.3,20.6-0.4c0.7-0.1-2.5-0.2,1-0.3c-6.3-0.2-11.4,0.1-17.1,0.2
		l1.6,0c-4.5,0.7-3.5-0.2-10.8,0.1c1.9-0.3,5.1-0.3,6.4-0.4c-8.5-0.5-12.1,0.4-17.7-0.3l0.6,0c-0.6,0-1.5,0-2.5,0
		c-0.2,0-0.5,0-0.7,0c-0.2,0-0.4-0.1-0.6-0.2c-0.5-0.2-0.9-0.4-1.4-0.6c0.3,0.2,0.8,0.5,1.4,0.8c0.2,0.1,0.3,0.2,0.5,0.2l0.5,0
		c0.4,0,0.7,0,1,0c-0.5,0-0.9,0-1.3,0.1c-0.2,0-0.4,0.1-0.6,0c-0.2-0.1-0.3-0.1-0.5-0.1c-0.6-0.1-1-0.2-1.3-0.3
		c-0.9-0.6-1.6-0.9-2.4-1.1c-0.4-0.1-0.9-0.2-1.4-0.4c-0.6-0.2-1.2-0.4-2-0.6c-0.6-0.2,0.2-0.2,1.2,0c1,0.3,2.3,0.7,2.9,0.8
		c0,0-4-1.1-4-1c-0.9-0.2-1.6-0.4-2.1-0.5c-0.5-0.1-0.9-0.2-1.3-0.3c-0.7-0.2-1.1-0.3-2.1-0.5c-1.6,0-1.1,0.1-0.6,0.2
		c0.3,0,0.6,0.1,0.6,0.1c0.1,0.1-0.1,0.1-0.8,0.1c-1-0.1-2.8-0.3-5.2-0.1c-1.2,0-2.4,0.2-3.8,0.3c-1.3,0.2-2.8,0.4-4.2,0.7
		c-2.9,0.5-5.9,1.2-8.7,1.7c-2.8,0.5-5.4,1-7.5,1.2c1.4-0.1,1.7-0.3,2-0.4c0.3-0.1,0.7-0.2,2.4-0.4c-0.6,0.1-2,0.3-3.3,0.5
		c-1.3,0.2-2.4,0.3-2.4,0.4c-0.7,0.1-1.5,0.1-2.2,0.1c-0.8,0-1.5,0-2.3,0c-0.4,0-0.8-0.1-1.2-0.1l-0.6,0l-0.2,0L129.7,7
		c-0.6,0.3-1.4,0.8-2.2,1.1c-3,1.3-6.2,1.8-8.9,1.7c0,0,0.4,0,0.8,0.1c0.4,0,0.8,0,0.8,0c-2.3,0.4-5.2,0.2-8.4-0.5
		c-3.2-0.6-6.8-1.8-10.7-2.6l0.2,0c-1.2-0.3-2.4-0.4-3.9-0.5c-1.4-0.1-3.1-0.3-5.4-0.3C93.3,5.8,95.8,6.1,95.6,5.8z"/>
	<path class="st3" d="M68.5,10.4l2.4-1c-2.7,0.8-6.1,2.1-5.5,2.1c1.9-0.5,4.3-1.1,4.6-1.4C69.7,10.1,69.7,10,68.5,10.4z"/>
	<path class="st3" d="M21.2,5.8c-0.1-0.2-0.2-0.3-0.3-0.5c0-0.1-0.1-0.1-0.1-0.2c0,0,0-0.1-0.1-0.1C20.6,5,20.6,5,20.5,4.9
		c-0.1-0.1-0.2-0.1-0.3-0.2c0.2,0.4,0.4,0.7,0.7,1.1c0.3,0.6,0.6,1.2,0.9,1.7l0.5,0.9l0.1,0.1c0,0,0,0.1,0.1,0l0.1-0.2L22.9,8
		c0.4-0.5,0.8-1,1.1-1.5l0.6-0.8l0.3-0.4L25,5.1l0.7-0.8c0.4-0.5,1-0.9,1.5-1.4c2.1-1.8,4.8-2.5,7.2-2.4c2.5,0.1,4.8,1,6.6,1.9
		c1.8,0.9,3.2,1.8,4.1,2.4c1.5,1.1,2.5,1.6,3.5,2.3c0.1,0,0.2,0.1,0.2,0.1l0,0c0,0,0,0,0.1,0c0.1,0.1,0.3,0.2,0.4,0.3
		c0.3,0.2,0.6,0.5,0.9,0.7c0.7,0.5,1.5,1.1,2.6,1.7c0,0.1,1.9,1.3,2,1.2c0.7,0.2,1.7,0.5,2.8,0.6c1.1,0.1,2.3,0.2,3.4,0.1
		c2-0.2,3.3-0.5,1.9-0.5c-0.3,0-2.3,0.6-4.6,0.3l0.4-0.1c0,0-1.3-0.1-2.6-0.4c-1.3-0.3-2.5-0.9-2.5-0.9s0.4,0.1,0.8,0.3
		c0.4,0.1,0.8,0.2,0.8,0.2c-1.7-0.7-2.7-1.4-3.5-1.9c-0.4-0.2-0.7-0.5-1-0.7c-0.3-0.2-0.6-0.4-0.9-0.7c-0.1-0.1-0.3-0.2-0.4-0.4
		c-0.2-0.2-0.2-0.1-0.4-0.3c-0.4-0.2-0.8-0.5-1.2-0.7c-0.5-0.3-1-0.6-1.6-1.1c-0.6-0.4-1.4-0.9-2.3-1.4l0.3-0.3
		c-2.4-1.4-4.4-2.2-6.3-2.8c-1.9-0.5-3.8-0.9-6.2-0.5c0,0,0,0.2,0.9,0c0.2,0,0.5,0,0.7,0c0.2,0,0.4,0,0.6,0.1
		c0.3,0.1,0.5,0.1,0.1,0.2c-0.2,0-0.5,0-0.7,0c-0.2,0-0.4,0.1-0.6,0.1c-0.4,0.1-0.7,0.1-0.9,0.2c-0.5,0.2-0.8,0.2-1,0.3
		c-0.3,0.1-0.1,0,0.1-0.2c0.3-0.1,0.6-0.3,0.6-0.4c0,0-0.2,0-0.5,0c-0.3,0.1-0.8,0.1-1.4,0.4c-1.6,0.7-3.3,2.1-4.8,3.9l-0.3,0.3
		l-0.4,0.5c-0.3,0.4-0.5,0.7-0.8,1.1l-0.8,1.1C22.3,7.4,22,7,21.8,6.6c-0.2-0.4-0.4-0.8-0.7-1.2l-0.5-0.9c-0.4-0.5-0.7-1-1.1-1.4
		c-0.8-0.8-1.7-1.4-2.5-1.5c-0.9-0.1-1.8,0.3-2.5,0.8c-1.5,1-2.6,2.3-3.4,2.9c1.3-1.1,1.1-0.7,0.2,0.3c-0.5,0.5-1.1,1.2-2,1.9
		c-0.5,0.3-1,0.7-1.9,0.9C6.9,8.4,6.4,8.4,6,8.2C5.6,8,5.2,7.8,5,7.5C5,7.4,4.9,7.4,4.9,7.3c0,0,0,0,0,0c0,0,0-0.1-0.1-0.1
		c-0.1-0.1-0.1-0.1,0-0.1c0,0,0.1,0,0.2,0.1c0,0,0,0,0.1,0c0.1,0.1,0.1,0.1,0.2,0.2C5.5,7.7,6.1,8,6.6,8.1c0.6,0.1,1-0.1,1.2-0.2
		C7.2,8.1,6.5,8,5.9,7.7C5.7,7.5,5.4,7.3,5.3,7.1L5.2,7.1c0,0,0,0,0,0l0,0c0,0,0,0-0.1-0.1L4.9,6.8c-0.6-0.5-1.3-0.9-2.1-1
		c0.5,0.1,0.8,0.3,0.8,0.4c0.1,0.1,0,0.1-0.3,0.1c-0.3,0-0.7-0.1-1.1,0C2,6.4,1.7,6.4,1.5,6.6C1.4,6.7,1.2,6.8,1.1,6.9
		C1,7,0.9,7.2,0.9,7.2c0,0,0.2-0.2,0.4-0.3c0.1-0.1,0.3-0.2,0.5-0.3c0.3-0.1,0.6-0.2,1-0.1C3,6.6,3.4,6.7,3.8,6.9
		C4,7,4.2,7.2,4.4,7.3l0.3,0.2c0.1,0.1,0-0.1,0.2,0.2l0.2,0.2l0.3,0.2C5.6,8.3,5.8,8.4,6,8.5c0.3,0.1,0.5,0.2,0.8,0.2
		c0.3,0,0.5,0,0.8,0c0.9-0.2,1.5-0.6,2-1c1-0.8,1.7-1.7,2.4-2.5c0.7-0.8,1.5-1.6,2.2-2.2c0.8-0.6,1.6-1.1,2.4-1.1
		c0.8,0,1.6,0.4,2.4,1.1c0.4,0.4,0.7,0.8,1.1,1.2c0.2,0.2,0.3,0.4,0.5,0.7l0.2,0.4C21,5.4,21.1,5.6,21.2,5.8z"/>
	<path class="st3" d="M19.2,3.5c0.6,0.6,0.8,1,1,1.2c-0.7-1-1.5-1.9-2.3-2.4c0,0,0.1,0,0.2,0.2c0.1,0.1,0.3,0.2,0.5,0.4
		C18.8,3,18.9,3.2,19,3.3C19.2,3.4,19.2,3.5,19.2,3.5z"/>
</g>
</svg>
