<svg version="1.1" xmlns="http://www.w3.org/2000/svg" xmlns:xlink="http://www.w3.org/1999/xlink" viewBox="0 0 1000.5 12">
<style type="text/css">
	.st0{filter:url(#Adobe_OpacityMaskFilter);}
	.st1{fill:url(#SVGID_2_);}
	.st2{mask:url(#SVGID_1_);}
	.st3{fill:#010101;}
	.st4{opacity:0.5;}
</style>
<defs>
	<filter id="Adobe_OpacityMaskFilter" filterUnits="userSpaceOnUse" x="0" y="4.3" width="1000.5" height="3.2">
		<feColorMatrix  type="matrix" values="1 0 0 0 0  0 1 0 0 0  0 0 1 0 0  0 0 0 1 0"/>
	</filter>
</defs>
<mask maskUnits="userSpaceOnUse" x="0" y="4.3" width="1000.5" height="3.2" id="SVGID_1_">
	<g class="st0">
		<linearGradient id="SVGID_2_" gradientUnits="userSpaceOnUse" x1="-24.01" y1="6.1646" x2="1181.99" y2="6.1646">
			<stop  offset="0" style="stop-color:#FFFFFF"/>
			<stop  offset="3.242622e-002" style="stop-color:#D6D4D4"/>
			<stop  offset="0.1191" style="stop-color:#908D8D"/>
			<stop  offset="0.2066" style="stop-color:#605D5C"/>
			<stop  offset="0.2932" style="stop-color:#3F3D3D"/>
			<stop  offset="0.3787" style="stop-color:#282727"/>
			<stop  offset="0.4628" style="stop-color:#151515"/>
			<stop  offset="0.5448" style="stop-color:#060706"/>
			<stop  offset="0.6224" style="stop-color:#010101"/>
			<stop  offset="0.8724" style="stop-color:#4E4E4E"/>
			<stop  offset="0.9388" style="stop-color:#010101"/>
		</linearGradient>
		<rect x="-24" y="-31.3" class="st1" width="1206" height="75"/>
	</g>
</mask>
<g class="st2">
	<g>
		<g>
			<g>
				<g>
					<polygon class="st3" points="1000.5,6.3 997.8,6.2 996.9,6.5 					"/>
					<path class="st3" d="M987.4,5.4l-4.8,0.1c2.7,0.7-0.9,0.5,6.5,1c2.6-0.1,8.3-0.4,7.6-0.7c-1.9,0-4.6,0.3-7.4,0.2
						c1.2-0.2,4.2-0.2,5.6-0.5c-4.5-0.2-2.8,0.2-7.7,0.1L987.4,5.4z"/>
					<path class="st3" d="M981.8,6.1c0.4-0.1,0.9-0.3,0.8-0.4C982.2,5.9,979.9,6,981.8,6.1z"/>
					<path class="st3" d="M978.9,6.2c-3,0,0.1-0.3-0.3-0.3l-3.4,0.5L978.9,6.2z"/>
					<path class="st3" d="M966.5,6.2c-0.5,0-0.9,0-1.4,0C965.5,6.3,965.9,6.2,966.5,6.2z"/>
					<path class="st3" d="M960.3,6.2c1.2,0.2,2.8,0.1,4.7,0c-0.1,0-0.1,0-0.2,0c-1.7-0.1-0.1-0.5,2.7-0.4c2.9-0.1,2.6,0.3,5.1,0
						l-3.4-0.3C964.7,5.6,962.1,6.1,960.3,6.2z"/>
					<path class="st3" d="M966.5,6.2c0.5,0,1.1,0,1.6,0C967.4,6.1,966.9,6.1,966.5,6.2z"/>
					<polygon class="st3" points="972.7,6.2 974.3,6.1 973.9,6 					"/>
					<path class="st3" d="M950.1,6.3c0.7-0.5,7.3,0,8.1-0.3c-4,0-7.2-0.3-6.4-0.6l-4.5,0.1C945.9,5.7,947.8,6.1,950.1,6.3z"/>
					<path class="st3" d="M941.4,5.1c-0.3,0-0.6,0.1-1,0.1C940.8,5.2,941.3,5.1,941.4,5.1z"/>
					<path class="st3" d="M918.8,5.9l10.4-0.5c-1,0.1-0.6,0.3-3,0.3c4.6,0.1,5.2-0.2,9-0.2c1.1,0.4-6.7,0-4.5,0.4
						c2.7,0,6.7,0,8.8-0.4l4.3,0.3l-1.4-0.5c-1.7-0.1-3.5,0.4-4.6,0c-0.5-0.2,1.2-0.2,2.4-0.3c-2.7,0.1-7.5-0.4-13.1-0.3
						C921.3,4.9,922.7,5.7,918.8,5.9z"/>
					<polygon class="st3" points="918.4,5.4 917.7,5.2 918.2,5.4 					"/>
					<path class="st3" d="M907.1,6l5.4-0.3c0.6,0,0.9,0.1,1.3,0.2c-0.2-0.1,1.2-0.3,1-0.4c-2.5-0.4-6.6,0.1-9.5,0.2
						c-7.7-0.2,0.3-0.2-2.6-0.6c2.2,0,2.2,0.1,5.2,0.1c-4.7-0.5-10.6,0-13.6,0.1c0.9,0,1.1,0.2,2.8,0.1l-3.1,0.1
						C897.1,6,899.8,6,907.1,6z"/>
					<path class="st3" d="M916.8,6c-2,0-2.8,0-2.9-0.1C914.3,6,915,6.1,916.8,6z"/>
					<path class="st3" d="M892.6,5.3c0.3,0,0.9,0,1.6,0C893.8,5.3,893.3,5.3,892.6,5.3z"/>
					<path class="st3" d="M895.6,5.9l-3.8,0l1.5,0.2C893.9,6,895.7,6,895.6,5.9z"/>
					<path class="st3" d="M750.3,5c0.3,0.2,1.7,0.3,4.7,0.2c-0.4,0.2-4.2,0.2-5.9,0.3c3.9,0.2-0.1,0.3,0.9,0.5
						c4.3,0,6.3-0.3,10.9-0.2c-0.2,0.1-0.1,0.2,0.5,0.2c5.6-0.1,15-0.3,20.4-0.1c5.2,0.1,9.1,0,14.9-0.1c18.9,0.2,38.7-0.1,59.1,0.2
						l2.9-0.4c1,0.2,4.9,0,4.3,0.3c-1.1-0.1-2.2,0-3.5,0c4.4,0.4,11.6,0,16.8,0.1c-0.6-0.1-1.4-0.5,0.1-0.5c-0.4,0.5,6.2,0,7.7,0.6
						c5.2,0.1,0.2-0.4,5.6-0.4c0.6-0.3-5.2-0.1-6.2-0.4c1.7-0.2,4.9,0.1,4.7-0.2c-8.7-0.1-25,0.5-38.3,0.6l1.4-0.3
						c-6.8,0.2-17.9,0.2-23.4-0.3c1.3,0.3-10.1-0.2-9.1,0.4c-1.7-0.1-2.2-0.1-4.7-0.2l-0.7,0.2c-3.5,0-2.9-0.3-7-0.3
						c2.6,0.3-0.3,0.3-1.5,0.5c-4.6-0.3-10-0.6-14.1-0.8c0.3,0.1,0.7,0.2,2.1,0.3c-2.8-0.1-2.3,0.2-3,0.2c-2.7,0-2.4-0.3-2.3-0.5
						c-4.9-0.1-7.1,0.5-10.8,0.3l1.3,0.3c-5.1,0.1-9.3-0.2-14.9-0.2c-2.7-0.4,4.6-0.3,6.9-0.5C769,5,766.6,5,765.8,4.9
						c-2.4,0.2-6.4,0.4-9.4,0.6C759.3,5,752.2,5,750.3,5z"/>
					<path class="st3" d="M765.8,4.9c0.7-0.1,1.3-0.1,1.6-0.1c-0.5,0-1,0-1.9,0C765.5,4.8,765.6,4.8,765.8,4.9z"/>
					<path class="st3" d="M750.3,5c0,0-0.1,0-0.1,0C749.6,5,749.8,5,750.3,5z"/>
					<path class="st3" d="M782.4,6c-0.2,0-0.5,0-0.7,0c-0.3,0-0.6,0-0.9,0L782.4,6z"/>
					<path class="st3" d="M786.6,4.8c1.1,0.1,2.6,0.2,4.3,0.3C790.4,5,790,4.9,786.6,4.8z"/>
					<path class="st3" d="M820.8,5.2c1.1,0,0.4-0.1,1.2-0.2C819.8,4.9,819.1,5,820.8,5.2z"/>
					<polygon class="st3" points="759.7,4.8 755.4,4.9 753.9,4.9 					"/>
					<path class="st3" d="M673.5,6c3.8,0.3,9.3,0.1,13.9,0.2c8.5-0.1,1.1-0.7,9.1-0.7l-1.4,0.7c8.1,0,19.5,0.1,26.3-0.4
						c0.6,0.1,2,0.2-0.1,0.3c5.4,0,2.8-0.9,10-0.7c-6.7,0.4,2.2,0.4,0.4,0.8l-1,0c4.5,0,10.6-0.2,13.6-0.2c0.1-0.2-2.5-0.4,1.5-0.4
						c-1.6,0-1-0.2-0.8-0.4c-4.2,0.2-6.4,0.1-8.9,0.3c-2.3-0.2,1.6-0.1-0.8-0.3l-3.3,0.2c-2.5-0.1,2.5-0.2-1.3-0.3
						c-0.4,0.1-3.6,0.3-6.5,0.2l0.9-0.1c-2.3,0.1-5.5,0-4.4,0.3l-2.7-0.4l0.5,0.2c-6.3-0.1-8.6-0.7-16.7-0.4
						c1.9,0.1,0.2,0.2-0.9,0.3c3.4,0.2,4.2-0.2,7.4-0.2c0.5,0.2-5,0.5-1.1,0.7c-4.3-0.3-8.1,0-9.9-0.6c-5.2-0.1-7.1,0.2-12.3,0.1
						l0.1-0.1c-1,0.4-4.2-0.2-8.1,0.2l2.8,0.1c-0.1,0.2-1.5,0.2-3.3,0.2c0.2-0.1,0.2-0.1-0.4-0.1c-0.6,0.3-6.5,0.3-7.2,0.4
						c2.5,0.1,5.5-0.2,8.4-0.2C675.5,5.8,675.9,6,673.5,6z"/>
					<path class="st3" d="M726.5,5l-1.7,0.1C725.5,5.1,726.2,5.1,726.5,5z"/>
					<path class="st3" d="M650.2,5.4c-3.3-0.1,0.9-0.3-2.2-0.4c-3.3,0.2,3.8,0.4,0.6,0.7c-2-0.2-5.3,0.1-6.6,0.1
						c1.5-0.2,0.6-0.6,0-0.6c-1.3,0.1-4.1-0.1-6.3-0.1c5.3,0.3-4.5,0.1,0.3,0.4c-0.4,0.2-5.3,0.4-7.4,0.2c0.1-0.2,1.8-0.1,3.1-0.1
						c1.1-0.3-3.4-0.2-4.1-0.5c-5.1,0.4-21.2,0.4-16.6,1.1c1.7,0.1,3.2,0,5.1-0.1c-5.2-0.2,0-0.4,0.4-0.5c2.2,0.1,6.1-0.1,5.2,0.2
						L618.2,6c11.4,0.2,27,0.2,40.1,0.1l-5.7,0c0.7-0.2,3.3-0.2,5.4-0.3l-2.8-0.5c1.6,0,3.2,0,3.1,0.1c2-0.2,1.1-0.3-0.1-0.5
						c4.2-0.1,4.9,0.1,8.2-0.2c-7-0.4-5.9,0.3-14-0.1L650.2,5.4z"/>
					<polygon class="st3" points="665.6,5.2 663.9,5.4 666.5,5.3 					"/>
					<path class="st3" d="M662.9,6.2c-0.1-0.1,1-0.1,0.9-0.2C660.5,5.9,660.9,6,662.9,6.2z"/>
					<path class="st3" d="M623.3,5.1l-4.2,0.1l2.8,0.1C621.8,5.1,622.8,5.1,623.3,5.1z"/>
					<path class="st3" d="M593.6,6.2c5.9,0,8.4-0.2,15.1,0c3.3-0.3-1.5-0.6-0.1-0.9c-3.3-0.1-2.9,0.4-6.3,0.5c-1.3-0.3-5,0-8.3,0
						C594.3,6,594.3,6.1,593.6,6.2z"/>
					<path class="st3" d="M573.3,5.2c-2.7,0-5.4,0.2-7.5,0.1c0.3-0.2,1.9-0.2,3.5-0.2c-1-0.4-3,0.1-5.9-0.2c0.3,0,1.3,0.1,0.5,0.2
						c-7.2-0.1-4.1,0.3-13.5,0.1c-1.4,0.1-2.7,0.1-2.5,0.3c-5.3-0.3-2.6-0.3-9.1-0.6c0.2,0.1,2.3,0.5,2.3,0.8c-9.1-0.5-9.3,0-15-0.3
						c0.6,0,1.4-0.1,3,0c-0.7-0.4-4.9,0.1-8.1,0l0.3-0.4c-3,0.1-8.1,0.3-11.8,0l0.8-0.2c-7.6,0.3-16.4,0.1-22.9,0.2l-3.5-0.2
						c-8.9,0.3,8.9,0.1,2.3,0.7c-1-0.7-4.6,0.2-9.7-0.1c-2.4-0.3,5.1-0.1,2.5-0.5c-1.1,0.4-2.7,0.1-5.4,0.2c0.6-0.3-5.6-0.1-4-0.4
						l-9.5,0.6C458.8,5,456,5.1,454,5.1c5.1,0-1.4,0.5,4.3,0.7c8.4-0.1,22.4-0.2,32.8,0c1.1-0.5,6.7,0,8.4-0.4
						c0.2,0.1,1,0.3,1.3,0.4c6.7-0.1-1.6-0.3,0.1-0.4c3-0.1,5.3,0.2,5.1,0.4c4.8,0,0.6-0.1,3-0.4l3.2,0.5c15.1-0.1,35-0.4,52.2-0.1
						L563,5.5c7.8,0.2,13-0.7,19.9,0l2.4-0.3c-1.3,0.1,1.3,0.5-0.7,0.7c2.1-0.1,4.4,0,6.6-0.1l-3.9-0.2c2.7-0.3,5.7-0.1,6.6,0.1
						c5.8-0.3-3.4-0.6-4.7-0.8c-8.2,0.6-8.2-0.6-16.1-0.4C568.2,4.9,573.6,5,573.3,5.2z"/>
					<path class="st3" d="M583.4,6c0.5,0,0.9-0.1,1.2-0.1C584.2,6,583.8,6,583.4,6z"/>
					<path class="st3" d="M454,5.1c-0.6,0-1.3,0-2.3,0C451,5.2,452.2,5.1,454,5.1z"/>
					<path class="st3" d="M593.9,5.9C593.9,5.9,593.9,5.9,593.9,5.9C593.9,5.9,593.9,5.9,593.9,5.9C593.9,5.9,593.9,5.9,593.9,5.9z"
						/>
					<polygon class="st3" points="597.8,5.1 595.7,5.1 596,5.3 					"/>
					<path class="st3" d="M431.1,4.7l0,0.2C431.3,4.8,431.3,4.7,431.1,4.7z"/>
					<path class="st3" d="M369,4.5l1.3,0C369.9,4.5,369.4,4.5,369,4.5z"/>
					<path class="st3" d="M219.9,4.9c-4,0.1-9.4,0.2-12.4,0.5l0.3-0.2c-2.2,0.1-9.2,0.4-4.7,0.6l1.1-0.1c5.1-0.3,3.7,0.3,7.8,0.4
						c4.8-0.1,7.6-0.7,11.9-0.6c1.9,0,1.6,0.1,1,0.3c4.3,0,6-0.4,8.9-0.5c1.2,1.3,13.2-0.4,19.6,0.4c4-0.1,9.4,0,14.5-0.2
						c-2.7,0.3,4.8,0,3.7,0.4c1.4-0.7,14.7,0.3,15.7-0.6c7,0.3,0.3-0.1,8.3,0.2c0,0.1-1.4,0.1-1.9,0.1c3.2,0.2,4.9-0.4,7.5,0
						c6.4,0.1,1.1-0.2,4.9-0.5c6.7,0.1,4.8,0.2,8.5,0.6c0.6-0.4,4.6-0.2,7.9-0.4c-0.8,0-5.4-0.1-2.4-0.3c7.8,0.1,6.2-0.3,13.5-0.4
						c3.7,0.5-7.3,0-0.9,0.4c-4.6,0.2-8.1,0.2-10.6,0.5c6.2,0,13.7,0,20.5-0.2c3.7,0.1-1.9,0.2,1,0.3c6.7,0.2,10.3-0.5,15.6-0.3
						l-1.1,0.2c3.3-0.3,11.8,0.1,18-0.1c-0.8-0.1-1.3-0.2-0.5-0.3c-0.1,0.6,8.6-0.3,14.8,0.1c-0.5-0.4,5.5-0.6,9.2-0.6
						c1.3,0.1,1,0.3,1,0.4c-6.2-0.2-6,0.4-10.9,0.6c4.1-0.2,10.8,0,14.3-0.3L403,5.6c5.6,0.1,4.9-0.7,10.8-0.4l-0.6,0.2
						c11.8,0,25.8,0.4,35.2-0.1c0.8-0.2-3.9-0.6-4.2-0.8c-5.7,0.2-8.9,0.5-13.3,0.6l0-0.4c-1,0.2-6.2,0.4-3.3,0.6
						c-3.5,0.2-2.7-0.3-6.7-0.1c0.3-0.4,2.7-0.4,2.8-0.7l-3.5,0.2c1.1-0.1-2.1-0.1-1.1-0.3c-6.5,0.4-9.1-0.2-15.9,0l3.8,0.1
						c0,0.2-2.2,0.2-3.8,0.2c-1.8-0.3-2.9-0.3-6.4-0.4c-3,0.2-4.6,0.5-8.7,0.5c0.9-0.4-6.7-0.2-7.5-0.6c-0.9,0.4-7.8,0.1-8.4,0.4
						c-2.2,0.1-5.1,0-5.1-0.2c0.3,0,0.9,0,1.6-0.1l-2.2,0c0.2,0,0.1-0.1,0.4-0.1c-1.9,0-1.9,0.3-4.4,0.1c0-0.1,1.4-0.1,2.4-0.1
						c-5.1-0.1-9,0.6-13.2,0.2c-0.8,0.2-6.8,0.2-5.5,0.6c-1.6-0.2-1-0.5-5.3-0.4c-2.5,0.4-4.8-0.1-8.1,0.1c4.4-0.4,0-0.1,3.8-0.5
						c-2.9-0.1-7.3,0.3-12.4,0.3c-0.5-0.1-0.5-0.2-1-0.3c-1.9,0.1-4.1,0.4-5.9,0.1l0.2,0.3c-3.5-0.1-8.3-0.1-12.1-0.3l-4.4,0.5
						c-5.9-0.5-13.7,0-18.3,0.4c-2.1,0-5.4-0.1-5.3-0.2c0.5,0,1.3-0.1,2.3-0.2c-3.2,0-7-0.3-8.8,0.1c-3.2,0.1-2.4-0.3-4.8-0.3
						c-6.5,0.6-19.3-0.4-21.3,0.5c2.7,0,7.8,0.2,12.9,0.1c-1.4,0.1-0.3,0.3-2.2,0.3c-5.1,0-7.8-0.3-12.9-0.1l0.6-0.5
						C234.8,4.3,226.8,5.6,219.9,4.9z"/>
					<path class="st3" d="M285.5,4.8l-3.7-0.3l0.4,0.2C283.4,4.7,284.5,4.7,285.5,4.8z"/>
					<path class="st3" d="M282.2,4.8c-0.8,0-1.5,0.1-2.2,0.1C280.9,4.9,281.7,4.9,282.2,4.8L282.2,4.8z"/>
					<path class="st3" d="M205.1,5c-0.8,0-2.4-0.1-4,0C202.2,5,204.3,5.1,205.1,5z"/>
					<polygon class="st3" points="200.8,5.1 202.7,5.2 203,5.2 					"/>
					<path class="st3" d="M92.1,6l-6,0.4c-1-0.2-7.8,0.1-5.6-0.2C77,6.5,69.2,6.2,72.1,6.7c17.5-0.3,41.7-0.1,61.9-0.6l-3.3,0.2
						c10.5-0.5,14.4,0.5,22.9-0.5l-1.1,0.5c4.8,0.1,9.2-0.7,14.3-0.2l-0.5-0.2c1.3,0,1.9,0.1,3.2,0.1L169,5.9
						c3.5-0.2,5.7-0.2,9.1-0.1c0.2,0.1-1.6,0.1-2.7,0.1c1.6,0.1,4.3-0.2,7-0.2c2.1,0.1,0,0.2-0.3,0.3c8.1-0.2,11.8,0.3,17.5-0.4
						c0.6-0.1-2.1-0.2,0.8-0.3c-5.3-0.2-9.7,0.1-14.6,0.3l1.4,0c-3.9,0.7-2.9-0.1-9.2,0.2c1.6-0.3,4.3-0.3,5.4-0.4
						c-7.2-0.5-10.3,0.4-15-0.2l0.5,0c-1.1-0.1-3,0.1-4.6,0.1c0.5,0.1,2.1,0.1,3.2,0.2c-1.6,0.1-2.5,0.4-3,0.5
						c-1.8-0.3-2.4,0.2-5.4,0c-1-0.3,2.5-0.3,3.5-0.4l-3.5,0.2c-3.2,0-3.2-0.3-4.8-0.4c-2.7,0.2,1.6,0.1-0.6,0.4
						c-3.5-0.3-18.2-0.2-25.3,0.1c2.4,0,0.9-0.3,3.8-0.3c-1.1-0.1-4.8,0.1-4.9,0.3c-4.9,0.2-11,0.1-15.6-0.1l1.3,0.2
						c-3.8,0.4-9.6-0.2-16.4,0l0.1,0c-2.2,0.1-4,0.6-8,0.5C90.2,6.2,92.3,6.2,92.1,6z"/>
					<path class="st3" d="M68.4,6.6l2.2-0.3c-2.4-0.1-5.4,0.3-4.9,0.5c1.6-0.1,3.8,0,4.1-0.1C69.4,6.6,69.5,6.5,68.4,6.6z"/>
					<path class="st3" d="M23.2,6.9c-0.9,0.1-0.7,0.2-1,0.3c9.6-0.1,21.4-0.3,25.2-0.1c3.2,0.1,3.8-0.4,7.9-0.5L57,6.8
						c2.2-0.2,8.9,0.1,6.5-0.4c-0.3,0-1.9,0.2-3.8,0.2l0.3-0.2l-4.3,0.1l1.4-0.2C51.2,6.1,53,7,45.8,6.8l0.1-0.4
						c-4.8,0-7.3,0.2-11.5-0.1c0,0,0,0.2,0.8,0.1c0.8,0,1.9,0.2,1.3,0.3c-7.3,0.4,1.1-0.3-4-0.4C26.2,6.7,14.3,7,10.9,6.7
						C13.8,6.9,9.4,7.2,6,7.2C4.4,7.1,7.1,7,7.6,6.9C6,6.8,4.7,6.7,3,6.8C5.2,7,3.8,7.3,0,7.5C8.3,7.7,14.9,6.9,23.2,6.9z"/>
					<path class="st3" d="M20.7,7.3c0.9,0,1.2-0.1,1.4-0.1c-1.1,0-2.3,0-3.3,0L20.7,7.3z"/>
				</g>
			</g>
		</g>
	</g>
</g>
<g class="st4">
	<g>
		<g>
			<g>
				<g>
					<polygon class="st3" points="1000.4,6.3 997.5,6.2 996.6,6.5 					"/>
					<path class="st3" d="M987,5.4l-4.9,0.1c2.8,0.7-1,0.5,6.6,1c2.7-0.1,8.5-0.4,7.7-0.7c-1.9,0-4.7,0.3-7.5,0.2
						c1.2-0.2,4.3-0.2,5.7-0.5c-4.6-0.2-2.9,0.2-7.9,0.1L987,5.4z"/>
					<path class="st3" d="M981.2,6.2c0.4-0.1,0.9-0.3,0.8-0.4C981.6,5.9,979.2,6.1,981.2,6.2z"/>
					<path class="st3" d="M978.3,6.2c-3.1,0,0.1-0.3-0.3-0.3l-3.5,0.5L978.3,6.2z"/>
					<path class="st3" d="M965.5,6.2c-0.5,0-1,0-1.4,0C964.6,6.3,965,6.3,965.5,6.2z"/>
					<path class="st3" d="M959.3,6.3c1.2,0.2,2.8,0.1,4.8,0c-0.1,0-0.1,0-0.2,0c-1.8-0.1-0.1-0.5,2.7-0.4c3-0.1,2.7,0.3,5.3,0
						l-3.5-0.3C963.7,5.6,961.1,6.1,959.3,6.3z"/>
					<path class="st3" d="M965.5,6.2c0.5,0,1.1,0,1.7,0C966.5,6.1,966,6.2,965.5,6.2z"/>
					<polygon class="st3" points="971.9,6.3 973.5,6.2 973.1,6 					"/>
					<path class="st3" d="M948.8,6.3c0.7-0.5,7.5,0.1,8.3-0.3c-4.1,0-7.4-0.3-6.5-0.6L946,5.6C944.5,5.7,946.4,6.1,948.8,6.3z"/>
					<path class="st3" d="M939.9,5.1c-0.3,0-0.6,0.1-1,0.1C939.4,5.2,939.8,5.2,939.9,5.1z"/>
					<path class="st3" d="M916.8,5.9l10.7-0.4c-1,0.1-0.6,0.3-3,0.3c4.7,0.1,5.3-0.2,9.2-0.2c1.2,0.4-6.9,0-4.6,0.4
						c2.7,0,6.9,0,9-0.4l4.4,0.3L941,5.5c-1.8-0.1-3.6,0.4-4.7,0c-0.5-0.2,1.2-0.2,2.5-0.3c-2.8,0.1-7.7-0.4-13.4-0.3
						C919.4,4.9,920.8,5.7,916.8,5.9z"/>
					<polygon class="st3" points="916.4,5.4 915.7,5.2 916.2,5.4 					"/>
					<path class="st3" d="M904.8,5.9l5.5-0.3c0.6,0,0.9,0.1,1.3,0.2c-0.2-0.1,1.3-0.3,1-0.4c-2.6-0.4-6.8,0.1-9.8,0.2
						c-7.9-0.2,0.4-0.2-2.7-0.6c2.2,0,2.3,0.1,5.3,0.2c-4.8-0.5-10.9-0.1-14,0c0.9,0,1.1,0.2,2.8,0.1l-3.2,0.1
						C894.6,5.9,897.4,6,904.8,5.9z"/>
					<path class="st3" d="M914.7,6c-2.1,0-2.8,0-3-0.1C912.3,6,913,6.1,914.7,6z"/>
					<path class="st3" d="M890,5.3c0.3,0,0.9,0,1.7,0C891.3,5.2,890.8,5.2,890,5.3z"/>
					<path class="st3" d="M893.1,5.8l-3.9-0.1l1.5,0.2C891.3,5.9,893.2,5.9,893.1,5.8z"/>
					<path class="st3" d="M744.5,4.8c0.3,0.2,1.8,0.3,4.8,0.2c-0.4,0.2-4.2,0.2-6.1,0.3c4,0.1-0.1,0.3,0.9,0.5
						c4.4,0,6.4-0.3,11.1-0.2c-0.2,0.1-0.1,0.2,0.5,0.2c5.7-0.2,15.3-0.4,20.9-0.2c5.4,0.1,9.3,0,15.2-0.1c19.4,0.2,39.6,0,60.4,0.3
						l2.9-0.4c1,0.2,5,0,4.4,0.3c-1.1-0.1-2.2,0-3.6,0c4.5,0.4,11.8,0,17.2,0.2c-0.6-0.1-1.5-0.5,0.1-0.5c-0.4,0.5,6.3,0,7.9,0.6
						c5.4,0.2,0.2-0.4,5.8-0.3c0.6-0.3-5.3-0.2-6.3-0.4c1.8-0.2,5,0.1,4.8-0.2c-8.9-0.2-25.5,0.4-39.2,0.5l1.4-0.3
						c-7,0.2-18.3,0.1-23.9-0.3c1.3,0.3-10.3-0.2-9.3,0.4c-1.8-0.1-2.3-0.1-4.8-0.2L809,5.4c-3.6,0-3-0.3-7.1-0.3
						c2.7,0.3-0.3,0.3-1.5,0.5c-4.7-0.3-10.2-0.6-14.4-0.8c0.3,0.1,0.7,0.2,2.1,0.3c-2.8-0.1-2.4,0.2-3.1,0.2
						c-2.7,0-2.5-0.3-2.3-0.5c-5-0.1-7.3,0.5-11,0.3l1.3,0.3c-5.2,0.1-9.5-0.2-15.3-0.1c-2.8-0.4,4.7-0.3,7.1-0.5
						c-1.2-0.1-3.6-0.1-4.4-0.2c-2.4,0.2-6.5,0.4-9.6,0.6C753.8,4.8,746.5,4.8,744.5,4.8z"/>
					<path class="st3" d="M760.4,4.6c0.7-0.1,1.3-0.1,1.7-0.1c-0.5,0-1.1,0-1.9,0C760.1,4.5,760.2,4.5,760.4,4.6z"/>
					<path class="st3" d="M744.5,4.8c0,0-0.1,0-0.1,0C743.8,4.7,744,4.7,744.5,4.8z"/>
					<path class="st3" d="M777.4,5.7c-0.2,0-0.5,0-0.7,0c-0.3,0-0.6,0-0.9,0L777.4,5.7z"/>
					<path class="st3" d="M781.7,4.5c1.1,0.1,2.7,0.2,4.4,0.3C785.6,4.7,785.2,4.6,781.7,4.5z"/>
					<path class="st3" d="M816.6,4.9c1.1,0,0.5-0.1,1.2-0.2C815.6,4.7,814.9,4.7,816.6,4.9z"/>
					<polygon class="st3" points="754.2,4.5 749.8,4.6 748.2,4.7 					"/>
					<path class="st3" d="M666,6.3c3.8,0.3,9.5,0,14.2,0.1c8.7-0.2,1.1-0.7,9.3-0.8l-1.4,0.7c8.2-0.1,19.9,0,26.9-0.6
						c0.6,0.1,2.1,0.2-0.1,0.3c5.5,0,2.8-1,10.2-0.7c-6.8,0.4,2.2,0.4,0.4,0.8l-1.1,0c4.6-0.1,10.8-0.3,13.9-0.3
						c0.1-0.2-2.6-0.4,1.6-0.4c-1.7,0-1-0.2-0.9-0.4c-4.3,0.2-6.6,0.1-9.1,0.3c-2.4-0.2,1.6-0.1-0.8-0.3l-3.4,0.2
						c-2.5,0,2.6-0.2-1.3-0.3c-0.4,0.1-3.6,0.3-6.7,0.3l0.9-0.1c-2.3,0.1-5.7,0-4.5,0.4L711.3,5l0.5,0.2c-6.4-0.1-8.8-0.7-17.1-0.3
						c2,0.1,0.2,0.2-0.9,0.3c3.5,0.1,4.3-0.2,7.5-0.3c0.5,0.2-5.1,0.6-1.1,0.7c-4.4-0.3-8.2,0.1-10.1-0.5c-5.3,0-7.2,0.3-12.6,0.2
						l0.1-0.1c-1,0.4-4.3-0.2-8.3,0.3l2.8,0.1c-0.1,0.2-1.5,0.2-3.4,0.2c0.2-0.1,0.2-0.1-0.4-0.1c-0.6,0.3-6.6,0.4-7.4,0.5
						c2.5,0,5.6-0.3,8.6-0.4C668.1,6.1,668.6,6.3,666,6.3z"/>
					<path class="st3" d="M720.3,4.9L718.6,5C719.2,5,719.9,4.9,720.3,4.9z"/>
					<path class="st3" d="M642.2,6.1c-3.4,0,0.9-0.3-2.2-0.4c-3.4,0.3,3.9,0.4,0.6,0.7c-2.1-0.1-5.4,0.2-6.8,0.2
						c1.5-0.2,0.6-0.6,0-0.6c-1.3,0.1-4.2,0-6.4,0c5.4,0.2-4.6,0.2,0.3,0.4c-0.4,0.3-5.5,0.4-7.5,0c0.2-0.2,1.8,0,3.2,0
						c1.1-0.3-3.4-0.3-4.2-0.7c-2.6,0.1-8-0.3-12.2-0.4c-4.2-0.1-7.2,0.2-4.8,0.5c1.8,0.1,3.3,0,5.2,0.1c-5.3-0.4,0-0.4,0.4-0.5
						c2.3,0.2,6.2,0.3,5.3,0.5l-3.7,0c5.8,0.4,12.7,1.2,19.9,1c7.1-0.1,14.5-0.3,21.2-0.4l-5.8,0.1c0.7-0.2,3.4-0.3,5.5-0.4
						l-2.9-0.4c1.7,0,3.3-0.1,3.1,0.1c2-0.2,1.1-0.3-0.1-0.5c4.3-0.1,5,0,8.4-0.3c-7.2-0.3-6.1,0.4-14.3,0.2L642.2,6.1z"/>
					<polygon class="st3" points="658,5.6 656.3,5.9 658.9,5.7 					"/>
					<path class="st3" d="M655.2,6.7c-0.1-0.1,1-0.2,0.9-0.3C652.8,6.4,653.2,6.5,655.2,6.7z"/>
					<path class="st3" d="M614.8,5.4l-4.3-0.2l2.8,0.3C613.2,5.4,614.3,5.4,614.8,5.4z"/>
					<path class="st3" d="M584.4,6.5c3-0.1,5.2-0.2,7.4-0.3c1.1,0,2.3-0.1,3.6-0.1c1.3-0.1,2.7-0.2,4.4-0.1c3.3-0.4-1.6-0.5-0.1-0.9
						c-1.7,0-2.4,0.2-3.2,0.4c-0.7,0.2-1.5,0.4-3.2,0.5c-1.3-0.2-5.1,0.2-8.5,0.2C585.2,6.3,585.2,6.4,584.4,6.5z"/>
					<path class="st3" d="M563.7,5.9c-2.7,0-5.5,0.3-7.7,0.2c0.3-0.2,1.9-0.3,3.6-0.2c-1-0.4-3,0.1-6-0.1c0.3,0,1.4,0.1,0.5,0.2
						c-7.4,0-4.2,0.4-13.8,0.2c-1.4,0.1-2.8,0.1-2.5,0.4c-5.4-0.3-2.7-0.3-9.3-0.5c0.3,0.1,2.4,0.5,2.4,0.8
						c-9.3-0.4-9.5,0.1-15.4-0.2c0.7,0,1.5-0.1,3-0.1c-0.8-0.4-5,0.1-8.2,0l0.3-0.4c-3,0.1-8.3,0.3-12.1,0l0.9-0.2
						c-3.9,0.1-8.1,0.2-12.1,0.1c-4-0.1-7.9-0.4-11.2-0.7c0,0-0.9-0.2-1.7-0.3c-0.9-0.2-1.7-0.4-1.7-0.4c-4.5-0.5-2.3-0.2,0.2,0.3
						c2.5,0.4,5.4,0.8,2,0.7c-0.9-0.8-4.7-0.4-9.8-1.6c-2.4-0.7,5.2,0.8,2.6,0c-1.2,0.2-2.7-0.4-5.5-0.8c0.3-0.1-1.1-0.3-2.5-0.4
						c-1.3-0.1-2.5,0-1.7-0.2c0,0-0.6,0.1-1.5,0.2c-0.9,0.1-2.1,0.3-3.3,0.5c-2.4,0.4-4.8,0.9-4.8,0.9c-0.8,0-1.9,0.1-3,0.1
						c-0.6,0-1.2,0.1-1.7,0.1c-0.3,0-0.6,0-0.9,0c-0.3,0-0.5,0.1-0.8,0.1c5.3-0.3-1.4,0.6,4.5,0.4c2.1-0.2,4.6-0.6,7.3-0.9
						c2.7-0.3,5.6-0.5,8.5-0.2c5.9,1.1,12.1,2.1,17.4,2.6c0.6-0.2,2.3,0,4.1,0.1c1.8,0.1,3.6,0.2,4.5,0c0.2,0.2,1.1,0.3,1.3,0.4
						c6.9-0.1-1.6-0.3,0.1-0.4c3,0,5.5,0.2,5.2,0.4c4.9,0,0.6-0.1,3.1-0.4l3.2,0.5C516.6,7,537,6.6,554.5,6.7l-1.3-0.3
						c7.9,0.1,13.3-0.9,20.3-0.3l2.4-0.3c-1.3,0.2,1.4,0.4-0.7,0.7c2.2-0.2,4.5-0.1,6.7-0.2l-4-0.1c2.8-0.3,5.9-0.2,6.8,0
						c5.9-0.5-3.5-0.5-4.9-0.7c-8.3,0.7-8.4-0.4-16.4,0C558.5,5.7,564,5.7,563.7,5.9z"/>
					<path class="st3" d="M574,6.6c0.5,0,0.9-0.1,1.2-0.1C574.8,6.5,574.4,6.5,574,6.6z"/>
					<path class="st3" d="M442,4.6c-0.6,0.1-1.3,0.2-2.3,0.3C438.9,5,440.2,4.8,442,4.6z"/>
					<path class="st3" d="M584.8,6.2C584.8,6.2,584.8,6.2,584.8,6.2C584.7,6.2,584.7,6.2,584.8,6.2C584.7,6.2,584.7,6.2,584.8,6.2z"
						/>
					<polygon class="st3" points="588.7,5.3 586.5,5.3 586.9,5.5 					"/>
					<path class="st3" d="M418.6,6.2l0,0.2C418.8,6.3,418.9,6.2,418.6,6.2z"/>
					<path class="st3" d="M355.7,5.9l1.4,0C356.7,5.9,356.2,5.9,355.7,5.9z"/>
					<path class="st3" d="M204.6,5.5c-4.1,0-9.7,0-12.7,0.3l0.3-0.2c-1.1,0-3.5,0.1-5,0.2c-1.5,0.1-2.1,0.3,0.2,0.4l1.1-0.1
						c5.3-0.2,3.8,0.3,7.9,0.5c5,0,7.8-0.6,12.2-0.3c1.9,0,1.6,0.2,1.1,0.3c4.4,0.1,6.1-0.4,9.1-0.4c0.6,0.6,4,0.5,8,0.3
						c4-0.2,8.7-0.8,12-0.7c4.1-0.5,9.6-1.1,14.7-2.3c-1.3,0.4-0.1,0.2,1.3-0.1c0.4-0.1,0.7-0.1,1.1-0.2c0.3,0,0.6-0.1,0.9-0.1
						c0.5,0,0.8,0,0.5,0.1c0.7-0.4,4.5-0.7,8.1-0.5c3.7,0.1,7.3,0.5,7.8,0.1c7,1,0.3-0.1,8.4,1c0,0.1-1.4-0.1-1.9-0.1
						c0.8,0.1,1.5,0.2,2.2,0.3c0.6,0.1,1.2,0.3,1.8,0.4c1.2,0.3,2.2,0.5,3.5,1.1c3.2,0.8,3.6,0.6,3.5,0.6c0-0.1-0.4-0.2,1.5-0.2
						c1.7,0.1,2.8-0.2,3.6-0.5c0.8-0.2,1.3-0.4,1.7-0.5c0.8-0.2,1.3-0.1,3.2-0.4c0.2-0.3,1.4-0.5,2.9-0.9c0.7-0.2,1.6-0.2,2.4-0.4
						c0.9-0.1,1.7-0.2,2.6-0.3c-0.8-0.1-5.5,0.4-2.5-0.1c4-0.3,5.6-0.3,7.1-0.4c1.5,0,3-0.2,6.7,0.1c1.9,0.4,0,0.2-1.5,0.1
						c-1.5-0.1-2.7-0.2,0.6,0.2c-4.7-0.2-8.3-0.2-10.8,0.4c6.3-0.5,14,0.3,20.8,1.1c3.8,0.6-2-0.1,1,0.4c3.4,0.6,6,0.9,8.4,1.2
						c1.2,0.1,2.4,0.2,3.6,0.4c0.6,0.1,1.2,0.1,1.9,0.2c0.3,0,0.6,0.1,1,0.1c0.3,0,0.7,0,1,0c0,0-0.3,0.1-0.6,0.1
						c-0.1,0-0.3,0.1-0.4,0.1c-0.1,0-0.2,0-0.2,0c1.7-0.1,4.7-0.1,8.1-0.1c0.8,0,1.7,0,2.6,0c0.9,0,1.8,0,2.6,0.1
						c1.7,0.3,3.2,1.2,4.8,1.6c-0.7-0.3-1.2-0.6-0.4-0.4c-0.1,0.1,0.4,0.4,1.3,0.5c0.9,0.1,2.2,0.1,3.7,0.3c3,0.2,6.8,0.4,9.9,0.8
						c-0.5-0.4,5.6-0.2,9.4-0.4c1.3,0.1,1.1,0.3,1,0.4c-3.1-0.1-4.7,0-6,0.1c-1.4,0.1-2.6,0.3-5.1,0.2c2.1,0,4.8,0.2,7.5,0.2
						c2.7,0,5.3-0.1,7.1-0.3l-1.4,0.4c2.9-0.1,4.1-0.4,5.4-0.7c1.2-0.4,2.5-0.7,5.5-1l-0.5,0.3c12-1.8,26.2-2,35.8-3.5
						c0.8-0.3-4.1-0.3-4.3-0.4c-5.7,0.6-9.1,1.2-13.5,1.7l0-0.4c-1,0.3-6.3,0.9-3.3,0.9c-3.6,0.5-2.7-0.1-6.8,0.5
						c0.3-0.4,2.7-0.7,2.8-1l-3.6,0.6c1.1-0.3-2.2,0.1-1.1-0.2c-3.3,0.6-5.6,0.9-8,1.2c-1.2,0.1-2.4,0.3-3.7,0.5
						c-1.3,0.1-2.7,0.2-4.4,0.3c0,0,1,0,1.9-0.1c1,0,1.9-0.1,1.9-0.1c0,0.2-2.2,0.4-3.8,0.5c-1.9-0.2-3-0.1-6.5-0.3
						c-3,0.1-4.7,0.4-8.9,0.1c0.9-0.3-6.8-0.8-7.5-1.2c-0.2,0.1-0.8,0.1-1.6,0c-0.2,0-0.4,0-0.6,0c-0.2,0-0.5,0-0.7,0
						c-0.4,0-0.9-0.1-1.3-0.2c-0.9-0.2-1.8-0.6-2.5-0.9c-0.7-0.3-1.3-0.4-1.4-0.4c-0.6-0.1-1.2-0.3-1.8-0.3c-0.6,0-1.2,0-1.7,0
						c-1,0-1.8-0.1-1.8-0.2c0.3,0,1,0,1.7-0.1l-2.2,0c0.2,0,0.1-0.1,0.4-0.1c-2,0-2,0.3-4.5,0.1c0-0.1,1.4-0.1,2.5-0.1
						c-1.3,0-2.5,0-3.7,0.1c-1.1,0.1-2.2,0.1-3.3,0.2c-2.2-0.2-4.2-0.4-6.3-0.9c-0.9,0.1-6.8-0.9-5.6-0.2c-1.6-0.4-0.9-0.6-5.3-1.2
						c-2.5,0-4.9-0.8-8.2-0.9c4.5,0.1,0-0.1,4,0c-3-0.5-7.5-0.5-12.8-0.5c-0.5-0.1-0.5-0.2-1.1-0.2c-2,0.2-4.2,0.7-6.1,0.7l0.3,0.2
						c-0.9,0.1-1.9,0.3-2.9,0.5c-1,0.2-2.1,0.5-3.1,0.8l-1.6,0.5l-0.8,0.2L294.9,5c-0.1,0-0.2,0-0.3,0.1c-1,0.2-1.9,0.2-2.8,0
						c0,0-1.1,0.1-2.2,0c-1.1-0.1-2.2-0.2-2.2-0.2c-1.4-0.5-2.9-1-4.6-1.5l-0.6-0.2c-0.1,0-0.3-0.1-0.4-0.1l-0.3,0L280.3,3
						c-0.8-0.1-1.7-0.1-2.5-0.2c-3.3-0.3-6.6-0.3-8.9-0.2c-1.1-0.1-2.5-0.1-3.6-0.2c-1.1-0.1-1.9-0.1-1.9-0.2c0.5,0,1.4-0.1,2.4-0.2
						c-3.2-0.1-7.2-0.2-9,0.4c-0.8,0.1-1.4,0.2-1.8,0.3c-0.4,0.1-0.7,0.1-1,0.1c-0.5,0-0.9,0-2.1,0.2c-3.2,0.8-8.1,1.5-12.5,1.8
						c-2.2,0.2-4.2,0.3-5.8,0.4c-1.6,0.1-2.8,0.3-3.3,0.5c2.7-0.1,7.9-0.3,13.1-0.9c-1.4,0.3-0.3,0.3-2.2,0.5
						c-5.2,0.6-7.9,0.4-13.2,0.8l0.6-0.6C219.8,5.3,211.6,6.4,204.6,5.5z"/>
					<path class="st3" d="M271.4,2.2c0,0-0.9-0.1-1.9-0.3c-0.9-0.1-1.9-0.2-1.9-0.2L268,2C269.2,2,270.4,2.1,271.4,2.2z"/>
					<path class="st3" d="M268,2c-0.8,0-1.5,0-2.2,0C266.6,2,267.4,2,268,2L268,2z"/>
					<path class="st3" d="M189.5,5.4c-0.8,0-2.5-0.1-4.2,0C186.4,5.4,188.6,5.5,189.5,5.4z"/>
					<path class="st3" d="M185,5.6c0,0,0.5,0,1,0c0.5,0,1,0,1,0l0.3-0.1c0,0-0.5,0-1.1,0C185.6,5.6,185,5.6,185,5.6z"/>
					<path class="st3" d="M76.3,7.5c0,0-1.4,0.5-2.9,1c-1.4,0.5-2.9,1-2.9,1c-1.1,0.2-7.7,2.2-5.6,1.4c-0.8,0.4-2.1,0.7-3.3,0.8
						c-1.3,0.1-2.5,0-3.6-0.1c-2.1-0.3-3.4-0.8-2,0c2.3,0.5,4.8,0.8,7.4,0.3c0.7-0.1,1.3-0.3,1.9-0.5c0.6-0.2,1.2-0.3,1.8-0.5
						c1.2-0.4,2.4-0.7,3.7-1.1c4.9-1.5,10.1-3,15.5-3.8c2.7-0.4,5.4-0.6,8.1-0.4l1,0.1l0.5,0c0,0,0.3,0,0.4,0.1l2,0.4
						c1.3,0.3,2.7,0.6,4,0.9c5.4,1.2,10.8,2.3,16,2.5c0,0-0.8,0-1.7,0c-0.8,0-1.7-0.1-1.7-0.1c4.1,0.3,7.3,0.3,10.1,0.1l-0.1,0
						c0.6,0,0.8-0.2,1.1-0.3c0.3-0.1,0.5-0.3,0.8-0.4c0.5-0.3,0.9-0.6,1.3-0.8c0.2-0.1,0.4-0.2,0.6-0.3c0.2-0.1,0.1,0,0.5,0
						c0.5,0,1.1,0,1.6,0c2.2-0.1,4.4-0.4,7-1.1L136.8,7c5-0.5,9.2-2.3,14.4-2.7l-0.5-0.1c1.3-0.2,1.9-0.2,3.2-0.4l-0.6,0
						c1.8-0.4,3.2-0.6,4.6-0.7c1.4,0,2.9-0.1,4.7-0.2c0.3,0.1-1.7,0.2-2.8,0.3c1.7,0.1,4.4-0.6,7.1-0.7c2.1,0.1,0,0.2-0.3,0.3
						c2-0.2,3.8,0,5.2,0.3c0.7,0.2,1.4,0.5,2,0.8c0.3,0.2,0.6,0.3,0.8,0.5c0.3,0.2,0.6,0.4,0.9,0.6c2.5,1.5,5.3,1.6,8.2,1.1
						c0.6-0.2-2.2-0.1,0.9-0.3c-2.7,0.1-5.2,0.1-7.5-0.8c-0.6-0.2-1.1-0.5-1.6-0.8c-0.5-0.4-1-0.6-1.6-0.9c-1.1-0.5-2.3-0.7-3.5-0.8
						c0,0,0.3,0,0.7,0.1c0.3,0.1,0.7,0.1,0.7,0.1c-2-0.1-2.6-0.1-3.7-0.2c-1-0.1-2.4-0.2-5.5,0.3c1.6-0.4,4.4-0.7,5.5-0.8
						c-3.7-0.2-6.3,0.4-8.6,0.5c-0.6,0.1-1.1,0.1-1.7,0.1c-0.5,0.1-1.1,0.1-1.6,0.2c-1.1,0.1-2.2,0.2-3.4,0.2l0.5-0.1
						c-1.1,0.1-3,0.6-4.6,0.9c0.5,0,2.2-0.3,3.3-0.4c-1.6,0.3-2.4,0.8-3,1c-1.9,0.1-2.4,0.6-5.4,1c-1.1-0.1,2.4-0.7,3.5-1.1
						l-3.5,0.8c-3.2,0.6-3.3,0.3-4.9,0.4c-2.7,0.6,1.6-0.1-0.5,0.5c-1,0-3,0.3-5.4,0.4c-0.6,0-1.3,0.1-1.9,0.1c-0.7,0-1.4,0-2,0
						c-0.7,0.1-1.2,0.6-1.9,1c-0.6,0.4-1.2,0.9-2,1l0,0c-4.5,0.5-9.1,0.1-12.1-0.2c1.2,0.2,1.5,0.1,1.8,0.1c0.3,0,0.6,0,2.1,0.1
						c-1.1-0.1-4.9-0.5-5-0.4c-5-0.6-11.1-2.4-15.6-3.4l1.3,0.5c-0.5-0.1-1-0.1-1.5-0.2c-0.5,0-1.1-0.1-1.7-0.1
						C93.1,5,91.8,5,90.4,5c-2.8,0-6,0.4-9.3,1.3l0.1,0c-2.1,0.5-3.9,1.5-7.8,2.5C74.4,8.2,76.6,7.7,76.3,7.5z"/>
					<path class="st3" d="M52.4,9.9c0,0,0.6,0.2,1.1,0.4c0.6,0.2,1.1,0.3,1.1,0.3c-1.2-0.5-2.5-1-3.5-1.7c-0.8-0.6-1.4-0.9-1.3-0.6
						c0.3,0.2,0.7,0.5,1,0.8l0.2,0.2l0.1,0.1c0.1,0.1,0.2,0.1,0.2,0.2c0.2,0.1,0.4,0.3,0.6,0.4c0.7,0.4,1.4,0.7,1.6,0.7
						C53.4,10.4,53.4,10.4,52.4,9.9z"/>
					<path class="st3" d="M19.6,3.9c-0.7-0.6-0.6-0.3-0.9-0.5c0.6,0.5,1.1,1,1.6,1.6l0.4,0.4c0.2,0.2,0.5,0.6,0.7,0.8
						c0.5,0.6,1,1.2,1.5,1.7c0.5-0.8,1.1-1.6,1.6-2.5c0.1-0.2,0.3-0.4,0.4-0.7c0.1-0.1,0.1-0.3,0.2-0.5c0.1-0.2,0.1-0.4,0.2-0.6
						c0-0.2,0-0.3,0-0.5c0-0.1-0.1-0.3-0.2-0.5c0.1,0.1,0,0.1,0,0c0,0,0-0.1-0.1-0.1c-0.1-0.2-0.2-0.2-0.2-0.2c0,0,0,0,0,0.1
						c0.1,0-0.1,0.1-0.2,0.2c-0.1,0.1-0.3,0.2-0.3,0.3l-0.2,1.5c-0.1,0.6,0.1,1.4-0.4,1.7l-0.5,0.7l-0.1,0.2c0,0-0.1,0-0.1,0.1
						l-0.2,0.1c-0.2,0.1-0.5,0.4-0.5,0.1c-0.1-0.1-0.1-0.3-0.1-0.3c0-0.1,0,0,0,0c0,0.2,0.1,0.4,0.3,0.9L22.8,8l0.3-0.4l0.6-0.8
						c0.4-0.5,0.8-1,1.2-1.6c0.4-0.6,0.9-1.1,1.3-1.7c0.4-0.5,0.9-1,1.4-1.3c0.2-0.2,0.5-0.3,0.7-0.5c0.2-0.1,0.5-0.2,0.7-0.3
						c2.1-0.8,4-1,5.1-0.9c0.8,0,1.4,0.1,1.9,0.1c0.5,0.1,1,0.1,1.5,0.2c1,0.2,2.1,0.3,4,1.2c0,0,0.4,0.2,0.7,0.5
						c0.4,0.3,0.7,0.6,0.7,0.6c1,0.5,2.8,1.7,4.1,2.7c1.3,1,2.2,1.7,1.4,0.7c-0.2-0.2-1.6-1-3.2-2.2l0.3,0c0,0-0.9-0.6-1.8-1.2
						c-0.5-0.3-0.9-0.5-1.3-0.7c-0.4-0.2-0.6-0.3-0.6-0.3l1.3,0.5c-2.5-1.6-3.6-1.8-4.7-2c-0.3,0-0.6-0.1-0.9-0.2
						c-0.3,0-0.7-0.1-1.2-0.1c-0.9-0.1-2.1-0.2-3.8-0.1l0-0.4c-1.2,0.1-2.2,0.4-3.1,0.7C29,0.9,28.6,1,28.2,1.2
						c-0.3,0.2-0.7,0.4-1,0.7c-0.6,0.5-1.2,1.2-1.8,1.8c-0.3,0.3-0.6,0.7-0.9,1.1c-0.4,0.5-0.8,1-1.2,1.5c0,0,0,0.3,0.7-0.7
						c0.2-0.2,0.4-0.5,0.6-0.7c0.1-0.2,0.3-0.3,0.4-0.4c0.2-0.2,0.4-0.2,0.2,0c-0.7,1-1.2,1.7-1.6,2.3c-0.2,0.3-0.4,0.6-0.6,0.8
						c-0.2,0.2-0.2,0.2-0.3,0.3c-0.1-0.3-0.1-0.4-0.1-0.4c0,0,0.1,0.1,0.2,0.2c0,0,0.1-0.1,0.1-0.2c0-0.1,0.1-0.1,0.2-0.2
						C22.9,7.2,23,7,23.1,6.9c0-0.1,0-0.1-0.1-0.1c0,0-0.1,0.1-0.2,0.2c0,0,0,0.1-0.1,0.1l-0.1,0c0,0-0.1,0-0.1-0.1
						c-0.1-0.4-0.2-0.8-0.1-1.2c0-0.2,0.1,0.2,0.5-0.3c0.2-0.3,0.6-0.6,0.6-1.1l0-0.4c0-0.1,0-0.1,0.1-0.2c0-0.1,0-0.3,0.1-0.3
						c0-0.1,0-0.1,0.1-0.2c0.1-0.1,0.2-0.2,0.3-0.2c0-0.1,0.1-0.1,0.2-0.1c0.1,0,0.2,0,0.3,0.1c0,0,0,0,0,0c0,0,0,0,0,0.1
						c0,0.1,0.1,0.2,0.1,0.2c0,0.1,0,0.2,0,0.3c-0.2,1.1-1,2.4-1.8,3.5c-0.4-0.4-0.7-0.9-1.1-1.3l-0.6-0.7l-0.4-0.4
						c-0.6-0.6-1.1-1.1-1.7-1.6c-1.2-1-2.5-1.8-3.7-1.8c-0.6,0-1.1,0.2-1.5,0.6c-0.1,0.1-0.2,0.2-0.3,0.2c-0.1,0.1-0.2,0.2-0.2,0.3
						c-0.2,0.3-0.4,0.5-0.6,0.8c-0.8,1-1.6,1.7-2.3,2c0.7-0.4,0.9-0.6,1-0.5c0,0.1-0.3,0.4-0.8,0.8c-0.5,0.4-1.3,0.9-2.3,1.1
						c-1,0.3-2.1,0.3-3.1,0.1C4.3,6.7,4.6,6.7,5.3,6.7c0.6,0.1,1.6,0,1.9-0.1C6.2,6.7,5.4,6.5,4.6,6.3C4.2,6.2,3.8,6.1,3.5,6
						C3.3,5.9,3.1,5.8,2.9,5.8C2.7,5.7,2.6,5.6,2.4,5.6c0.1,0.1,0.2,0.1,0.4,0.2C2.9,5.9,3,5.9,3,6c0.1,0.1,0.2,0.2,0.1,0.2
						C3.1,6.3,2.1,6,2.2,6.1c0,0,0,0.1,0,0.1l0,0C2.1,6.3,2,6.3,1.9,6.4C1.6,6.7,1.2,7,0.6,7.4c0.9-0.4,2-1.3,1.6-1.1l0,0l0.5,0.2
						C3.2,6.7,3.7,6.8,4.2,7c1,0.2,2,0.4,3.1,0.3c2.1-0.2,4-1.4,5.2-2.9C12.7,4,13,3.6,13.3,3.2c0.2-0.4,0.5-0.9,0.6-0.9
						c0.5-0.5,1-0.7,1.6-0.7C16.8,1.6,18.3,2.7,19.6,3.9z"/>
					<path class="st3" d="M17.6,2.7c0.6,0.4,0.9,0.6,1.1,0.7c-0.8-0.7-1.7-1.3-2.5-1.5c0,0,0.1,0,0.2,0.1c0.1,0.1,0.3,0.1,0.5,0.2
						c0.2,0.1,0.3,0.2,0.5,0.3C17.5,2.6,17.6,2.7,17.6,2.7z"/>
				</g>
			</g>
		</g>
	</g>
</g>
</svg>
