<svg version="1.1" id="Layer_1" xmlns:x="&ns_extend;" xmlns:i="&ns_ai;" xmlns:graph="&ns_graphs;"
	 xmlns="http://www.w3.org/2000/svg" xmlns:xlink="http://www.w3.org/1999/xlink" x="0px" y="0px" viewBox="0 0 503.1 506"
	 style="enable-background:new 0 0 503.1 506;" xml:space="preserve">
<style type="text/css">
	.st0{fill:#FFFFFF;}
	.st1{clip-path:url(#SVGID_2_);}
	.st2{filter:url(#Adobe_OpacityMaskFilter);}
	.st3{fill:url(#SVGID_4_);}
	.st4{mask:url(#SVGID_3_);}
	.st5{fill:#202020;}
	.st6{filter:url(#Adobe_OpacityMaskFilter_1_);}
	.st7{fill:url(#SVGID_6_);}
	.st8{mask:url(#SVGID_5_);}
	.st9{filter:url(#Adobe_OpacityMaskFilter_2_);}
	.st10{fill:url(#SVGID_8_);}
	.st11{mask:url(#SVGID_7_);}
	.st12{filter:url(#Adobe_OpacityMaskFilter_3_);}
	.st13{fill:url(#SVGID_10_);}
	.st14{mask:url(#SVGID_9_);}
</style>
<metadata>
	<sfw  xmlns="&ns_sfw;">
		<slices></slices>
		<sliceSourceBounds  height="1730" width="1815.5" y="-1264.4" x="-268.4" bottomLeftOrigin="true"></sliceSourceBounds>
	</sfw>
</metadata>
<g>
	<polygon class="st0" points="503.1,503 3,503 3,2 502.1,2 	"/>
	<g>
		<defs>
			<rect id="SVGID_1_" width="502" height="506"/>
		</defs>
		<clipPath id="SVGID_2_">
			<use xlink:href="#SVGID_1_"  style="overflow:visible;"/>
		</clipPath>
		<g class="st1">
			<defs>
				<filter id="Adobe_OpacityMaskFilter" filterUnits="userSpaceOnUse" x="-629.4" y="-0.5" width="1423.5" height="4">
					<feColorMatrix  type="matrix" values="1 0 0 0 0  0 1 0 0 0  0 0 1 0 0  0 0 0 1 0"/>
				</filter>
			</defs>
			<mask maskUnits="userSpaceOnUse" x="-629.4" y="-0.5" width="1423.5" height="4" id="SVGID_3_">
				<g class="st2">
					<linearGradient id="SVGID_4_" gradientUnits="userSpaceOnUse" x1="-651.8658" y1="1.5" x2="554.1342" y2="1.5">
						<stop  offset="0" style="stop-color:#FFFFFF"/>
						<stop  offset="6.444860e-002" style="stop-color:#CFCFCF"/>
						<stop  offset="0.1463" style="stop-color:#999999"/>
						<stop  offset="0.2291" style="stop-color:#6A6A6A"/>
						<stop  offset="0.3111" style="stop-color:#444444"/>
						<stop  offset="0.3919" style="stop-color:#262626"/>
						<stop  offset="0.4715" style="stop-color:#111111"/>
						<stop  offset="0.549" style="stop-color:#040404"/>
						<stop  offset="0.6224" style="stop-color:#000000"/>
						<stop  offset="0.8724" style="stop-color:#4D4D4D"/>
						<stop  offset="0.9388" style="stop-color:#000000"/>
					</linearGradient>
					<rect x="-651.9" y="-36" class="st3" width="1206" height="75"/>
				</g>
			</mask>
			<g class="st4">
				<g>
					<g>
						<g>
							<g>
								<polygon class="st5" points="794.1,0.8 793.5,0.8 791.7,0.9 								"/>
								<path class="st5" d="M782.7,1.1c0.3,0,0.2,0,0.5,0.1l6.7-0.3C786.9,0.7,784.7,1.2,782.7,1.1z"/>
								<path class="st5" d="M780.7,1c-2.6-0.1-3.7,0.1-4.3,0.1C777.3,1,781.3,1.2,780.7,1z"/>
								<path class="st5" d="M551,1.1c0.2,0,0.6,0,0.8,0C551.4,1.1,551.1,1.1,551,1.1z"/>
								<path class="st5" d="M491.1,1.6l-0.6,0.1c11.2-0.2,23.8,0,35.6-0.1l-0.8,0c30,0,57.7-0.1,87.5-0.2c-0.5,0-0.6,0-1.1,0.1
									c1.4,0,3-0.1,4.6-0.1c0.4,0-0.5,0.1-1,0.1c6.3,0.2,18.5-0.1,22.4,0c1.8,0,2.5-0.1,1.6-0.2c23.3-0.1,48.2-0.2,72-0.2
									c1.1,0,1.3,0.1,1,0.1c20.3-0.3,41.6-0.2,62.3-0.1c0.8-0.1-2.1-0.1-0.1-0.2c-6.7-0.1-12.2,0.2-18.3,0l0.8-0.1
									c-4.4,0-0.9,0.2-5.5,0.1c-1.8-0.1,0.5-0.1-0.4-0.1c-9.4,0-19.1,0-27.9,0.1c-2.2-0.2-10.1,0-13.5-0.2c-2.4,0.1-4.9,0-5.8,0.2
									c-32.8,0-66.2,0-99.8,0.1c-15.7,0.3-34.5-0.1-53.2,0c-0.1,0-0.1,0,0,0c-6.1,0.1-14.9,0.1-22.2,0.1l-6.1,0.1
									C479,1,434.4,1.2,390.1,1.1C339.7,1,295.6,0.8,246.5,1.2c0.1,0-0.3,0,0.9-0.1c-14.2,0-27.1,0-40.4,0l0,0
									c-33.1,0.3-68.9,0-100.8,0.2c-38.8,0-82.7,0.1-123.8,0.1l0.1-0.1C-50.2,1.5-82,1.2-114.8,1.3c-33.7-0.1-69.4,0.4-103.4,0.2
									c-21.1-0.3-48.7,0.4-68.5,0c-20.3-0.2-40.3-0.3-60.3-0.2c-10,0-20,0.1-30.1,0.1c-2.5,0-5,0-7.5,0c-2.5,0-5,0.1-7.6-0.1
									c-5-0.2-10.1-0.5-15.2-0.7c-9.3-0.5-18.7-0.9-28-0.3c-4.7,0.3-9.3,0.9-13.9,1.7c-4.6,0.7-9.3,1-13.9,0.9
									c-9.3,0-18.5-1.2-27.7-1.4c-2.3-0.1-4.6,0-6.9,0.1c-2.3,0-4.6,0-6.9,0c-4.6,0-9.1-0.1-13.7-0.1c-17.2,0.2-36.2-0.3-55.3-0.2
									l0.7,0.1c-6.9-0.2-15.3,0.3-19.6,0l0.7,0c-3.6-0.2-8.4,0.4-10.7,0.2l-0.6,0.1c-4.4,0-0.5-0.1-3.9-0.1
									c-1.3,0-0.5,0.2-3.2,0.1c-0.6-0.4-10.8,0.1-11.1-0.3c2.4,0-3.8-0.2,1.6-0.2c-1.5,0-8.9,0-8.3,0.2c-0.6,0.2-3.5,0.3,1,0.5
									l0.9-0.1c1.5,0.1,1.1,0.1,1.7,0.2c5.9,0,6.6,0.2,10.8,0.3c0,0-0.1,0,0,0c2.9-0.2,6.8-0.1,9.1,0l0.9,0.1
									c1.4,0.2,6.7-0.3,4.9,0c11.9,0,25.6,0,38.9-0.1c1.9-0.1,10.2,0,7.3-0.2C-549.1,2-539.2,2-535.5,2c-0.1,0-0.3,0-0.9,0
									c7.1,0.3,8.5-0.3,15.1,0.1c1-0.2,12.2,0.1,15.9-0.2c0.8,0.1,1.1,0.1,0.8,0.1c3,0,6.1,0.1,9.2-0.1c3.1,0,6.2,0.1,9.2,0.2
									c6.1,0.4,11.9,0.9,17,1.1c4.4,0.1,9.7,0.2,14.8-0.2c1.3-0.1,2.6-0.3,3.8-0.4c1.2-0.2,2.4-0.4,3.6-0.6
									c2.3-0.4,4.4-0.7,6.3-0.9c3.1-0.3,7.1-0.5,11.5-0.6c4.3-0.1,9,0,13.3,0.1l-0.8,0c9.7,0.3,21.9,1.2,28.6,1.1
									c2.9,0.3,7.1,0.2,11.3,0.3c6.5-0.1,19.7-0.1,29.6-0.2c1.5,0.1,8.2-0.1,8.7,0.1c27.9-0.4,62.3-0.2,92.1,0l-0.4,0
									c3.9-0.1,8.3-0.3,12.2-0.5c0.4,0,0.3,0-0.5,0c5.4,0,10.5,0.2,16,0.1c0,0,0,0-0.9,0.1c5.1-0.1,10.5,0.2,16.5,0l0.3,0.1
									l3.8-0.1c-0.1,0.1-0.2,0.2-2.3,0.1c46.7-0.1,94.9-0.1,142.8-0.2l-1.8,0.1l9.3-0.1c-0.1,0-0.5,0-0.9,0.1
									c11.8,0.1,24.1-0.1,35.7,0c-0.1,0-1.8,0.1-0.2,0.1c8.5-0.2,13.7,0.2,18-0.1c0.4,0,0.7,0.1-0.2,0.1
									c23.8-0.1,48.2-0.1,72.1-0.1c19.9-0.3,42.2,0,62.9-0.3l-0.1,0.1c26.8-0.2,55.2,0,83,0c11.5,0,19.3,0,30.9-0.1l0.3,0.1
									c19.5-0.3,41,0.3,61.4-0.1l-1.4,0.1c3.2-0.2,12.3,0.1,11.1-0.2l3.6,0.1c13.8-0.4,25.2,0.2,42.1-0.1l-1.1,0.1
									c4.5-0.1,9.8-0.1,13.1,0c-0.5,0-0.3,0-1.3,0c14.1,0.3,29.8,0,44.7,0l-1.7,0.1c7.2-0.2,20.4,0,29.9-0.1l-0.6,0.1l4.8-0.1
									l0.1,0.1C467.4,1.6,479,1.6,491.1,1.6z"/>
								<path class="st5" d="M615.3,1.4c0,0-0.1,0-0.1,0C614.8,1.4,615,1.4,615.3,1.4z"/>
								<path class="st5" d="M-611.9,2.1c-0.6,0-1,0-1.5,0C-613.3,2.1-612.4,2.1-611.9,2.1z"/>
							</g>
						</g>
					</g>
				</g>
			</g>
			<defs>
				<filter id="Adobe_OpacityMaskFilter_1_" filterUnits="userSpaceOnUse" x="0.2" y="-588.6" width="4.2" height="1383">
					<feColorMatrix  type="matrix" values="1 0 0 0 0  0 1 0 0 0  0 0 1 0 0  0 0 0 1 0"/>
				</filter>
			</defs>
			<mask maskUnits="userSpaceOnUse" x="0.2" y="-588.6" width="4.2" height="1383" id="SVGID_5_">
				<g class="st6">
					
						<linearGradient id="SVGID_6_" gradientUnits="userSpaceOnUse" x1="234" y1="963.6342" x2="1440" y2="963.6342" gradientTransform="matrix(4.489700e-011 -1 1 4.489700e-011 -961.4407 829.4407)">
						<stop  offset="0" style="stop-color:#FFFFFF"/>
						<stop  offset="6.444860e-002" style="stop-color:#CFCFCF"/>
						<stop  offset="0.1463" style="stop-color:#999999"/>
						<stop  offset="0.2291" style="stop-color:#6A6A6A"/>
						<stop  offset="0.3111" style="stop-color:#444444"/>
						<stop  offset="0.3919" style="stop-color:#262626"/>
						<stop  offset="0.4715" style="stop-color:#111111"/>
						<stop  offset="0.549" style="stop-color:#040404"/>
						<stop  offset="0.6224" style="stop-color:#000000"/>
						<stop  offset="0.8724" style="stop-color:#4D4D4D"/>
						<stop  offset="0.9388" style="stop-color:#000000"/>
					</linearGradient>
					<rect x="-35.3" y="-610.6" class="st7" width="75" height="1206"/>
				</g>
			</mask>
			<g class="st8">
				<g>
					<g>
						<g>
							<g>
								<polygon class="st5" points="2.3,-588.6 2.2,-584.7 2.5,-583.5 								"/>
								<path class="st5" d="M1.4-570.4l0.1,6.6c0.7-3.8,0.5,1.3,1.1-9c-0.1-3.6-0.4-11.5-0.7-10.5c0,2.6,0.3,6.4,0.2,10.2
									c-0.2-1.6-0.2-5.8-0.5-7.7c-0.2,6.2,0.2,3.9,0.1,10.7L1.4-570.4z"/>
								<path class="st5" d="M2.1-562.7c-0.1-0.6-0.3-1.2-0.4-1.1C1.9-563.2,2.1-560,2.1-562.7z"/>
								<path class="st5" d="M2.2-558.7c0,4.1-0.3-0.1-0.3,0.4l0.5,4.7L2.2-558.7z"/>
								<path class="st5" d="M2.2-541.4c0,0.7,0,1.3,0,1.9C2.3-540.2,2.2-540.7,2.2-541.4z"/>
								<path class="st5" d="M2.2-533c0.2-1.7,0.1-3.8,0-6.5c0,0.1,0,0.2,0,0.3c-0.1,2.4-0.5,0.1-0.4-3.7c-0.1-4,0.3-3.6,0-7.1
									l-0.3,4.8C1.6-539,2.1-535.4,2.2-533z"/>
								<path class="st5" d="M2.2-541.4c0-0.7,0-1.5,0-2.3C2.1-542.7,2.1-542,2.2-541.4z"/>
								<polygon class="st5" points="2.2,-550.1 2.1,-552.2 2,-551.7 								"/>
								<path class="st5" d="M2.3-518.9c-0.5-1,0-10.1-0.3-11.2c0,5.6-0.3,10-0.6,8.8l0.1,6.2C1.7-513,2-515.6,2.3-518.9z"/>
								<path class="st5" d="M1.1-506.8c0,0.4,0.1,0.9,0.1,1.4C1.1-506.1,1.1-506.6,1.1-506.8z"/>
								<path class="st5" d="M1.9-475.6L1.4-490c0.1,1.3,0.3,0.8,0.3,4.1c0.1-6.4-0.2-7.2-0.2-12.5c0.4-1.6,0,9.3,0.4,6.2
									c0-3.7,0-9.3-0.4-12.2l0.3-5.9l-0.5,2c-0.1,2.4,0.4,4.8,0,6.3c-0.2,0.7-0.2-1.6-0.3-3.3c0.1,3.8-0.4,10.4-0.3,18.1
									C0.9-479,1.7-481,1.9-475.6z"/>
								<polygon class="st5" points="1.4,-475.1 1.2,-474.1 1.4,-474.8 								"/>
								<path class="st5" d="M2-459.3l-0.3-7.5c0-0.8,0.1-1.3,0.2-1.8c-0.1,0.3-0.3-1.7-0.4-1.4c-0.4,3.5,0.1,9.2,0.2,13.2
									c-0.2,10.6-0.2-0.5-0.6,3.7c0-3,0.1-3.1,0.1-7.2c-0.5,6.5,0,14.7,0.1,18.9c0-1.2,0.2-1.5,0.1-3.8l0.1,4.3
									C1.9-445.5,2-449.4,2-459.3z"/>
								<path class="st5" d="M2-472.7c0,2.8,0,3.8-0.1,4.1C2-469.4,2.1-470.3,2-472.7z"/>
								<path class="st5" d="M1.3-439.3c0-0.5,0-1.2,0-2.3C1.3-441,1.3-440.4,1.3-439.3z"/>
								<path class="st5" d="M1.8-443.5l0,5.2l0.2-2.1C2-441.1,1.9-443.7,1.8-443.5z"/>
								<path class="st5" d="M1.2-242.6c0.2-0.5,0.3-2.4,0.2-6.5c0.2,0.5,0.2,5.7,0.3,8.2c0.1-5.4,0.3,0.1,0.5-1.3
									c0-6-0.3-8.6-0.2-15c0.1,0.3,0.2,0.2,0.2-0.6c-0.1-7.7-0.4-20.7-0.2-28.3c0.1-7.2,0-12.6-0.1-20.6
									c0.1-26.2-0.1-53.5,0.1-81.7l-0.5-4c0.2-1.4,0-6.7,0.3-5.9c-0.1,1.5,0,3,0,4.9c0.4-6,0-16,0.1-23.2c-0.1,0.8-0.5,2-0.5-0.2
									c0.5,0.6,0-8.5,0.6-10.7c0.1-7.2-0.4-0.3-0.4-7.8c-0.3-0.8-0.1,7.2-0.4,8.6c-0.2-2.4,0.1-6.8-0.2-6.5
									c-0.1,12.1,0.5,34.5,0.6,53l-0.3-1.9c0.2,9.5,0.2,24.7-0.2,32.3c0.3-1.8-0.1,13.9,0.5,12.5c-0.1,2.4-0.1,3.1-0.2,6.5
									l0.2,0.9c0,4.9-0.3,4.1-0.3,9.6c0.3-3.6,0.3,0.4,0.5,2c-0.3,6.4-0.6,13.8-0.8,19.4c0.1-0.4,0.2-0.9,0.3-2.9
									c-0.1,3.8,0.2,3.2,0.2,4.2c0,3.7-0.3,3.3-0.5,3.1c-0.1,6.8,0.5,9.8,0.3,14.9l0.3-1.8c0.1,7-0.2,12.9-0.1,20.6
									c-0.4,3.7-0.3-6.4-0.5-9.6c-0.1,1.6-0.1,4.9-0.2,6c0.2,3.3,0.4,8.9,0.6,13C1.2-255.1,1.2-245.2,1.2-242.6z"/>
								<path class="st5" d="M1-264.1c-0.1-1-0.1-1.8-0.1-2.2c0,0.7,0,1.4,0,2.6C0.9-263.7,1-263.8,1-264.1z"/>
								<path class="st5" d="M1.2-242.6c0,0,0,0.1,0,0.2C1.2-241.6,1.2-241.9,1.2-242.6z"/>
								<path class="st5" d="M2.1-287c0,0.3,0,0.7,0,1c0,0.4,0,0.8,0,1.3L2.1-287z"/>
								<path class="st5" d="M0.9-292.8c0.1-1.5,0.2-3.6,0.3-5.9C1.1-298.1,1-297.6,0.9-292.8z"/>
								<path class="st5" d="M1.2-340.1c0-1.5-0.1-0.6-0.2-1.6C1-338.7,1.1-337.7,1.2-340.1z"/>
								<polygon class="st5" points="0.9,-255.6 1,-249.7 1.1,-247.6 								"/>
								<path class="st5" d="M2.3-136.4c0.3-5.2,0.1-12.8,0.2-19.2c-0.2-11.7-0.7-1.5-0.7-12.6l0.7,1.9c0-11.1,0.1-26.9-0.5-36.4
									c0.1-0.8,0.2-2.8,0.3,0.1c0-7.4-0.9-3.8-0.7-13.8c0.4,9.2,0.4-3,0.8-0.5l0,1.4c0-6.3-0.3-14.6-0.2-18.8
									c-0.2-0.2-0.4,3.5-0.4-2.1c0,2.3-0.2,1.3-0.4,1.2c0.2,5.8,0.1,8.9,0.3,12.4c-0.2,3.2-0.1-2.2-0.3,1.1l0.2,4.6
									c-0.1,3.4-0.2-3.5-0.3,1.8c0.1,0.6,0.3,4.9,0.2,9l-0.1-1.2c0.1,3.2,0,7.6,0.3,6.1l-0.4,3.8l0.2-0.7
									c-0.1,8.7-0.7,11.9-0.4,23.1c0.1-2.7,0.2-0.2,0.3,1.2c0.2-4.7-0.2-5.8-0.2-10.2c0.2-0.7,0.5,6.8,0.7,1.5
									c-0.3,5.9,0,11.1-0.6,13.7c0,7.1,0.3,9.8,0.1,17l-0.1-0.2c0.4,1.3-0.2,5.9,0.2,11.2l0.1-3.8c0.2,0.2,0.2,2,0.2,4.6
									c-0.1-0.3-0.1-0.3-0.1,0.5c0.3,0.8,0.3,8.9,0.4,10c0.1-3.4-0.2-7.6-0.3-11.6C2.1-139.2,2.4-139.8,2.3-136.4z"/>
								<path class="st5" d="M1.2-209.7l0.1,2.3C1.4-208.4,1.3-209.2,1.2-209.7z"/>
								<path class="st5" d="M1.8-104.2c-0.1,4.5-0.3-1.2-0.4,3c0.2,4.6,0.4-5.3,0.7-0.8c-0.2,2.8,0.1,7.3,0.1,9.2
									c-0.2-2.1-0.6-0.9-0.6,0c0.1,1.7-0.1,5.7-0.1,8.7c0.2-7.3,0.1,6.2,0.4-0.4c0.2,0.5,0.4,7.4,0.2,10.2C2-74.6,2-76.9,2-78.8
									c-0.3-1.5-0.2,4.6-0.5,5.7c0.4,7,0.4,29.4,1.1,23c0.1-2.4,0-4.4-0.1-7c-0.1,7.2-0.4,0-0.5-0.6c0.1-3.1-0.1-8.4,0.1-7.2
									l0.3,4.9c0.1-15.8,0.1-37.3,0-55.5l0,7.9c-0.2-0.9-0.2-4.6-0.3-7.5l-0.5,3.8c0-2.3,0-4.4,0.1-4.2c-0.2-2.8-0.3-1.5-0.5,0.1
									c-0.1-5.9,0.1-6.8-0.2-11.3c-0.4,9.7,0.3,8.2,0,19.4L1.8-104.2z"/>
								<polygon class="st5" points="1.5,-125.5 1.8,-123.2 1.7,-126.8 								"/>
								<path class="st5" d="M2.6-121.8c-0.1,0.1-0.1-1.3-0.3-1.2C2.3-118.5,2.4-119,2.6-121.8z"/>
								<path class="st5" d="M1.5-67.1l0.1,5.9L1.7-65C1.6-64.9,1.6-66.4,1.5-67.1z"/>
								<path class="st5" d="M2.8-25.9c0-8.1-0.3-11.6,0-20.8c-0.3-4.5-0.6,2.1-0.9,0.2c-0.1,4.6,0.5,4,0.6,8.7
									c-0.3,1.8,0.1,6.9,0,11.4C2.5-27,2.7-27,2.8-25.9z"/>
								<path class="st5" d="M1.8,2.1c0,3.7,0.2,7.5,0.1,10.4c-0.2-0.4-0.2-2.6-0.2-4.9C1.3,9,1.7,11.7,1.5,15.7
									c0-0.4,0.1-1.8,0.2-0.7c-0.1,10,0.3,5.6,0.1,18.6c0.1,1.9,0.1,3.7,0.4,3.4c-0.3,7.4-0.3,3.6-0.6,12.5
									c0.1-0.3,0.5-3.2,0.8-3.2C1.9,58.9,2.4,59.2,2,67.2c0-0.9-0.1-2-0.1-4.1c-0.4,1,0.1,6.7,0,11.1l-0.4-0.4
									c0.1,4.1,0.3,11.2,0,16.4L1.4,89c0.3,10.5,0.2,22.7,0.3,31.7l-0.2,4.8c0.3,12.3,0.1-12.2,0.7-3.2c-0.7,1.3,0.2,6.4,0,13.4
									c-0.3,3.3-0.1-7.1-0.5-3.4c0.4,1.6,0.1,3.7,0.2,7.5c-0.3-0.8,0,7.8-0.4,5.5l0.6,13.1c-0.2,2.1-0.2,5.9-0.1,8.7
									c0-7.1,0.5,2,0.7-6c-0.2-11.6-0.3-30.9-0.1-45.4c-0.5-1.6,0-9.3-0.4-11.6c0.1-0.3,0.3-1.4,0.4-1.8c-0.1-9.3-0.3,2.2-0.4-0.1
									c-0.1-4.1,0.2-7.4,0.4-7c0-6.7-0.1-0.8-0.4-4.2l0.5-4.4C2.5,65.8,2.2,38.2,2.5,14.5l-0.3,1.8c0.2-10.7-0.7-18,0-27.5
									l-0.3-3.3c0.2,1.8,0.5-1.9,0.7,1c-0.1-2.9,0-6-0.1-9.1l-0.1,5.4C2-21,2.2-25.2,2.4-26.4c-0.3-8-0.5,4.8-0.8,6.6
									C2.2-8.6,1.1-8.5,1.3,2.4C1.5,9.1,1.6,1.7,1.8,2.1z"/>
								<path class="st5" d="M2.6-11.9c0-0.7-0.1-1.2-0.1-1.6C2.6-13,2.6-12.4,2.6-11.9z"/>
								<path class="st5" d="M2,167c0,0.8,0,1.8,0,3.2C2.1,171.2,2,169.5,2,167z"/>
								<path class="st5" d="M2.4-26.4C2.4-26.4,2.4-26.4,2.4-26.4c0,0,0,0.1,0,0.1C2.4-26.4,2.4-26.4,2.4-26.4z"/>
								<polygon class="st5" points="1.7,-31.8 1.7,-28.8 1.8,-29.3 								"/>
								<path class="st5" d="M1.6,198.7l0.2,0C1.7,198.4,1.6,198.3,1.6,198.7z"/>
								<path class="st5" d="M1.5,284.6l0-1.8C1.5,283.3,1.5,283.9,1.5,284.6z"/>
								<path class="st5" d="M1.8,490.6c0.1,5.6,0.2,13.1,0.5,17.2l-0.2-0.4c0.1,3,0.3,12.7,0.6,6.5l-0.1-1.5
									c-0.2-7.1,0.3-5.2,0.4-10.7c-0.1-6.7-0.7-10.5-0.6-16.5c0-2.6,0.1-2.2,0.3-1.4c0-5.9-0.4-8.3-0.5-12.4
									c1.3-1.6-0.3-18.3,0.5-27.1c-0.1-5.6,0-13-0.2-20.1c0.3,3.8,0-6.7,0.4-5.1c-0.7-2,0.3-20.4-0.6-21.7
									c0.3-9.6-0.1-0.4,0.2-11.5c0.1,0,0.1,1.9,0.1,2.6c0.2-4.4-0.4-6.8,0-10.4c0.1-8.9-0.2-1.5-0.5-6.8c0.1-9.3,0.2-6.7,0.6-11.8
									c-0.4-0.8-0.2-6.4-0.5-10.9c0,1.1-0.1,7.4-0.3,3.3c0.1-10.8-0.3-8.6-0.4-18.7c0.5-5.1,0,10,0.4,1.2
									c0.2,6.4,0.2,11.2,0.6,14.6c0-8.6-0.1-19-0.3-28.3c0.1-5.2,0.2,2.7,0.3-1.4c0.2-9.2-0.5-14.2-0.3-21.6l0.2,1.5
									c-0.3-4.5,0.1-16.4-0.1-24.9c-0.1,1.1-0.2,1.8-0.3,0.7c0.6,0.1-0.3-11.9,0.1-20.4c-0.4,0.7-0.6-7.6-0.7-12.8
									c0.1-1.8,0.3-1.4,0.4-1.4c-0.2,8.5,0.4,8.3,0.6,15c-0.2-5.6,0-14.9-0.3-19.8l0.3,1.9c0-7.8-0.7-6.8-0.4-15l0.2,0.8
									c0-16.4,0.4-35.6-0.1-48.7c-0.2-1.2-0.6,5.5-0.8,5.8c0.2,7.8,0.5,12.4,0.7,18.3l-0.4-0.1c0.2,1.4,0.4,8.5,0.6,4.6
									c0.2,4.9-0.3,3.7-0.1,9.3c-0.4-0.4-0.4-3.8-0.7-3.8l0.2,4.9c-0.1-1.5-0.1,2.9-0.3,1.5c0.5,9-0.2,12.6,0,21.9l0.1-5.2
									c0.2,0,0.2,3,0.2,5.3c-0.3,2.5-0.3,4-0.4,8.8c0.2,4.1,0.5,6.4,0.5,12c-0.4-1.2-0.2,9.3-0.5,10.3c0.4,1.2,0.1,10.8,0.4,11.6
									c0.1,3,0,7.1-0.2,7c0-0.4,0-1.3-0.1-2.3l0,3c0-0.3-0.1-0.2-0.1-0.5c0,2.7,0.3,2.7,0.1,6.1c-0.1,0-0.1-1.9-0.1-3.4
									c-0.1,7.1,0.6,12.4,0.2,18.3c0.2,1.2,0.2,9.3,0.6,7.6c-0.1,2.2-0.5,1.4-0.4,7.4c0.4,3.4-0.1,6.7,0.1,11.2
									c-0.4-6-0.1,0-0.5-5.3c-0.1,4.1,0.3,10.1,0.3,17.2c-0.1,0.7-0.2,0.7-0.3,1.4c0.1,2.6,0.4,5.7,0.1,8.2l0.3-0.3
									c-0.1,4.8,0,11.5-0.3,16.7l0.5,6c-0.5,8.1-0.1,19,0.4,25.4c0,1.5-0.1,3.3-0.1,4.8c0,1.5-0.1,2.6-0.1,2.6
									c0-0.7-0.1-1.8-0.2-3.2c0,4.4-0.3,9.7,0.1,12.1c0.1,4.5-0.3,3.3-0.3,6.6c0.6,9-0.4,26.7,0.4,29.5c0-3.7,0.2-10.8,0.1-17.8
									c0.1,1.9,0.3,0.4,0.3,3c0,7.1-0.3,10.7-0.1,17.8l-0.5-0.9C1.3,470,2.6,481.1,1.8,490.6z"/>
								<path class="st5" d="M1.8,399.9L1.6,405l0.2-0.6C1.8,402.9,1.8,401.3,1.8,399.9z"/>
								<path class="st5" d="M1.8,404.5c0,1.1,0.1,2.1,0.1,3c0-1.1,0-2.2-0.1-3.1L1.8,404.5z"/>
								<path class="st5" d="M1.9,511c0,1.1-0.1,3.4,0,5.6C2,515.2,2,512.2,1.9,511z"/>
								<polygon class="st5" points="2.1,517 2.2,514.4 2.1,514.1 								"/>
								<path class="st5" d="M2.5,667.1l0.3,8.3c-0.2,1.4,0,10.8-0.3,7.8c0.4,4.9,0,15.6,0.6,11.6c0-6.1,0-12.7-0.1-19.7
									c0-3.5,0-7.1,0-10.7c-0.2-3.6-0.1-7.3,0.1-11c0.4-7.4,1.1-14.9,1.2-22.4c0-3.7-0.1-7.5-0.5-11.1c-0.4-3.7-1.2-7.2-1.6-10.6
									c0,0,0,0.3,0.1,0.7c0.1,0.4,0.2,1,0.3,1.5c0.1,0.5,0.2,1.1,0.3,1.5c0.1,0.4,0.1,0.7,0.1,0.7c-1.3-7.1-1.4-12.1-1.5-16.7
									c0-4.6,0-8.9-0.2-14.7l0.4,1.6c0.3-6.6-0.1-12.8,0.8-19.7l-0.2,0.7c0.1-1.8,0.2-2.6,0.3-4.4l-0.1,0.7c0-1.2,0-2.3,0.1-3.4
									c0-1,0.1-2,0-3c0-2,0-3.9,0.1-6.3c0.1-0.3,0.1,2.3,0.1,3.7c0.1-2.2-0.2-6-0.2-9.7c0.1-2.9,0.2,0,0.3,0.4
									c-0.2-11.2,0.3-16.3-0.4-24.2c-0.1-0.8-0.2,2.9-0.3-1.2c-0.2,7.4,0.1,13.4,0.2,20.1l0-1.9c0.7,5.4-0.2,4.1,0.1,12.7
									c-0.3-2.3-0.3-6-0.4-7.5c-0.3,5-0.2,8.5-0.1,11.6c0.1,3.1,0,5.8-0.4,9.1l0-0.7c-0.1,1.5-0.1,4.1-0.2,6.3
									c0.1-0.7,0.3-2.9,0.4-4.4c-0.1,2.3,0.2,3.4,0.3,4.2c-0.4,2.5,0,3.4-0.4,7.4c-0.3,1.4-0.1-3.4-0.1-4.9l-0.1,4.9
									c-0.2,4.4-0.5,4.4-0.7,6.6c0.1,3.8,0.2-2.2,0.4,0.9c-0.2,2.4-0.6,8.7-0.3,15.6c0.1,3.5,0.4,7.1,0.8,10.4
									c0.4,3.3,1,6.4,1.4,8.8c-0.6-3.3-0.5-1.1-1.1-5.2c0.1,0.7,0.3,2.4,0.6,3.9c0.3,1.5,0.5,2.8,0.6,2.8
									c1.1,6.7,0.7,15.3,0.1,21.6l0.3-1.8c0,2.6-0.3,6-0.6,9.8c-0.3,3.8-0.7,8.2-0.6,12.8l0-0.2c0,1.5,0.2,2.9,0.4,4.6
									c0.1,1.7,0.2,3.7,0.2,6.5C2.8,669.7,2.8,666.8,2.5,667.1z"/>
								<path class="st5" d="M3,699.9l-0.3-3c-0.1,3.3,0.3,7.5,0.5,6.8c-0.1-2.2,0.1-5.2-0.1-5.6C3.1,698.4,3,698.4,3,699.9z"/>
								<path class="st5" d="M3.1,762.4c0.1,1.2,0.2,0.9,0.3,1.4c0-13.2-0.2-29.5,0.1-34.8c0.1-4.5-0.4-5.3-0.5-10.9l0.3-2.5
									c-0.2-3,0.1-12.3-0.3-9c0,0.4,0.2,2.6,0.1,5.2l-0.2-0.4l0.1,6l-0.2-1.9c-0.3,8.1,0.6,5.7,0.4,15.7l-0.4-0.1
									c0,6.7,0.1,10.1-0.1,16c0,0,0.2,0,0.1-1.1c0-1.1,0.2-2.6,0.3-1.8c0.3,10.1-0.2-1.5-0.4,5.5c0.3,8.6,0.5,25,0.2,29.8
									c0.3-4,0.5,2,0.5,6.8c-0.1,2.2-0.2-1.5-0.4-2.3c0,2.2-0.1,4.1-0.1,6.3c0.2-2.9,0.5-1,0.7,4.2C3.8,783,3,773.9,3.1,762.4z"/>
								<path class="st5" d="M3.4,765.8c0-1.2-0.1-1.7-0.1-2c0,1.6,0,3.1,0,4.6L3.4,765.8z"/>
							</g>
						</g>
					</g>
				</g>
			</g>
			<defs>
				<filter id="Adobe_OpacityMaskFilter_2_" filterUnits="userSpaceOnUse" x="-235.9" y="501.5" width="1422" height="4.2">
					<feColorMatrix  type="matrix" values="1 0 0 0 0  0 1 0 0 0  0 0 1 0 0  0 0 0 1 0"/>
				</filter>
			</defs>
			<mask maskUnits="userSpaceOnUse" x="-235.9" y="501.5" width="1422" height="4.2" id="SVGID_7_">
				<g class="st9">
					
						<linearGradient id="SVGID_8_" gradientUnits="userSpaceOnUse" x1="-3.8658" y1="269.5" x2="1202.1342" y2="269.5" gradientTransform="matrix(1 0 0 1 -255.9999 233.9999)">
						<stop  offset="0" style="stop-color:#FFFFFF"/>
						<stop  offset="6.444860e-002" style="stop-color:#CFCFCF"/>
						<stop  offset="0.1463" style="stop-color:#999999"/>
						<stop  offset="0.2291" style="stop-color:#6A6A6A"/>
						<stop  offset="0.3111" style="stop-color:#444444"/>
						<stop  offset="0.3919" style="stop-color:#262626"/>
						<stop  offset="0.4715" style="stop-color:#111111"/>
						<stop  offset="0.549" style="stop-color:#040404"/>
						<stop  offset="0.6224" style="stop-color:#000000"/>
						<stop  offset="0.8724" style="stop-color:#4D4D4D"/>
						<stop  offset="0.9388" style="stop-color:#000000"/>
					</linearGradient>
					<rect x="-259.9" y="466" class="st10" width="1206" height="75"/>
				</g>
			</mask>
			<g class="st11">
				<g>
					<g>
						<g>
							<g>
								<polygon class="st5" points="1186.1,503.6 1182.2,503.5 1181,503.8 								"/>
								<path class="st5" d="M1167.5,502.7l-6.8,0.1c3.9,0.7-1.3,0.5,9.2,1.1c3.7-0.1,11.8-0.4,10.8-0.7c-2.7,0-6.6,0.3-10.5,0.2
									c1.7-0.2,5.9-0.2,7.9-0.5c-6.4-0.2-4,0.2-11,0.1L1167.5,502.7z"/>
								<path class="st5" d="M1159.5,503.4c0.6-0.1,1.3-0.3,1.1-0.4C1160,503.2,1156.7,503.4,1159.5,503.4z"/>
								<path class="st5" d="M1155.4,503.5c-4.3,0,0.1-0.3-0.4-0.3l-4.8,0.5L1155.4,503.5z"/>
								<path class="st5" d="M1137.7,503.5c-0.7,0-1.3,0-2,0C1136.4,503.6,1137,503.5,1137.7,503.5z"/>
								<path class="st5" d="M1129,503.5c1.7,0.2,3.9,0.1,6.7,0c-0.1,0-0.2,0-0.3,0c-2.4-0.1-0.1-0.5,3.8-0.4c4.1-0.1,3.7,0.3,7.3,0
									l-4.9-0.3C1135.2,502.9,1131.5,503.4,1129,503.5z"/>
								<path class="st5" d="M1137.7,503.5c0.7,0,1.5,0,2.3,0C1139,503.4,1138.3,503.4,1137.7,503.5z"/>
								<polygon class="st5" points="1146.6,503.5 1148.8,503.4 1148.3,503.3 								"/>
								<path class="st5" d="M1114.5,503.6c1-0.5,10.4,0,11.5-0.3c-5.7,0-10.3-0.3-9-0.6l-6.3,0.1
									C1108.5,503,1111.2,503.3,1114.5,503.6z"/>
								<path class="st5" d="M1102.1,502.4c-0.4,0-0.9,0.1-1.4,0.1C1101.3,502.4,1101.9,502.4,1102.1,502.4z"/>
								<path class="st5" d="M1070,503.2l14.8-0.5c-1.4,0.1-0.8,0.3-4.2,0.3c6.6,0.1,7.4-0.2,12.8-0.2c1.6,0.4-9.5,0-6.4,0.4
									c3.8,0,9.5,0,12.6-0.4l6.1,0.3l-2.1-0.5c-2.5-0.1-5,0.4-6.5,0c-0.8-0.2,1.7-0.2,3.4-0.3c-3.9,0.1-10.7-0.4-18.6-0.3
									C1073.5,502.2,1075.5,503,1070,503.2z"/>
								<polygon class="st5" points="1069.4,502.7 1068.4,502.5 1069.1,502.7 								"/>
								<path class="st5" d="M1053.3,503.3l7.7-0.3c0.8,0,1.3,0.1,1.8,0.2c-0.3-0.1,1.8-0.3,1.4-0.4c-3.6-0.4-9.4,0.1-13.6,0.2
									c-10.9-0.2,0.5-0.2-3.8-0.6c3.1,0,3.2,0.1,7.4,0.1c-6.7-0.5-15.1,0-19.4,0.1c1.3,0,1.6,0.2,3.9,0.1l-4.5,0.1
									C1039.1,503.2,1043,503.3,1053.3,503.3z"/>
								<path class="st5" d="M1067,503.3c-2.9,0-3.9,0-4.2-0.1C1063.6,503.3,1064.6,503.4,1067,503.3z"/>
								<path class="st5" d="M1032.7,502.6c0.5,0,1.3,0,2.3,0C1034.4,502.6,1033.8,502.6,1032.7,502.6z"/>
								<path class="st5" d="M1037,503.1l-5.4,0l2.1,0.2C1034.5,503.3,1037.2,503.3,1037,503.1z"/>
								<path class="st5" d="M830.4,502.5c0.5,0.2,2.5,0.3,6.6,0.2c-0.5,0.2-5.9,0.2-8.4,0.3c5.5,0.1-0.1,0.3,1.3,0.5
									c6.2,0,8.9-0.3,15.5-0.2c-0.3,0.1-0.2,0.2,0.7,0.2c7.9-0.1,21.3-0.4,29.1-0.2c7.5,0.1,13,0,21.2-0.1c26.9,0.1,55-0.1,84,0.1
									l4.1-0.5c1.4,0.2,6.9,0,6.1,0.3c-1.6-0.1-3.1,0-5,0c6.2,0.4,16.4,0,23.9,0.1c-0.8-0.1-2.1-0.5,0.2-0.5
									c-0.6,0.5,8.8,0,11,0.6c7.4,0.1,0.3-0.4,8-0.4c0.8-0.3-7.4-0.1-8.8-0.4c2.4-0.2,7,0.1,6.7-0.2c-12.4-0.1-35.5,0.5-54.4,0.6
									l2-0.3c-9.7,0.2-25.4,0.2-33.2-0.2c1.8,0.3-14.3-0.1-12.9,0.5c-2.5-0.1-3.2-0.1-6.7-0.2l-0.9,0.2c-5,0-4.2-0.3-9.9-0.3
									c3.7,0.3-0.4,0.3-2.1,0.5c-6.6-0.3-14.2-0.6-20-0.8c0.5,0.1,1,0.2,3,0.3c-3.9-0.1-3.3,0.2-4.3,0.2c-3.8,0-3.4-0.3-3.2-0.5
									c-7-0.1-10.1,0.5-15.3,0.3l1.8,0.3c-7.2,0.1-13.3-0.2-21.2-0.1c-3.9-0.4,6.5-0.3,9.8-0.5c-1.6-0.1-5-0.1-6.1-0.2
									c-3.4,0.2-9.1,0.4-13.3,0.6C843.2,502.5,833.1,502.5,830.4,502.5z"/>
								<path class="st5" d="M852.5,502.3c1-0.1,1.8-0.1,2.3-0.1c-0.8,0-1.5,0-2.6,0C852.1,502.2,852.2,502.3,852.5,502.3z"/>
								<path class="st5" d="M830.4,502.5c0,0-0.1,0-0.2,0C829.4,502.5,829.7,502.5,830.4,502.5z"/>
								<path class="st5" d="M876.1,503.4c-0.3,0-0.7,0-1,0c-0.4,0-0.8,0-1.3,0L876.1,503.4z"/>
								<path class="st5" d="M882.1,502.2c1.5,0.1,3.7,0.2,6.1,0.3C887.5,502.4,886.9,502.3,882.1,502.2z"/>
								<path class="st5" d="M930.6,502.5c1.5,0,0.6-0.1,1.7-0.2C929.2,502.3,928.2,502.4,930.6,502.5z"/>
								<polygon class="st5" points="843.8,502.2 837.8,502.3 835.5,502.4 								"/>
								<path class="st5" d="M721.3,503.6c5.3,0.3,13.2,0.1,19.7,0.2c12.1-0.2,1.5-0.7,13-0.7l-2,0.7c11.5,0,27.7,0.1,37.4-0.5
									c0.8,0.1,2.9,0.2-0.1,0.3c7.6,0,4-0.9,14.1-0.7c-9.5,0.4,3.1,0.4,0.5,0.8l-1.5,0c6.5,0,15-0.3,19.3-0.2
									c0.2-0.2-3.6-0.4,2.2-0.4c-2.3,0-1.4-0.2-1.2-0.4c-5.9,0.2-9.1,0.1-12.7,0.3c-3.3-0.2,2.2-0.1-1.1-0.3l-4.7,0.2
									c-3.5-0.1,3.6-0.2-1.8-0.3c-0.6,0.1-5,0.3-9.3,0.2l1.2-0.1c-3.2,0.1-7.9,0-6.3,0.3l-3.9-0.4l0.7,0.2
									c-8.9-0.1-12.3-0.7-23.8-0.4c2.7,0.1,0.2,0.2-1.3,0.3c4.8,0.2,5.9-0.2,10.5-0.2c0.7,0.2-7,0.5-1.5,0.7
									c-6.1-0.3-11.4,0-14.1-0.6c-7.3,0-10.1,0.3-17.5,0.1l0.2-0.1c-1.4,0.4-6-0.2-11.5,0.2l3.9,0.1c-0.2,0.2-2.1,0.2-4.7,0.2
									c0.3-0.1,0.3-0.1-0.6-0.1c-0.8,0.3-9.2,0.3-10.2,0.4c3.5,0.1,7.8-0.2,11.9-0.3C724.1,503.4,724.7,503.7,721.3,503.6z"/>
								<path class="st5" d="M796.6,502.5l-2.4,0.1C795.2,502.7,796.1,502.6,796.6,502.5z"/>
								<path class="st5" d="M688.1,503.1c-4.7-0.1,1.3-0.3-3.1-0.4c-4.8,0.2,5.4,0.4,0.8,0.7c-2.9-0.2-7.5,0.1-9.4,0.1
									c2.1-0.2,0.9-0.6,0-0.6c-1.8,0.1-5.8-0.1-8.9-0.1c7.5,0.2-6.3,0.1,0.5,0.4c-0.5,0.2-7.6,0.4-10.5,0.2
									c0.2-0.2,2.5-0.1,4.4-0.1c1.6-0.3-4.8-0.2-5.9-0.5c-7.2,0.4-30.2,0.4-23.6,1.1c2.5,0.1,4.5,0,7.2-0.1
									c-7.5-0.1,0-0.4,0.6-0.5c3.2,0.1,8.7-0.1,7.4,0.1l-5.1,0.3c16.2,0.1,38.4,0.1,57.1,0l-8.1,0c0.9-0.2,4.8-0.2,7.7-0.3l-4-0.5
									c2.3,0,4.6,0,4.4,0.1c2.8-0.2,1.5-0.3-0.2-0.5c6-0.1,7,0.1,11.6-0.2c-10-0.4-8.4,0.3-19.9,0L688.1,503.1z"/>
								<polygon class="st5" points="710.1,502.8 707.6,503.1 711.3,503 								"/>
								<path class="st5" d="M706.2,503.9c-0.1-0.1,1.4-0.1,1.2-0.3C702.8,503.6,703.4,503.7,706.2,503.9z"/>
								<path class="st5" d="M649.9,502.9l-6,0.1l3.9,0.1C647.7,502.9,649.2,502.9,649.9,502.9z"/>
								<path class="st5" d="M607.6,504.1c8.4,0,12-0.3,21.4,0c4.6-0.3-2.2-0.6-0.2-0.9c-4.7-0.1-4.1,0.5-9,0.6
									c-1.8-0.3-7.1,0.1-11.8,0C608.7,503.9,608.7,504,607.6,504.1z"/>
								<path class="st5" d="M578.8,503.1c-3.8,0-7.7,0.2-10.7,0.1c0.4-0.2,2.7-0.2,5-0.2c-1.5-0.4-4.2,0.1-8.4-0.2
									c0.4,0,1.9,0.1,0.7,0.2c-10.3-0.1-5.8,0.3-19.1,0.1c-1.9,0.1-3.8,0.1-3.5,0.4c-7.6-0.3-3.7-0.3-12.9-0.6
									c0.4,0.1,3.3,0.5,3.3,0.8c-12.9-0.4-13.2,0.1-21.4-0.3c0.9,0,2-0.1,4.2-0.1c-1.1-0.4-6.9,0.1-11.5,0l0.4-0.4
									c-4.2,0.1-11.5,0.3-16.8,0l1.2-0.2c-10.8,0.3-23.4,0.2-32.6,0.3l-4.9-0.2c-12.7,0.3,12.6,0.1,3.3,0.7
									c-1.4-0.7-6.5,0.2-13.7,0c-3.4-0.3,7.3-0.1,3.5-0.5c-1.6,0.4-3.8,0.1-7.7,0.2c0.8-0.3-8,0-5.7-0.4l-13.5,0.6
									c-2.2-0.2-6.1-0.2-9-0.1c7.3,0-2,0.5,6.2,0.7c11.9-0.2,31.8-0.3,46.7-0.1c1.6-0.5,9.6,0,11.9-0.4c0.3,0.1,1.5,0.3,1.8,0.4
									c9.6-0.1-2.2-0.3,0.1-0.4c4.2-0.1,7.6,0.2,7.2,0.4c6.9,0,0.8-0.1,4.3-0.4l4.5,0.5c21.4-0.2,49.8-0.5,74.2-0.2l-1.8-0.3
									c11,0.2,18.5-0.7,28.3,0l3.4-0.3c-1.8,0.2,1.9,0.5-1,0.7c3-0.1,6.2,0,9.3-0.1l-5.5-0.1c3.9-0.3,8.1-0.1,9.4,0.1
									c8.2-0.3-4.9-0.5-6.7-0.8c-11.6,0.6-11.7-0.6-22.8-0.3C571.7,502.8,579.3,502.9,578.8,503.1z"/>
								<path class="st5" d="M593.2,503.9c0.7,0,1.3-0.1,1.7-0.1C594.3,503.9,593.8,503.9,593.2,503.9z"/>
								<path class="st5" d="M409.3,503.3c-0.9,0-1.9,0-3.3,0C404.9,503.4,406.7,503.3,409.3,503.3z"/>
								<path class="st5" d="M608.2,503.7C608.2,503.7,608.2,503.7,608.2,503.7c0,0-0.1,0-0.1,0
									C608.1,503.7,608.1,503.7,608.2,503.7z"/>
								<polygon class="st5" points="613.7,503 610.6,503 611.2,503.1 								"/>
								<path class="st5" d="M376.7,502.9l0,0.2C376.9,503,377.1,502.9,376.7,502.9z"/>
								<path class="st5" d="M288.4,502.8l1.9,0C289.7,502.8,289,502.8,288.4,502.8z"/>
								<path class="st5" d="M76.6,503.1c-5.8,0.1-13.4,0.2-17.7,0.5l0.4-0.2c-3.1,0.1-13.1,0.3-6.6,0.6l1.6-0.1
									c7.3-0.2,5.3,0.3,11,0.4c6.9-0.1,10.8-0.7,16.9-0.6c2.7,0,2.3,0.1,1.5,0.3c6.1,0,8.5-0.4,12.7-0.5
									c1.7,1.3,18.8-0.3,27.8,0.5c5.7-0.1,13.4,0,20.7-0.2c-3.9,0.3,6.9,0,5.3,0.4c2.1-0.7,21,0.3,22.3-0.6
									c9.9,0.3,0.4-0.1,11.8,0.2c0,0.1-1.9,0.1-2.7,0.1c4.5,0.2,7-0.4,10.7,0c9.1,0.1,1.6-0.2,7-0.5c9.5,0.1,6.9,0.2,12.1,0.6
									c0.8-0.4,6.5-0.2,11.2-0.5c-1.2,0-7.6-0.1-3.4-0.3c11.1,0.1,8.9-0.3,19.2-0.4c5.2,0.5-10.3,0-1.2,0.4
									c-6.5,0.2-11.5,0.2-15,0.6c8.8,0,19.5-0.1,29.1-0.3c5.3,0.1-2.7,0.2,1.5,0.3c9.5,0.2,14.6-0.5,22.2-0.3l-1.6,0.2
									c4.7-0.3,16.8,0.1,25.6-0.1c-1.1-0.1-1.9-0.2-0.7-0.3c-0.1,0.6,12.3-0.3,21,0.1c-0.7-0.4,7.8-0.6,13.1-0.7
									c1.9,0.1,1.5,0.3,1.5,0.4c-8.8-0.2-8.5,0.4-15.4,0.6c5.8-0.2,15.3,0,20.3-0.3l-2,0.3c8,0,7-0.7,15.4-0.4l-0.8,0.2
									c16.8,0,36.6,0.4,50.1-0.1c1.2-0.2-5.6-0.6-6-0.8c-8.1,0.2-12.7,0.5-18.8,0.7l0.1-0.4c-1.4,0.2-8.8,0.4-4.7,0.6
									c-5,0.2-3.8-0.3-9.5-0.1c0.4-0.4,3.9-0.4,4-0.7l-5,0.2c1.6-0.1-3-0.1-1.5-0.3c-9.3,0.5-13-0.2-22.6,0l5.4,0.1
									c0,0.2-3.1,0.2-5.4,0.2c-2.6-0.3-4.2-0.3-9.1-0.4c-4.2,0.2-6.6,0.5-12.3,0.5c1.2-0.4-9.5-0.2-10.6-0.5
									c-1.2,0.4-11.1,0.1-11.9,0.4c-3.1,0.1-7.3,0-7.2-0.2c0.5,0,1.3,0,2.3-0.1l-3.1,0c0.3,0,0.2-0.1,0.5-0.1
									c-2.7,0-2.8,0.3-6.3,0.1c0-0.1,1.9-0.1,3.5-0.1c-7.3-0.1-12.8,0.6-18.8,0.2c-1.2,0.2-9.6,0.2-7.8,0.6
									c-2.3-0.1-1.4-0.5-7.6-0.4c-3.5,0.4-6.8-0.1-11.5,0.1c6.2-0.4,0-0.1,5.4-0.5c-4.2-0.1-10.4,0.3-17.7,0.3
									c-0.7-0.1-0.7-0.2-1.5-0.3c-2.7,0.1-5.8,0.4-8.4,0.1l0.3,0.3c-5-0.1-11.8,0-17.1-0.3l-6.2,0.5c-8.3-0.5-19.5-0.1-26.1,0.4
									c-1.5,0-3.4-0.1-5-0.1c-1.5,0-2.7-0.1-2.6-0.1c0.7,0,1.9-0.1,3.3-0.2c-4.5,0-10-0.3-12.5,0.1c-4.6,0.1-3.4-0.3-6.8-0.3
									c-9.3,0.6-27.5-0.4-30.3,0.4c3.8,0,11.1,0.2,18.3,0.1c-1.9,0.1-0.4,0.3-3.1,0.3c-7.3,0-11-0.3-18.3-0.1l0.9-0.5
									C97.7,502.6,86.3,503.9,76.6,503.1z"/>
								<path class="st5" d="M169.8,503.1l-5.3-0.3l0.6,0.2C166.7,503.1,168.4,503.1,169.8,503.1z"/>
								<path class="st5" d="M165.1,503.1c-1.1,0-2.1,0.1-3.1,0.1c1.2,0,2.3,0,3.2-0.1L165.1,503.1z"/>
								<path class="st5" d="M55.5,503.2c-1.2,0-3.5-0.1-5.8,0C51.3,503.3,54.4,503.3,55.5,503.2z"/>
								<polygon class="st5" points="49.4,503.4 52,503.5 52.4,503.4 								"/>
								<path class="st5" d="M-104.9,503.8c0,0-0.5,0.1-1.3,0.1c-0.8,0-1.9,0.1-2.9,0.1c-2.1,0.1-4.2,0.2-4.2,0.2
									c-1.5-0.2-11.1,0-8-0.3c-5,0.4-16,0-12,0.6c6.2,0,13,0,20.2-0.1c3.6,0,7.3,0,11-0.1c3.7,0,7.5,0.2,11.3,0.4
									c7.6,0.5,15.4,1.2,23.1,1c3.9-0.1,7.7-0.5,11.4-1.1c1.9-0.3,3.7-0.6,5.5-0.9c1.8-0.2,3.6-0.5,5.4-0.6c0,0-1.1,0.1-2.3,0.3
									c-1.1,0.2-2.3,0.4-2.3,0.4c7.4-1,12.5-1,17.2-0.9c4.7,0.1,9.1,0.2,15.1,0.1l-1.6,0.4c6.8,0.4,13.1,0.1,20.3,0.9L0.3,504
									c1,0,1.6,0.1,2.3,0.1c0.7,0,1.3,0,2.3,0l-0.8-0.1c5-0.2,8.1-0.2,13,0c0.3,0.1-2.3,0.1-3.8,0.1c2.3,0.1,6.2-0.2,10-0.2
									c3,0.1,0,0.2-0.5,0.3c11.5-0.2,16.8,0.3,24.9-0.4c0.8-0.1-3-0.2,1.2-0.3c-7.6-0.2-13.8,0.1-20.7,0.2l1.9,0
									c-5.5,0.7-4.2-0.2-13,0.1c2.3-0.3,6.2-0.3,7.7-0.4c-10.2-0.5-14.6,0.4-21.3-0.3l0.8,0c-1.5,0-4.2-0.1-6.5-0.1
									c0.7,0.1,3,0.3,4.5,0.4c-2.3,0-3.5,0.2-4.3,0.3c-2.6-0.4-3.5,0-7.6-0.4c-1.5-0.3,3.5-0.1,5-0.1l-5-0.1
									c-4.6-0.2-4.5-0.5-6.8-0.8c-3.9,0,2.3,0.3-0.9,0.4c-2.4-0.3-8.9-0.7-16-0.7c-3.6,0-7.3,0.1-10.7,0.4
									c-3.4,0.3-6.6,0.6-9.1,1.1c3.4-0.5,1.2-0.5,5.3-0.9c-0.8,0.1-2.5,0.2-4,0.5c-1.5,0.3-2.8,0.5-2.8,0.6
									c-3.4,0.7-7.3,1.2-11.2,1.3c-3.9,0.2-7.7,0-10.9-0.2l1.9,0.3c-2.7,0.1-6.2-0.2-10.1-0.5c-3.9-0.4-8.4-0.8-13.2-0.9l0.2,0
									c-1.5,0-3,0.1-4.7,0.2c-0.9,0.1-1.8,0.2-2.9,0.2c-1.1,0.1-2.3,0.1-3.7,0C-107.6,504.1-104.6,504.1-104.9,503.8z"/>
								<path class="st5" d="M-138.7,504.3l3.1-0.3c-3.4-0.1-7.7,0.3-7,0.5c2.3-0.1,5.3,0.1,5.8-0.1
									C-137.2,504.4-137.1,504.3-138.7,504.3z"/>
								<path class="st5" d="M-202.9,504.4c-1.3,0.1-0.9,0.2-1.5,0.3c13.6,0,30.4-0.2,35.8,0.1c4.6,0.1,5.4-0.4,11.2-0.5l2.6,0.3
									c3.1-0.2,12.6,0.1,9.3-0.3c-0.4,0-2.7,0.2-5.4,0.1l0.4-0.2l-6.1,0.1l1.9-0.2c-8.4-0.3-5.9,0.6-16.1,0.4l0.1-0.4
									c-6.9,0-10.4,0.1-16.4-0.1c0,0,0,0.2,1.1,0.1c1.2,0,2.7,0.2,1.9,0.3c-10.4,0.3,1.6-0.2-5.6-0.4c-8.9,0.3-25.7,0.5-30.6,0.2
									c4.2,0.3-2,0.5-7,0.5c-2.3-0.1,1.6-0.2,2.4-0.4c-2.3,0-4.2-0.1-6.5-0.1c3,0.2,1,0.5-4.3,0.7
									C-224.1,505.1-214.7,504.3-202.9,504.4z"/>
								<path class="st5" d="M-206.4,504.7c1.2,0,1.8-0.1,2.1-0.1c-1.6,0-3.2,0-4.7,0L-206.4,504.7z"/>
							</g>
						</g>
					</g>
				</g>
			</g>
			<defs>
				<filter id="Adobe_OpacityMaskFilter_3_" filterUnits="userSpaceOnUse" x="499.4" y="-203" width="5.9" height="1344.4">
					<feColorMatrix  type="matrix" values="1 0 0 0 0  0 1 0 0 0  0 0 1 0 0  0 0 0 1 0"/>
				</filter>
			</defs>
			<mask maskUnits="userSpaceOnUse" x="499.4" y="-203" width="5.9" height="1344.4" id="SVGID_9_">
				<g class="st12">
					
						<linearGradient id="SVGID_10_" gradientUnits="userSpaceOnUse" x1="-674.4406" y1="688.9409" x2="-158.4406" y2="688.9409" gradientTransform="matrix(4.489700e-011 1 -1 4.489700e-011 1191.4408 665.4406)">
						<stop  offset="1.020408e-002" style="stop-color:#000000"/>
						<stop  offset="3.184533e-002" style="stop-color:#202020"/>
						<stop  offset="8.134868e-002" style="stop-color:#636363"/>
						<stop  offset="0.1284" style="stop-color:#9A9A9A"/>
						<stop  offset="0.1716" style="stop-color:#C6C6C6"/>
						<stop  offset="0.2102" style="stop-color:#E5E5E5"/>
						<stop  offset="0.2428" style="stop-color:#F8F8F8"/>
						<stop  offset="0.2655" style="stop-color:#FFFFFF"/>
						<stop  offset="0.602" style="stop-color:#000000"/>
						<stop  offset="0.649" style="stop-color:#040404"/>
						<stop  offset="0.6986" style="stop-color:#111111"/>
						<stop  offset="0.7494" style="stop-color:#262626"/>
						<stop  offset="0.8011" style="stop-color:#444444"/>
						<stop  offset="0.8535" style="stop-color:#6A6A6A"/>
						<stop  offset="0.9064" style="stop-color:#999999"/>
						<stop  offset="0.9588" style="stop-color:#CFCFCF"/>
						<stop  offset="1" style="stop-color:#FFFFFF"/>
					</linearGradient>
					<rect x="465" y="-9" class="st13" width="75" height="516"/>
				</g>
			</mask>
			<g class="st14">
				<g>
					<g>
						<g>
							<g>
								<polygon class="st5" points="502.7,1141.4 502.8,1140.8 502.7,1139.2 								"/>
								<path class="st5" d="M502.5,1130.6c0,0.3-0.1,0.2-0.1,0.5l0.3,6.4C502.9,1134.6,502.4,1132.5,502.5,1130.6z"/>
								<path class="st5" d="M502.5,1128.7c0.1-2.5-0.1-3.5-0.1-4.1C502.5,1125.5,502.4,1129.3,502.5,1128.7z"/>
								<path class="st5" d="M502.5,911.7c0,0.2,0,0.5,0,0.8C502.5,912.1,502.5,911.9,502.5,911.7z"/>
								<path class="st5" d="M502,855.1l-0.1-0.6c0.2,10.6,0,22.5,0.1,33.7l0-0.8c0,28.4,0.1,54.5,0.2,82.6c0-0.4,0-0.6-0.1-1
									c0,1.4,0.1,2.9,0.1,4.4c0,0.4-0.1-0.4-0.1-0.9c-0.2,5.9,0.1,17.4,0,21.2c0,1.7,0.1,2.4,0.2,1.5c0.1,22,0.2,45.6,0.2,68
									c0,1.1-0.1,1.3-0.1,1c0.3,19.2,0.2,39.3,0.1,58.9c0.1,0.8,0.1-2,0.2-0.1c0.1-6.3-0.2-11.5,0-17.3l0.1,0.7
									c0-4.2-0.2-0.8-0.1-5.2c0.1-1.7,0.1,0.4,0.1-0.4c0-8.8,0-18.1-0.1-26.4c0.2-2.1,0-9.5,0.2-12.8c-0.1-2.3,0-4.6-0.2-5.5
									c0-31,0-62.6-0.1-94.3c-0.3-14.8,0.1-32.6,0-50.2c0-0.1,0-0.1,0,0c-0.1-5.7-0.1-14.1-0.1-21l-0.1-5.8
									c0.3-41.2,0.1-83.4,0.2-125.3c0.1-47.6,0.3-89.3-0.1-135.6c0,0.1,0-0.3,0.1,0.9c0-13.4,0-25.6,0-38.2l0,0
									c-0.3-31.3,0-65.1-0.2-95.2c0-36.7-0.1-78.2-0.1-117l0.1,0.1c-0.1-31.1,0.2-61.1,0.1-92.1c0.1-31.9-0.4-65.6-0.2-97.7
									c0.3-19.9-0.4-46,0-64.7c0.2-19.2,0.3-38.1,0.2-57c0-9.5-0.1-18.9-0.1-28.4c0.1-9.5-1.1-19-1.9-28.5
									c-0.3-4.4-0.5-8.8-0.4-13.3c0.1-4.4,0.7-8.9,1.9-13.1c1.3-4.2,2.2-8.6,2.5-12.9c0.4-4.4,0.3-8.8,0-13.2
									c-0.6-8.7-2.1-17.4-2.5-26.1c0-8.7,0-17.3,0.1-25.9c-0.2-16.2,0.3-34.2,0.2-52.3l-0.1,0.6c0.2-6.5-0.3-14.5,0-18.5l0,0.7
									c0.2-3.4-0.4-8-0.2-10.1l-0.1-0.6c0-4.2,0.1-0.5,0.1-3.7c0-1.2-0.2-0.5-0.1-3c0.4-0.5-0.1-10.2,0.3-10.5
									c0,2.3,0.2-3.6,0.2,1.5c0-1.5,0-8.4-0.2-7.8c-0.2-0.6-0.3-3.3-0.5,0.9l0.1,0.9c-0.1,1.4-0.1,1.1-0.2,1.6
									c0,5.5-0.2,6.3-0.3,10.2c0,0,0-0.1,0,0c0.2,2.7,0.1,6.5,0,8.6l-0.1,0.9c-0.2,1.3,0.3,6.3,0,4.6c0,11.3,0,24.2,0.1,36.7
									c0.1,1.8,0,9.6,0.2,6.9c-0.2,3.1-0.3,12.5-0.3,16c0-0.1,0-0.3,0-0.8c-0.3,6.7,0.3,8-0.1,14.3c0.2,1-0.1,11.5,0.2,15.1
									c-0.1,0.8-0.1,1-0.1,0.8c0,2.8,0,5.8,0,8.7c0,1.5,0,2.9,0,4.4c0,1.5,0.1,2.9,0.3,4.4c0.5,5.8,1.2,11.3,1.6,16
									c0.5,4.1,0.9,9,0.8,13.8c-0.1,4.8-0.7,9.4-1.3,12.8c-0.1,0.4-0.2,0.7-0.3,1.1c-0.1,0.4-0.2,0.8-0.3,1.2
									c-0.2,0.8-0.5,1.6-0.7,2.5c-0.2,0.9-0.5,1.8-0.8,2.8c-0.2,1-0.4,2-0.6,3c-0.7,4.1-0.8,8.6-0.6,12.7l-0.1-0.8
									c0.1,4.6,0.5,9.8,1,14.6c0.4,4.8,0.8,9.2,1.1,12.4c-0.1,2.7,0.1,6.7-0.1,10.7c0,6.2,0.1,18.6,0.2,28
									c-0.1,1.4,0.1,7.8-0.1,8.2c0.4,26.3,0.2,58.9,0,87l0-0.4c0.1,3.6,0.3,7.9,0.5,11.6c0,0.4,0,0.3,0-0.5
									c0,5.1-0.2,9.9-0.1,15.1c0,0,0,0-0.1-0.9c0.1,4.8-0.2,10,0,15.6l-0.1,0.3l0.1,3.6c-0.1-0.1-0.2-0.2-0.1-2.2
									c0.1,44.1,0.1,89.6,0.2,134.9l-0.1-1.7l0.1,8.8c0,0,0-0.5-0.1-0.9c-0.1,11.2,0.1,22.8,0,33.7c0-0.1-0.1-1.7-0.1-0.2
									c0.2,8.1-0.2,13,0.1,17c0,0.4-0.1,0.6-0.1-0.2c0.1,22.4,0.1,45.5,0.1,68.1c0.3,18.8,0,39.9,0.3,59.4l-0.1-0.1
									c0.2,25.3,0,52.2,0,78.4c0,10.9,0,18.3,0.1,29.2l-0.1,0.3c0.3,18.4-0.3,38.8,0.1,58l-0.1-1.3c0.2,3-0.1,11.6,0.2,10.5
									l-0.1,3.4c0.4,13.1-0.2,23.8,0.1,39.8l-0.1-1.1c0.1,4.3,0.1,9.2,0,12.4c0-0.5,0-0.3,0-1.3c-0.3,13.3,0,28.2,0,42.2l-0.1-1.6
									c0.2,6.8,0,19.3,0.1,28.2l-0.1-0.5l0.1,4.5l-0.1,0.1C501.9,832.8,502,843.7,502,855.1z"/>
								<path class="st5" d="M502.1,972.5c0,0,0-0.1,0-0.1C502.1,972,502.1,972.2,502.1,972.5z"/>
								<path class="st5" d="M501.5-186.5c0-0.5,0-1,0-1.4C501.5-187.8,501.5-187,501.5-186.5z"/>
							</g>
						</g>
					</g>
				</g>
			</g>
		</g>
	</g>
</g>
</svg>
