<?xml version="1.0" encoding="utf-8"?>
<!-- Generator: Adobe Illustrator 19.2.0, SVG Export Plug-In . SVG Version: 6.00 Build 0)  -->
<svg version="1.1" id="Layer_1" xmlns="http://www.w3.org/2000/svg" xmlns:xlink="http://www.w3.org/1999/xlink" x="0px" y="0px"
	 viewBox="0 0 18 18" style="enable-background:new 0 0 18 18;" xml:space="preserve">
<style type="text/css">
	.st0{fill:#FFFFFF;}
</style>
<g>
	<path class="st0" d="M16.1,17.4c-0.3,0-0.7-0.1-0.9-0.4l-3.4-3.4c-1.2,0.8-2.6,1.2-4,1.2c-3.9,0-7.1-3.2-7.1-7.1s3.2-7.1,7.1-7.1
		s7.1,3.2,7.1,7.1c0,1.4-0.4,2.8-1.2,4l3.4,3.4c0.2,0.2,0.4,0.6,0.4,0.9C17.4,16.8,16.8,17.4,16.1,17.4z M7.7,3.2
		c-2.5,0-4.5,2-4.5,4.5s2,4.5,4.5,4.5s4.5-2,4.5-4.5S10.2,3.2,7.7,3.2z"/>
</g>
</svg>
