<svg version="1.1" xmlns="http://www.w3.org/2000/svg" xmlns:xlink="http://www.w3.org/1999/xlink" viewBox="0 0 220.2 36.8" preserveAspectRatio="xMinYMin contain">
<style>
	#uskaite, #asta{
		fill:#000000;
	}
</style>
<g id="uskaite">
	<path id="letter-u-uppercase" d="M122.1,26.2c-2.7,3.3-5.3,5.9-7.7,7.9c-2.5,1.9-4.4,2.9-5.8,2.9c-0.9,0-1.6-0.3-2.1-1
		c-0.5-0.7-0.8-1.7-0.8-2.9c0-1.5,0.4-3.1,1.1-4.8c0.7-1.7,2-4,3.9-6.9l6.5-9.9c0.9-1.3,1.5-2.5,2-3.7c0.5-1.1,0.7-2.1,0.7-2.8
		c0-1.3-0.5-2.4-1.4-3.1c-0.9-0.7-2.2-1.1-4-1.1c-2,0-4.1,0.4-6.3,1.3c-2.2,0.9-4.2,2.1-6,3.7c-1.8,1.6-3.2,3.1-4.1,4.6
		c-0.9,1.5-1.3,3-1.3,4.5c0,1.2,0.3,2.1,1,2.8c0.7,0.7,1.6,1.1,2.8,1.1c1.9,0,4.1-0.9,6.5-2.8c2.4-1.9,4.3-4.2,5.7-7
		c0.5-1,0.9-2.2,1.2-3.4c0.3-1.2,0.6-1.9,0.8-1.9c0,0,0.1,0.1,0.2,0.2c0.1,0.2,0.1,0.3,0.1,0.5c0,1.4-0.2,2.8-0.6,4.3
		c-0.4,1.5-1,2.9-1.7,4.1c-1.3,2.2-3,4-5.1,5.4c-2.1,1.4-4.2,2.1-6.3,2.1c-1.6,0-2.9-0.5-3.8-1.4c-0.9-0.9-1.4-2.2-1.4-3.8
		c0-1.5,0.4-3,1.2-4.5c0.8-1.6,2-3.1,3.5-4.5c2-1.9,4.3-3.3,6.8-4.4c2.5-1.1,5-1.6,7.3-1.6c2.2,0,3.9,0.6,5.1,1.8
		c1.2,1.2,1.8,2.9,1.8,5.1c0,1.5-0.3,3-1,4.7c-0.7,1.7-2.1,4.1-4.2,7.3l-5.9,9.1c-1,1.5-1.8,2.9-2.4,4.1c-0.6,1.2-0.9,2-0.9,2.5
		c0,0.5,0.1,0.8,0.4,1.1c0.3,0.2,0.7,0.4,1.2,0.4c1.7,0,4.2-1.7,7.6-5c3.3-3.3,6.8-7.7,10.3-13.1l11.1-17l4.3-0.3l-17.4,27.2
		c-0.9,1.4-1.7,2.8-2.3,4.2c-0.6,1.3-0.9,2.3-0.9,2.7c0,0.3,0.1,0.6,0.3,0.8c0.2,0.2,0.4,0.4,0.7,0.4c0.7,0,1.5-0.3,2.3-0.8
		c0.8-0.5,2-1.6,3.5-3.2c0.4-0.4,0.9-0.9,1.4-1.5s0.8-0.9,0.9-0.9c0.1,0,0.1,0,0.2,0.1s0.1,0.1,0.1,0.2c0,0.2-0.2,0.4-0.5,0.8
		c-0.3,0.4-1,1.2-2.1,2.3c-1.3,1.3-2.5,2.4-3.5,3s-1.9,1-2.7,1c-0.8,0-1.4-0.3-1.8-1c-0.4-0.6-0.6-1.6-0.6-2.8c0-1,0.2-2.1,0.5-3.2
		C121,28.8,121.5,27.6,122.1,26.2z"/>
	<path id="letter-s_1_" d="M137.3,23.4c-1.3,1.3-2.7,2.8-4.1,4.5c-1.4,1.6-2.2,2.4-2.4,2.4c-0.1,0-0.1,0-0.2-0.1
		c-0.1,0-0.1-0.1-0.1-0.1c0-0.3,1.4-1.9,4.1-4.8c1.1-1.2,2-2.1,2.6-2.8c0.3-0.7,0.6-1.3,1-1.6c0.4-0.4,0.7-0.5,1.1-0.5
		c0.3,0,0.6,0.1,0.8,0.3c0.2,0.2,0.3,0.4,0.3,0.7c0,0.3-0.1,0.5-0.3,0.7c-0.2,0.2-0.4,0.4-0.8,0.6c-0.1,0-0.2,0.1-0.4,0.1
		c-0.6,0.2-0.9,0.8-0.9,1.7c0,0.7,0.2,1.7,0.5,3c0.3,1.4,0.5,2.4,0.5,3.1c0,0.5-0.1,1-0.2,1.5c-0.1,0.5-0.3,1-0.5,1.5
		c0.8-0.8,1.6-1.7,2.5-2.7c0.9-1,1.4-1.5,1.5-1.5c0.1,0,0.2,0,0.2,0.1c0.1,0.1,0.1,0.1,0.1,0.2c0,0.2-0.2,0.4-0.5,0.8
		c-0.3,0.4-0.8,0.9-1.6,1.7c-1.7,1.8-3.2,3.1-4.4,3.8s-2.3,1-3.5,1c-1.1,0-1.9-0.2-2.5-0.7c-0.6-0.5-1-1.1-1-1.9
		c0-0.4,0.2-0.8,0.5-1.2c0.3-0.3,0.7-0.5,1.1-0.5c0.3,0,0.6,0.1,0.8,0.3c0.2,0.2,0.3,0.4,0.3,0.7c0,0.2-0.1,0.5-0.3,0.9
		c-0.2,0.4-0.3,0.8-0.3,1c0,0.2,0.1,0.3,0.2,0.4c0.1,0.1,0.3,0.2,0.6,0.2c1.2,0,2.3-1.1,3.5-3.2c1.2-2.1,1.7-4.7,1.7-7.6
		c0-0.2,0-0.4,0-0.7C137.4,24.4,137.4,24,137.3,23.4z"/>
	<path id="letter-k" d="M143.1,36.4l-3.1,0.4l7.4-11.9l-4.1,4.4c-0.3,0.3-0.5,0.5-0.7,0.7c-0.2,0.2-0.4,0.3-0.5,0.3
		c-0.1,0-0.2,0-0.2-0.1c0,0-0.1-0.1-0.1-0.2c0,0,1.2-1.4,3.6-4c2.4-2.7,4.5-5.7,6.5-9.1l6.6-11.3l3.3-0.5L143.1,36.4z M151.9,28.9
		c-0.6,0.3-1.1,0.5-1.4,0.6s-0.7,0.2-1,0.2c-0.4,0-0.6-0.1-0.8-0.2c-0.2-0.2-0.3-0.4-0.3-0.6c0-0.3,0.2-0.6,0.5-0.8
		c0.3-0.2,0.7-0.3,1.2-0.3c0.3,0,0.5,0,0.8,0.1c0.3,0.1,0.5,0.2,0.8,0.4c0.8-0.2,1.8-1,3-2.4c0.3-0.3,0.5-0.6,0.6-0.8
		c0.9-1,1.7-1.8,2.3-2.2c0.7-0.4,1.3-0.6,2-0.6c0.6,0,1.1,0.2,1.5,0.5c0.4,0.3,0.5,0.8,0.5,1.3c0,0.5-0.1,0.9-0.4,1.2
		c-0.3,0.3-0.6,0.5-1.1,0.5c-0.6,0-1-0.4-1.3-1.1s-0.6-1.1-0.8-1.1c-0.2,0-0.7,0.7-1.7,2.2c-1,1.5-2.2,2.4-3.7,2.8
		c0.7,0.5,1.2,0.9,1.6,1.4c0.3,0.5,0.5,1.1,0.5,1.7c0,0.6-0.2,1.4-0.5,2.2s-0.5,1.4-0.5,1.7c0,0.2,0.1,0.4,0.2,0.5s0.3,0.2,0.5,0.2
		c0.4,0,1.1-0.4,2.2-1.3c1.1-0.9,2.3-2,3.6-3.5c0.3-0.3,0.7-0.8,1.1-1.3c0.4-0.5,0.7-0.8,0.8-0.8c0.1,0,0.1,0,0.2,0.1
		c0.1,0.1,0.1,0.1,0.1,0.2c0,0.2-0.2,0.5-0.5,1c-0.4,0.4-1,1.1-1.9,2c-1.4,1.5-2.6,2.5-3.6,3.3c-1,0.7-1.8,1.1-2.4,1.1
		c-0.8,0-1.5-0.4-2.1-1.2c-0.6-0.8-0.9-1.7-0.9-2.7c0-0.6,0.1-1.3,0.4-2.1c0.3-0.8,0.4-1.3,0.4-1.5c0-0.1,0-0.1,0-0.2
		S151.9,29.1,151.9,28.9z"/>
	<path id="letter-k_1_" d="M176,25.7l2.1-3.1l3.4-0.2l-5.7,8.9c-0.8,1.3-1.4,2.2-1.6,2.7c-0.2,0.5-0.3,0.9-0.3,1.3
		c0,0.3,0.1,0.5,0.2,0.6s0.3,0.2,0.6,0.2c0.4,0,1.1-0.4,2.1-1.1c0.9-0.7,2.1-1.8,3.5-3.3c0.4-0.4,0.9-0.9,1.4-1.5
		c0.5-0.6,0.9-0.9,1-0.9c0.1,0,0.2,0,0.2,0.1c0.1,0,0.1,0.1,0.1,0.2c0,0.2-0.2,0.5-0.6,1c-0.4,0.5-1,1.1-1.8,1.9
		c-1.8,1.9-3.2,3.1-4,3.6c-0.9,0.6-1.7,0.8-2.4,0.8c-0.7,0-1.2-0.2-1.6-0.7c-0.4-0.4-0.5-1.1-0.5-1.9c0-0.2,0-0.5,0.1-0.7
		c0-0.3,0.1-0.7,0.2-1.2c-1.2,1.5-2.3,2.6-3.4,3.4c-1.1,0.8-2.1,1.1-3.1,1.1c-0.9,0-1.6-0.5-2.2-1.4c-0.5-0.9-0.8-2.2-0.8-3.9
		c0-0.4,0-0.8,0.1-1.2c0.1-0.4,0.1-0.8,0.2-1.2c-0.2,0.3-0.4,0.6-0.6,0.7c-0.2,0.2-0.3,0.3-0.5,0.3c-0.1,0-0.2,0-0.2-0.1
		s-0.1-0.1-0.1-0.2c0-0.1,0.2-0.5,0.7-1c0.4-0.5,1-1.2,1.8-1.9c1.6-1.6,3.2-2.9,4.8-3.7c1.6-0.9,3.1-1.3,4.4-1.3
		c0.8,0,1.5,0.2,2,0.7s0.7,1,0.7,1.7c0,0.2,0,0.3,0,0.5C176.1,25.3,176.1,25.5,176,25.7z M165,34.4c0,0.5,0.1,0.9,0.3,1.2
		c0.2,0.3,0.5,0.4,0.9,0.4c0.6,0,1.3-0.3,2.1-0.9c0.8-0.6,1.7-1.4,2.7-2.4c1.4-1.5,2.5-3,3.2-4.5c0.8-1.5,1.1-2.7,1.1-3.8
		c0-0.5-0.2-0.8-0.5-1.1s-0.7-0.5-1.2-0.5c-0.8,0-1.8,0.4-2.7,1.1c-1,0.7-2,1.8-2.9,3.1c-0.9,1.3-1.7,2.7-2.2,4S165,33.5,165,34.4z"
		/>
	<path id="letter-i" d="M187.1,25.4c-0.9,0.9-1.9,2-2.9,3.1c-1,1.2-1.6,1.7-1.8,1.7c-0.1,0-0.1,0-0.2,0c0,0-0.1-0.1-0.1-0.1
		c0-0.2,0.6-1,1.7-2.3c1.1-1.3,2.8-3,4.8-5.2l3.7-0.3l-5.1,8c-1.1,1.7-1.8,2.9-2.1,3.5c-0.3,0.6-0.4,1-0.4,1.4
		c0,0.3,0.1,0.5,0.3,0.7c0.2,0.2,0.4,0.3,0.6,0.3c0.6,0,1.4-0.3,2.3-1c0.9-0.7,2.2-1.8,3.7-3.5c0.3-0.3,0.7-0.7,1.1-1.2
		c0.7-0.8,1.1-1.1,1.3-1.1c0.1,0,0.2,0,0.2,0.1c0.1,0.1,0.1,0.1,0.1,0.2c0,0.2-0.1,0.4-0.4,0.8c-0.3,0.4-0.9,1-1.9,2.1
		c-1.7,1.8-3,3-3.9,3.6c-0.9,0.6-1.7,0.9-2.4,0.9c-0.8,0-1.5-0.3-2-0.9c-0.5-0.6-0.8-1.4-0.8-2.4c0-1.3,1.2-3.8,3.6-7.4
		C186.7,25.9,186.9,25.6,187.1,25.4z M193.4,14.3c0-0.6,0.2-1.1,0.7-1.6c0.4-0.5,0.9-0.7,1.4-0.7c0.4,0,0.8,0.1,1,0.4
		c0.3,0.3,0.4,0.6,0.4,1.1c0,0.6-0.2,1.1-0.6,1.6c-0.4,0.5-0.9,0.7-1.4,0.7c-0.4,0-0.8-0.1-1-0.4C193.6,15.1,193.4,14.7,193.4,14.3z
		"/>
	<path id="letter-t_1_" d="M198.4,25.4c-0.9,0.9-1.9,2-2.9,3.1c-1,1.2-1.6,1.7-1.8,1.7c-0.1,0-0.1,0-0.2,0c0,0-0.1-0.1-0.1-0.1
		c0-0.4,1-1.6,3-3.6c2-2.1,3.4-3.7,4.3-5l2.2-3.3h-2.5l0.4-0.7h2.5l3.1-5l3.3-0.3l-3.3,5.3h5.9l-0.4,0.7h-6l-7.7,12.3
		c-0.8,1.3-1.4,2.4-1.8,3.1c-0.4,0.8-0.6,1.4-0.6,1.7c0,0.3,0.1,0.5,0.3,0.7c0.2,0.2,0.4,0.3,0.6,0.3c0.6,0,1.4-0.3,2.2-1
		c0.9-0.6,2.1-1.8,3.8-3.6c0.4-0.4,0.8-0.8,1.3-1.4c0.6-0.6,0.9-1,1.1-1c0.1,0,0.2,0,0.2,0.1c0.1,0.1,0.1,0.1,0.1,0.2
		c0,0.2-0.1,0.4-0.4,0.8c-0.3,0.4-0.9,1-1.9,2.1c-1.7,1.8-3,3-3.9,3.6c-0.9,0.6-1.7,0.9-2.4,0.9c-0.8,0-1.5-0.3-2-0.9
		c-0.5-0.6-0.8-1.4-0.8-2.4c0-1.3,1.2-3.8,3.6-7.4C198.1,25.9,198.3,25.6,198.4,25.4z"/>
	<path id="letter-e" d="M206.2,29.2c-0.3,0.4-0.5,0.6-0.7,0.8c-0.2,0.2-0.3,0.2-0.4,0.2c-0.1,0-0.1,0-0.2,0c0,0-0.1-0.1-0.1-0.2
		c0-0.1,0.2-0.4,0.5-0.8c0.4-0.4,0.8-1,1.5-1.7c1.6-1.7,3.2-3.1,4.8-4c1.6-0.9,3.2-1.4,4.6-1.4c0.9,0,1.5,0.2,2.1,0.7s0.8,1,0.8,1.7
		c0,1.4-0.9,2.8-2.8,4.1c-1.9,1.3-4.4,2.4-7.6,3.1c-0.1,0.6-0.2,1.1-0.2,1.4c0,0.3,0,0.5,0,0.7c0,0.8,0.2,1.3,0.5,1.8
		c0.4,0.4,0.9,0.6,1.5,0.6c0.9,0,1.8-0.3,2.8-0.9c1-0.6,2.2-1.5,3.5-2.9c0.6-0.6,1.2-1.2,1.8-2c0.6-0.7,1-1.1,1.2-1.1
		c0.1,0,0.2,0,0.2,0.1c0.1,0.1,0.1,0.1,0.1,0.2c0,0.2-0.2,0.4-0.5,0.8c-0.3,0.4-1,1.1-2.1,2.3c-1.5,1.5-2.8,2.6-4,3.2
		c-1.1,0.7-2.2,1-3.3,1c-1.3,0-2.3-0.5-3.1-1.6c-0.8-1-1.2-2.4-1.2-4c0-0.3,0-0.7,0.1-1C206.1,30,206.1,29.6,206.2,29.2z M209,30.9
		c2.3-0.5,4.3-1.5,5.9-3c1.6-1.5,2.5-2.9,2.5-4.2c0-0.3-0.1-0.5-0.3-0.7c-0.2-0.2-0.4-0.3-0.6-0.3c-1.1,0-2.4,0.8-4,2.4
		S209.9,28.7,209,30.9z"/>
</g>
<g id="asta">
	<path id="letter-a-uppercase" d="M21.4,30.2c-2.6,2.3-5,4-7.2,5.1c-2.3,1.1-4.5,1.6-6.7,1.6c-2.2,0-4-0.5-5.4-1.6
		c-1.4-1.1-2.1-2.4-2.1-4c0-1.1,0.3-1.9,0.8-2.6c0.5-0.7,1.2-1,2-1c0.6,0,1.1,0.2,1.6,0.6c0.4,0.4,0.7,1,0.7,1.6
		c0,1-0.5,1.7-1.4,2.1s-1.4,0.7-1.4,0.9c0,0.8,0.6,1.5,1.7,2.2c1.1,0.6,2.4,1,3.9,1c2.1,0,4.3-0.5,6.4-1.6c2.1-1,4.3-2.6,6.4-4.7
		c-2.4-1.8-4.3-3.7-5.5-5.6c-1.3-2-1.9-3.9-1.9-5.9c0-2.4,0.8-4.4,2.5-6.1c1.7-1.6,3.7-2.5,6.2-2.5c2.3,0,4.4,0.6,6.3,1.9
		c1.9,1.3,3.4,3.1,4.5,5.5c4.4-4.9,8.7-9,12.9-12.1c4.2-3.2,7-4.7,8.5-4.7c0.1,0,0.2,0,0.3,0c0,0,0,0.1,0,0.1c0,0.1-0.8,1.2-2.5,3.3
		c-1.7,2.1-3.3,4.5-4.8,6.9c-1.7,2.8-3.5,5.9-5.4,9.6s-3.9,7.9-6,12.7c2.9-0.3,5.5-1.4,7.7-3.3c0.4-0.4,0.7-0.6,0.8-0.6
		c0,0,0,0,0.1,0.1c0,0,0,0.1,0,0.1c0,0.3-0.2,0.7-0.7,1.1s-1.1,0.9-2,1.4c-1,0.6-2,1-3,1.4c-1,0.3-2.1,0.5-3.3,0.6l-0.8,1.8
		c-0.2,0.5-0.4,0.9-0.6,1s-0.4,0.3-0.7,0.3L30.9,37h-0.4c-0.1,0-0.2,0-0.3-0.1s-0.1-0.2-0.1-0.3c0-0.1,0.1-0.3,0.2-0.7l0.1-0.1
		l1-2.4c-1.7-0.2-3.4-0.5-5-1S23,31.1,21.4,30.2z M21.3,29.2c1.7-1.4,3.4-3.1,5.1-4.9c1.7-1.8,3.7-4.1,5.8-6.7
		c-0.9-2.1-2.1-3.8-3.7-4.9C27,11.6,25.2,11,23.2,11c-2.3,0-4.1,0.8-5.6,2.3c-1.5,1.5-2.2,3.5-2.2,5.9c0,2,0.5,3.8,1.5,5.5
		S19.3,27.8,21.3,29.2z M22,29.6c1.6,1,3.2,1.7,4.8,2.2c1.6,0.5,3.2,0.9,4.9,1c0.6-1.3,1-2.6,1.3-4.1c0.3-1.4,0.4-3,0.4-4.8
		c0-0.9-0.1-1.8-0.2-2.7c-0.2-0.9-0.4-1.9-0.7-2.9l-1,1.2C27.4,24.2,24.2,27.6,22,29.6z M33.9,28.6c2.8-5.7,5.6-10.8,8.7-15.2
		c3-4.4,6.4-8.4,10-11.9c-4.8,2.1-10.9,7.1-18.2,14.9l-1.2,1.3c0.4,1.3,0.6,2.5,0.8,3.7c0.2,1.2,0.3,2.3,0.3,3.4
		c0,0.6,0,1.3-0.1,1.9C34,27.3,34,28,33.9,28.6z"/>
	<path id="letter-s" d="M49.9,23.4c-1.3,1.3-2.7,2.8-4.1,4.5c-1.4,1.6-2.2,2.4-2.4,2.4c-0.1,0-0.1,0-0.2-0.1c-0.1,0-0.1-0.1-0.1-0.1
		c0-0.3,1.4-1.9,4.1-4.8c1.1-1.2,2-2.1,2.6-2.8c0.3-0.7,0.6-1.3,1-1.6c0.4-0.4,0.7-0.5,1.1-0.5c0.3,0,0.6,0.1,0.8,0.3
		c0.2,0.2,0.3,0.4,0.3,0.7c0,0.3-0.1,0.5-0.3,0.7c-0.2,0.2-0.4,0.4-0.8,0.6c-0.1,0-0.2,0.1-0.4,0.1c-0.6,0.2-0.9,0.8-0.9,1.7
		c0,0.7,0.2,1.7,0.5,3c0.3,1.4,0.5,2.4,0.5,3.1c0,0.5-0.1,1-0.2,1.5c-0.1,0.5-0.3,1-0.5,1.5c0.8-0.8,1.6-1.7,2.5-2.7
		c0.9-1,1.4-1.5,1.5-1.5c0.1,0,0.2,0,0.2,0.1c0.1,0.1,0.1,0.1,0.1,0.2c0,0.2-0.2,0.4-0.5,0.8c-0.3,0.4-0.8,0.9-1.6,1.7
		c-1.7,1.8-3.2,3.1-4.4,3.8s-2.3,1-3.5,1c-1.1,0-1.9-0.2-2.5-0.7c-0.6-0.5-1-1.1-1-1.9c0-0.4,0.2-0.8,0.5-1.2
		c0.3-0.3,0.7-0.5,1.1-0.5c0.3,0,0.6,0.1,0.8,0.3c0.2,0.2,0.3,0.4,0.3,0.7c0,0.2-0.1,0.5-0.3,0.9c-0.2,0.4-0.3,0.8-0.3,1
		c0,0.2,0.1,0.3,0.2,0.4c0.1,0.1,0.3,0.2,0.6,0.2c1.2,0,2.3-1.1,3.5-3.2c1.2-2.1,1.7-4.7,1.7-7.6c0-0.2,0-0.4,0-0.7
		C49.9,24.4,49.9,24,49.9,23.4z"/>
	<path id="letter-t" d="M59.3,25.4c-0.9,0.9-1.9,2-2.9,3.1c-1,1.2-1.6,1.7-1.8,1.7c-0.1,0-0.1,0-0.2,0c0,0-0.1-0.1-0.1-0.1
		c0-0.4,1-1.6,3-3.6c2-2.1,3.4-3.7,4.3-5l2.2-3.3h-2.5l0.4-0.7h2.5l3.1-5l3.3-0.3l-3.3,5.3h5.9l-0.4,0.7h-6l-7.7,12.3
		c-0.8,1.3-1.4,2.4-1.8,3.1c-0.4,0.8-0.6,1.4-0.6,1.7c0,0.3,0.1,0.5,0.3,0.7c0.2,0.2,0.4,0.3,0.6,0.3c0.6,0,1.4-0.3,2.2-1
		c0.9-0.6,2.1-1.8,3.8-3.6c0.4-0.4,0.8-0.8,1.3-1.4c0.6-0.6,0.9-1,1.1-1c0.1,0,0.2,0,0.2,0.1c0.1,0.1,0.1,0.1,0.1,0.2
		c0,0.2-0.1,0.4-0.4,0.8c-0.3,0.4-0.9,1-1.9,2.1c-1.7,1.8-3,3-3.9,3.6c-0.9,0.6-1.7,0.9-2.4,0.9c-0.8,0-1.5-0.3-2-0.9
		c-0.5-0.6-0.8-1.4-0.8-2.4c0-1.3,1.2-3.8,3.6-7.4C59,25.9,59.2,25.6,59.3,25.4z"/>
	<path id="letter-a" d="M79.9,25.7l2.1-3.1l3.4-0.2l-5.7,8.9c-0.8,1.3-1.4,2.2-1.6,2.7c-0.2,0.5-0.3,0.9-0.3,1.3
		c0,0.3,0.1,0.5,0.2,0.6s0.3,0.2,0.6,0.2c0.4,0,1.1-0.4,2.1-1.1c0.9-0.7,2.1-1.8,3.5-3.3c0.4-0.4,0.9-0.9,1.4-1.5
		c0.5-0.6,0.9-0.9,1-0.9c0.1,0,0.2,0,0.2,0.1c0.1,0,0.1,0.1,0.1,0.2c0,0.2-0.2,0.5-0.6,1c-0.4,0.5-1,1.1-1.8,1.9
		c-1.8,1.9-3.2,3.1-4,3.6c-0.9,0.6-1.7,0.8-2.4,0.8c-0.7,0-1.2-0.2-1.6-0.7c-0.4-0.4-0.5-1.1-0.5-1.9c0-0.2,0-0.5,0.1-0.7
		c0-0.3,0.1-0.7,0.2-1.2c-1.2,1.5-2.3,2.6-3.4,3.4c-1.1,0.8-2.1,1.1-3.1,1.1c-0.9,0-1.6-0.5-2.2-1.4c-0.5-0.9-0.8-2.2-0.8-3.9
		c0-0.4,0-0.8,0.1-1.2c0.1-0.4,0.1-0.8,0.2-1.2c-0.2,0.3-0.4,0.6-0.6,0.7c-0.2,0.2-0.3,0.3-0.5,0.3c-0.1,0-0.2,0-0.2-0.1
		s-0.1-0.1-0.1-0.2c0-0.1,0.2-0.5,0.7-1c0.4-0.5,1-1.2,1.8-1.9c1.6-1.6,3.2-2.9,4.8-3.7c1.6-0.9,3.1-1.3,4.4-1.3
		c0.8,0,1.5,0.2,2,0.7s0.7,1,0.7,1.7c0,0.2,0,0.3,0,0.5C80,25.3,80,25.5,79.9,25.7z M68.9,34.4c0,0.5,0.1,0.9,0.3,1.2
		c0.2,0.3,0.5,0.4,0.9,0.4c0.6,0,1.3-0.3,2.1-0.9c0.8-0.6,1.7-1.4,2.7-2.4c1.4-1.5,2.5-3,3.2-4.5c0.8-1.5,1.1-2.7,1.1-3.8
		c0-0.5-0.2-0.8-0.5-1.1s-0.7-0.5-1.2-0.5c-0.8,0-1.8,0.4-2.7,1.1c-1,0.7-2,1.8-2.9,3.1c-0.9,1.3-1.7,2.7-2.2,4S68.9,33.5,68.9,34.4
		z"/>
</g>
</svg>
